<svg width="60" height="60" viewBox="0 0 60 60" fill="none" xmlns="http://www.w3.org/2000/svg">
<circle cx="30" cy="30" r="26" fill="#DC1F2E" fill-opacity="0.1" stroke="#FDF4F5" stroke-width="8"/>
<path d="M30 43C37.1797 43 43 37.1797 43 30C43 22.8203 37.1797 17 30 17C22.8203 17 17 22.8203 17 30C17 37.1797 22.8203 43 30 43Z" fill="#DC1F2E" stroke="#DC1F2E" stroke-width="2" stroke-linecap="round" stroke-linejoin="round"/>
<path fill-rule="evenodd" clip-rule="evenodd" d="M30 22C30.2509 22 30.4827 22.1416 30.6081 22.3714L37.9059 35.7429C38.0314 35.9727 38.0314 36.2559 37.9059 36.4857C37.7805 36.7156 37.5487 36.8571 37.2978 36.8571H22.7022C22.4513 36.8571 22.2195 36.7156 22.0941 36.4857C21.9686 36.2559 21.9686 35.9727 22.0941 35.7429L29.3919 22.3714C29.5173 22.1416 29.7491 22 30 22ZM23.9185 35.3714H36.0815L30 24.2286L23.9185 35.3714Z" fill="white"/>
<path d="M29.4286 28.381C29.4286 28.0128 29.8123 27.7143 30.2857 27.7143C30.7591 27.7143 31.1429 28.0128 31.1429 28.381V31.0476C31.1429 31.4158 30.7591 31.7143 30.2857 31.7143C29.8123 31.7143 29.4286 31.4158 29.4286 31.0476V28.381Z" fill="white"/>
<path d="M29.4286 33.1428C29.4286 32.6695 29.8123 32.2857 30.2857 32.2857C30.7591 32.2857 31.1429 32.6695 31.1429 33.1428C31.1429 33.6162 30.7591 34 30.2857 34C29.8123 34 29.4286 33.6162 29.4286 33.1428Z" fill="white"/>
</svg>
