<svg width="28" height="28" viewBox="0 0 28 28" fill="none" xmlns="http://www.w3.org/2000/svg">
<path d="M19.3333 10.5082C19.3333 9.04732 18.7714 7.6463 17.7712 6.61331C16.771 5.58033 15.4145 5 14 5C12.5855 5 11.229 5.58033 10.2288 6.61331C9.22857 7.6463 8.66667 9.04732 8.66667 10.5082C8.66667 16.9344 6 19 6 19H22C22 19 19.3333 16.9344 19.3333 10.5082Z" stroke="#FFFFFF" stroke-width="2" stroke-linecap="round" stroke-linejoin="round"/>
<path d="M15.6818 22C15.5108 22.2947 15.2655 22.5393 14.9703 22.7093C14.6751 22.8793 14.3405 22.9688 13.9998 22.9688C13.6592 22.9688 13.3245 22.8793 13.0293 22.7093C12.7341 22.5393 12.4888 22.2947 12.3179 22" stroke="#FFFFFF" stroke-width="2" stroke-linecap="round" stroke-linejoin="round"/>
</svg>