<svg width="28" height="28" viewBox="0 0 28 28" fill="none" xmlns="http://www.w3.org/2000/svg">
<path d="M15.682 22.3334C15.5111 22.628 15.2657 22.8726 14.9706 23.0426C14.6754 23.2127 14.3407 23.3022 14.0001 23.3022C13.6594 23.3022 13.3247 23.2127 13.0296 23.0426C12.7344 22.8726 12.489 22.628 12.3181 22.3334" stroke="#6EBE49" stroke-width="2" stroke-linecap="round" stroke-linejoin="round"/>
<path d="M15.6822 22.3334C15.5113 22.628 15.266 22.8726 14.9708 23.0426C14.6756 23.2127 14.3409 23.3022 14.0003 23.3022C13.6597 23.3022 13.325 23.2127 13.0298 23.0426C12.7346 22.8726 12.4893 22.628 12.3184 22.3334" stroke="#9E9E9E" stroke-width="2" stroke-linecap="round" stroke-linejoin="round"/>
<path d="M13.5 5C12.056 5 11.1709 5.21621 10.1499 6.28096C9.12884 7.3457 8.55523 8.78981 8.55523 10.2956C8.55523 16.9194 5.83301 19.0485 5.83301 19.0485H22.1663C22.1663 19.0485 20.1336 17.4587 19.5812 12.7526" stroke="#9E9E9E" stroke-width="2" stroke-linecap="round" stroke-linejoin="round"/>
<path d="M21 7C21 8.65685 19.6569 10 18 10C16.3431 10 15 8.65685 15 7C15 5.34315 16.3431 4 18 4C19.6569 4 21 5.34315 21 7Z" fill="#DC1F2E"/>
</svg>