<svg width="60" height="60" viewBox="0 0 60 60" fill="none" xmlns="http://www.w3.org/2000/svg">
<circle cx="30" cy="30" r="26" fill="#6EBE49" fill-opacity="0.2" stroke="#F0FFEA" stroke-width="8"/>
<path d="M30 43C37.1797 43 43 37.1797 43 30C43 22.8203 37.1797 17 30 17C22.8203 17 17 22.8203 17 30C17 37.1797 22.8203 43 30 43Z" fill="#6EBE49"/>
<path fill-rule="evenodd" clip-rule="evenodd" d="M26.218 26.3141C26.9479 26.3141 27.5463 25.7511 27.6028 25.0357H31.2544C31.3109 25.7511 31.9093 26.3141 32.6392 26.3141H33.2856V26.3141C33.5817 26.3141 33.8217 26.5541 33.8217 26.8502V31.3167C33.8217 31.7309 34.1575 32.0667 34.5717 32.0667C34.9859 32.0667 35.3217 31.7309 35.3217 31.3167V26.8502C35.3217 25.7293 34.4159 24.8199 33.2963 24.8141C33.2928 24.8141 33.2893 24.8141 33.2858 24.8141H32.7457C32.6892 24.0987 32.0908 23.5357 31.3609 23.5357H27.4963C26.7664 23.5357 26.168 24.0987 26.1115 24.8141H24.9286C24.1593 24.8141 23.5357 25.4377 23.5357 26.2069V34.4301C23.5357 35.9489 24.7669 37.1801 26.2857 37.1801H32.6429C33.0571 37.1801 33.3929 36.8443 33.3929 36.4301C33.3929 36.0159 33.0571 35.6801 32.6429 35.6801H26.2857C25.5953 35.6801 25.0357 35.1204 25.0357 34.4301V26.3141H26.218Z" fill="white"/>
<line x1="26.9649" y1="28.01" x2="31.8935" y2="28.01" stroke="white" stroke-width="1.5" stroke-linecap="round" stroke-linejoin="round"/>
<line x1="26.9649" y1="30.5667" x2="31.8935" y2="30.5667" stroke="white" stroke-width="1.5" stroke-linecap="round" stroke-linejoin="round"/>
<path d="M26.857 33.2342L30.0713 33.2342" stroke="white" stroke-width="1.5" stroke-linecap="round" stroke-linejoin="round"/>
<path d="M32.6428 33.8734L34.7428 35.1517L37.1428 31.3167" stroke="white" stroke-width="1.5" stroke-linecap="round" stroke-linejoin="round"/>
</svg>
