<svg width="64" height="64" viewBox="0 0 64 64" fill="none" xmlns="http://www.w3.org/2000/svg">
<path d="M32 59C46.9117 59 59 46.9117 59 32C59 17.0883 46.9117 5 32 5C17.0883 5 5 17.0883 5 32C5 46.9117 17.0883 59 32 59Z" fill="#6EBE49" fill-opacity="0.2" stroke="#F0FFEA" stroke-width="10"/>
<path d="M32 46C39.732 46 46 39.732 46 32C46 24.268 39.732 18 32 18C24.268 18 18 24.268 18 32C18 39.732 24.268 46 32 46Z" fill="#6EBE49"/>
<path d="M32.167 33.3333C32.8114 33.3333 33.3337 32.811 33.3337 32.1667C33.3337 31.5223 32.8114 31 32.167 31C31.5227 31 31.0004 31.5223 31.0004 32.1667C31.0004 32.811 31.5227 33.3333 32.167 33.3333Z" stroke="white" stroke-linecap="round" stroke-linejoin="round"/>
<path d="M35.3636 33.3636C35.3031 33.5007 35.2851 33.6528 35.3118 33.8003C35.3386 33.9477 35.4088 34.0838 35.5136 34.1909L35.5409 34.2182C35.6254 34.3026 35.6925 34.4029 35.7382 34.5132C35.784 34.6236 35.8075 34.7419 35.8075 34.8614C35.8075 34.9808 35.784 35.0991 35.7382 35.2095C35.6925 35.3199 35.6254 35.4201 35.5409 35.5045C35.4565 35.5891 35.3562 35.6561 35.2459 35.7019C35.1355 35.7476 35.0172 35.7712 34.8977 35.7712C34.7783 35.7712 34.66 35.7476 34.5496 35.7019C34.4392 35.6561 34.339 35.5891 34.2545 35.5045L34.2273 35.4773C34.1201 35.3725 33.9841 35.3022 33.8366 35.2755C33.6892 35.2487 33.5371 35.2668 33.4 35.3273C33.2656 35.3849 33.1509 35.4806 33.0701 35.6025C32.9894 35.7245 32.946 35.8674 32.9455 36.0136V36.0909C32.9455 36.332 32.8497 36.5632 32.6792 36.7337C32.5087 36.9042 32.2775 37 32.0364 37C31.7953 37 31.564 36.9042 31.3935 36.7337C31.2231 36.5632 31.1273 36.332 31.1273 36.0909V36.05C31.1238 35.8995 31.0751 35.7536 30.9875 35.6312C30.9 35.5088 30.7776 35.4156 30.6364 35.3636C30.4993 35.3031 30.3472 35.2851 30.1997 35.3118C30.0523 35.3386 29.9162 35.4088 29.8091 35.5136L29.7818 35.5409C29.6974 35.6254 29.5971 35.6925 29.4868 35.7382C29.3764 35.784 29.2581 35.8075 29.1386 35.8075C29.0192 35.8075 28.9009 35.784 28.7905 35.7382C28.6801 35.6925 28.5799 35.6254 28.4955 35.5409C28.4109 35.4565 28.3439 35.3562 28.2981 35.2459C28.2524 35.1355 28.2288 35.0172 28.2288 34.8977C28.2288 34.7783 28.2524 34.66 28.2981 34.5496C28.3439 34.4392 28.4109 34.339 28.4955 34.2545L28.5227 34.2273C28.6275 34.1201 28.6978 33.9841 28.7245 33.8366C28.7513 33.6892 28.7332 33.5371 28.6727 33.4C28.6151 33.2656 28.5194 33.1509 28.3975 33.0701C28.2755 32.9894 28.1326 32.946 27.9864 32.9455H27.9091C27.668 32.9455 27.4368 32.8497 27.2663 32.6792C27.0958 32.5087 27 32.2775 27 32.0364C27 31.7953 27.0958 31.564 27.2663 31.3935C27.4368 31.2231 27.668 31.1273 27.9091 31.1273H27.95C28.1005 31.1238 28.2464 31.0751 28.3688 30.9875C28.4912 30.9 28.5844 30.7776 28.6364 30.6364C28.6969 30.4993 28.7149 30.3472 28.6882 30.1997C28.6614 30.0523 28.5912 29.9162 28.4864 29.8091L28.4591 29.7818C28.3746 29.6974 28.3075 29.5971 28.2618 29.4868C28.216 29.3764 28.1925 29.2581 28.1925 29.1386C28.1925 29.0192 28.216 28.9009 28.2618 28.7905C28.3075 28.6801 28.3746 28.5799 28.4591 28.4955C28.5435 28.4109 28.6438 28.3439 28.7541 28.2981C28.8645 28.2524 28.9828 28.2288 29.1023 28.2288C29.2217 28.2288 29.34 28.2524 29.4504 28.2981C29.5608 28.3439 29.661 28.4109 29.7455 28.4955L29.7727 28.5227C29.8799 28.6275 30.0159 28.6978 30.1634 28.7245C30.3108 28.7513 30.4629 28.7332 30.6 28.6727H30.6364C30.7708 28.6151 30.8855 28.5194 30.9662 28.3975C31.047 28.2755 31.0903 28.1326 31.0909 27.9864V27.9091C31.0909 27.668 31.1867 27.4368 31.3572 27.2663C31.5277 27.0958 31.7589 27 32 27C32.2411 27 32.4723 27.0958 32.6428 27.2663C32.8133 27.4368 32.9091 27.668 32.9091 27.9091V27.95C32.9097 28.0963 32.953 28.2392 33.0338 28.3611C33.1145 28.4831 33.2292 28.5787 33.3636 28.6364C33.5007 28.6969 33.6528 28.7149 33.8003 28.6882C33.9477 28.6614 34.0838 28.5912 34.1909 28.4864L34.2182 28.4591C34.3026 28.3746 34.4029 28.3075 34.5132 28.2618C34.6236 28.216 34.7419 28.1925 34.8614 28.1925C34.9808 28.1925 35.0991 28.216 35.2095 28.2618C35.3199 28.3075 35.4201 28.3746 35.5045 28.4591C35.5891 28.5435 35.6561 28.6438 35.7019 28.7541C35.7476 28.8645 35.7712 28.9828 35.7712 29.1023C35.7712 29.2217 35.7476 29.34 35.7019 29.4504C35.6561 29.5608 35.5891 29.661 35.5045 29.7455L35.4773 29.7727C35.3725 29.8799 35.3022 30.0159 35.2755 30.1634C35.2487 30.3108 35.2668 30.4629 35.3273 30.6V30.6364C35.3849 30.7708 35.4806 30.8855 35.6025 30.9662C35.7245 31.047 35.8674 31.0903 36.0136 31.0909H36.0909C36.332 31.0909 36.5632 31.1867 36.7337 31.3572C36.9042 31.5277 37 31.7589 37 32C37 32.2411 36.9042 32.4723 36.7337 32.6428C36.5632 32.8133 36.332 32.9091 36.0909 32.9091H36.05C35.9037 32.9097 35.7608 32.953 35.6389 33.0338C35.5169 33.1145 35.4213 33.2292 35.3636 33.3636V33.3636Z" stroke="white" stroke-width="1.2" stroke-linecap="round" stroke-linejoin="round"/>
<path d="M24.0531 30.4905C23.685 32.261 23.8957 34.0953 24.6534 35.7169C25.411 37.3386 26.6747 38.6597 28.254 39.4813C29.8332 40.3029 31.6425 40.5804 33.4093 40.2721C35.176 39.9637 36.8044 39.0862 38.0492 37.7718C39.294 36.4573 40.0877 34.7771 40.3107 32.9843C40.5337 31.1915 40.174 29.3833 39.2857 27.832C38.3974 26.2808 37.0287 25.0705 35.3858 24.3837C33.7429 23.6968 31.9687 23.4637 30.3856 23.7369L27.902 24.3398L26.6603 24.6413M26.6603 24.6413C26.6603 24.6413 27.4363 23.3351 28.1533 22.1341M26.6603 24.6413L29.1137 26.106" stroke="white" stroke-width="1.2" stroke-linecap="round" stroke-linejoin="round"/>
</svg>
