<svg width="64" height="64" viewBox="0 0 64 64" fill="none" xmlns="http://www.w3.org/2000/svg">
<path d="M32 45C39.1797 45 45 39.1797 45 32C45 24.8203 39.1797 19 32 19C24.8203 19 19 24.8203 19 32C19 39.1797 24.8203 45 32 45Z" fill="#F7A528" stroke="#F7A528" stroke-width="2" stroke-linecap="round" stroke-linejoin="round"/>
<circle cx="32" cy="32" r="27" fill="#F7A528" fill-opacity="0.2" stroke="#FFF6EC" stroke-width="10"/>
<path d="M27.1288 28.6774L29.1915 30.2688M34.2914 27.4544L32.9272 29.6561M36.4619 32.0514L34.1062 32.0137M34.9348 36.8105L33.0222 33.8648M27.4658 35.938L29.6686 33.659M34.3663 31.7714C34.3663 33.2863 33.1006 34.5143 31.5392 34.5143C29.9777 34.5143 28.712 33.2863 28.712 31.7714C28.712 30.2566 29.9777 29.0286 31.5392 29.0286C33.1006 29.0286 34.3663 30.2566 34.3663 31.7714ZM27.7696 27.6571C27.7696 28.667 26.9257 29.4857 25.8848 29.4857C24.8438 29.4857 24 28.667 24 27.6571C24 26.6473 24.8438 25.8286 25.8848 25.8286C26.9257 25.8286 27.7696 26.6473 27.7696 27.6571ZM37.6647 26.0571C37.6647 27.1933 36.7154 28.1143 35.5443 28.1143C34.3733 28.1143 33.4239 27.1933 33.4239 26.0571C33.4239 24.921 34.3733 24 35.5443 24C36.7154 24 37.6647 24.921 37.6647 26.0571ZM39.9656 31.6685C40.1626 32.6602 39.4937 33.619 38.4716 33.8101C37.4495 34.0013 36.4612 33.3524 36.2641 32.3607C36.0671 31.3691 36.736 30.4103 37.7581 30.2191C38.7802 30.028 39.7686 30.6769 39.9656 31.6685ZM37.6647 38.1714C37.6647 39.1813 36.8209 40 35.7799 40C34.739 40 33.8951 39.1813 33.8951 38.1714C33.8951 37.1615 34.739 36.3429 35.7799 36.3429C36.8209 36.3429 37.6647 37.1615 37.6647 38.1714ZM28.5694 37.6657C28.4124 38.7916 27.3444 39.5809 26.1839 39.4286C25.0234 39.2763 24.2099 38.2402 24.3668 37.1143C24.5238 35.9884 25.5918 35.1992 26.7523 35.3514C27.9128 35.5037 28.7263 36.5398 28.5694 37.6657Z" stroke="white" stroke-width="1.3"/>
</svg>
