<svg width="60" height="60" viewBox="0 0 60 60" fill="none" xmlns="http://www.w3.org/2000/svg">
<circle cx="30" cy="30" r="26" fill="#00A1DD" fill-opacity="0.18" stroke="#E3F8FF" stroke-width="8"/>
<path d="M30 43C37.1797 43 43 37.1797 43 30C43 22.8203 37.1797 17 30 17C22.8203 17 17 22.8203 17 30C17 37.1797 22.8203 43 30 43Z" fill="#00A1DD"/>
<path fill-rule="evenodd" clip-rule="evenodd" d="M30.1886 27.0868C30.5392 27.4726 30.4988 28.1438 30.0982 28.586L26.8348 32.1886C26.4343 32.6307 25.8254 32.6764 25.4747 32.2905C25.1241 31.9047 25.1645 31.2335 25.5651 30.7913L28.8285 27.1887C29.229 26.7466 29.8379 26.7009 30.1886 27.0868Z" fill="white"/>
<path fill-rule="evenodd" clip-rule="evenodd" d="M37.3678 24.7171C37.7086 25.1131 37.6515 25.7827 37.2401 26.2126L32.7713 30.8836C32.36 31.3135 31.7502 31.341 31.4094 30.945C31.0686 30.549 31.1257 29.8794 31.5371 29.4495L36.0059 24.7785C36.4172 24.3486 37.027 24.3211 37.3678 24.7171Z" fill="white"/>
<path fill-rule="evenodd" clip-rule="evenodd" d="M32.6264 30.9959C32.2902 31.3938 31.6807 31.3705 31.2649 30.9438L29.0064 28.6258C28.5906 28.1991 28.526 27.5305 28.8621 27.1325C29.1982 26.7345 29.8078 26.7579 30.2236 27.1846L32.4821 29.5026C32.8979 29.9293 32.9625 30.5979 32.6264 30.9959Z" fill="white"/>
<path d="M24.7666 34.3879C24.1044 34.5599 23.4866 33.9536 23.5647 33.2085L23.8748 30.2525C23.9659 29.3842 24.9065 28.9912 25.5 29.5735L27.817 31.8472C28.4104 32.4295 28.1654 33.5051 27.3937 33.7055L24.7666 34.3879Z" fill="white"/>
</svg>
