<svg width="60" height="60" viewBox="0 0 60 60" fill="none" xmlns="http://www.w3.org/2000/svg">
<circle cx="30" cy="30" r="26" fill="#00A1DD" fill-opacity="0.18" stroke="#E3F8FF" stroke-width="8"/>
<path d="M30 43C37.1797 43 43 37.1797 43 30C43 22.8203 37.1797 17 30 17C22.8203 17 17 22.8203 17 30C17 37.1797 22.8203 43 30 43Z" fill="#00A1DD"/>
<path fill-rule="evenodd" clip-rule="evenodd" d="M29.9011 33.1793C29.5553 32.7939 29.5967 32.1229 29.9935 31.6806L33.2267 28.077C33.6235 27.6348 34.2255 27.5887 34.5713 27.9741C34.9171 28.3595 34.8757 29.0305 34.4789 29.4727L31.2457 33.0763C30.8489 33.5186 30.2469 33.5647 29.9011 33.1793Z" fill="white"/>
<path fill-rule="evenodd" clip-rule="evenodd" d="M22.6085 35.2838C22.2724 34.8882 22.3303 34.2189 22.7378 33.7888L27.1645 29.1167C27.572 28.6866 28.1748 28.6587 28.5109 29.0542C28.8469 29.4498 28.7891 30.1191 28.3816 30.5492L23.9548 35.2213C23.5474 35.6514 22.9446 35.6793 22.6085 35.2838Z" fill="white"/>
<path fill-rule="evenodd" clip-rule="evenodd" d="M27.3508 29.2479C27.6864 28.8518 28.2892 28.8789 28.6971 29.3084L30.9128 31.6411C31.3207 32.0706 31.3792 32.7398 31.0436 33.1358C30.708 33.5318 30.1052 33.5047 29.6973 33.0753L27.4816 30.7425C27.0737 30.3131 27.0151 29.6439 27.3508 29.2479Z" fill="white"/>
<path d="M35.1326 25.6883C35.8191 25.5076 36.4579 26.1423 36.3753 26.9231L36.0476 30.0206C35.9514 30.9306 34.976 31.3431 34.3624 30.7334L31.9666 28.3529C31.353 27.7432 31.6092 26.6161 32.4092 26.4054L35.1326 25.6883Z" fill="white"/>
</svg>
