<svg width="41" height="36" viewBox="0 0 41 36" fill="none" xmlns="http://www.w3.org/2000/svg">
<path fill-rule="evenodd" clip-rule="evenodd" d="M18.9424 36C18.4962 34.3069 18.0619 32.6436 17.6336 31.0218C18.0917 30.796 18.4724 30.6238 18.9781 30.3743C21.0661 29.4832 23.0888 28.4673 24.9686 27.1842C27.3244 25.5802 29.5195 23.7921 31.4351 21.6772C32.9402 20.0198 34.1894 18.1901 34.9033 16.0455C35.3792 14.6198 35.6112 13.1584 35.403 11.6495C35.2305 10.402 34.7724 9.26139 34.0586 8.21584C33.2019 6.95644 32.0835 6 30.7272 5.31683C29.0258 4.46139 27.2173 4.14653 25.3315 4.2C23.6599 4.24752 22.0477 4.61584 20.4831 5.18614C17.5979 6.23762 14.9507 7.74059 12.4164 9.44554C11.6728 9.94455 10.9946 10.5149 10.4057 11.1921C10.0844 11.5604 9.83459 11.9703 9.73346 12.4515C9.56094 13.2713 10.0309 13.895 10.8697 13.9366C11.4586 13.9663 11.9821 13.7347 12.4938 13.497C14.0881 12.7426 15.5277 11.7267 17.0209 10.8C18.2464 10.0396 19.4778 9.29109 20.8282 8.75644C22.1548 8.22772 23.523 7.94257 24.9567 8.1802C26.5213 8.44158 27.7765 9.17822 28.538 10.6099C29.0734 11.6139 29.115 12.6772 28.8354 13.7644C28.5142 15 27.8003 16.004 26.9496 16.9248C25.7836 18.196 24.4332 19.2535 22.946 20.1267C21.3874 21.0416 19.8407 21.9802 18.2404 22.8178C16.3724 23.798 14.3796 24.4931 12.345 25.0812C10.6377 25.5743 8.90656 25.8 7.13973 25.6396C5.65845 25.5089 4.26046 25.0812 3.02903 24.2198C1.91063 23.4653 1.08968 22.4376 0.595924 21.1723C-0.171486 19.2178 -0.135793 17.2277 0.352018 15.2198C0.899319 12.9505 2.05341 10.9901 3.4752 9.16634C4.55195 7.78218 5.79528 6.55842 7.13973 5.43564C9.03743 3.84356 11.0482 2.40594 13.2076 1.18218C13.9393 0.766337 14.683 0.374257 15.373 0C15.6169 0.49901 15.8489 0.974257 16.0869 1.46139C15.4444 1.80594 14.8079 2.13861 14.1832 2.48317C11.4884 3.9802 9.02554 5.78614 6.82444 7.94257C5.62871 9.11287 4.62334 10.4376 3.86188 11.9287C3.06472 13.4911 2.63045 15.1485 2.82082 16.9129C3.02903 18.8436 3.93326 20.3287 5.71794 21.2198C6.78279 21.7545 7.91904 21.9089 9.08502 21.8851C10.6972 21.8495 12.2201 21.3921 13.7252 20.8574C15.962 20.0554 18.05 18.9386 20.0786 17.7149C21.2684 16.996 22.4582 16.2653 23.4636 15.297C23.993 14.7861 24.5284 14.2634 24.7961 13.5446C25.278 12.2733 24.5938 11.1743 23.2315 11.0495C22.4879 10.9782 21.8157 11.2277 21.1613 11.5307C19.4302 12.3327 17.8716 13.4257 16.2594 14.4297C15.028 15.196 13.7787 15.9386 12.4224 16.4673C11.4824 16.8356 10.5128 17.0614 9.4955 16.9485C7.74652 16.7465 6.65192 15.3683 6.84228 13.6218C6.99101 12.2495 7.66323 11.1267 8.56747 10.1228C9.56689 9.01782 10.7388 8.10891 11.9881 7.31287C13.9155 6.08317 15.8668 4.90693 17.9608 3.97426C20.382 2.88713 22.8687 2.03168 25.5397 1.79406C27.4672 1.62178 29.3768 1.73465 31.2626 2.22178C32.9283 2.65545 34.4631 3.35644 35.8432 4.37822C37.2115 5.39406 38.312 6.64752 39.1508 8.13267C39.9063 9.47525 40.3347 10.9129 40.4596 12.4455C40.5905 14.0554 40.4001 15.6356 39.9361 17.1743C39.484 18.6713 38.8712 20.1149 38.0384 21.4515C36.8724 23.3168 35.5042 25.0099 33.9039 26.5188C32.2798 28.0574 30.6379 29.5782 28.7878 30.8495C26.3785 32.5069 23.874 33.9802 21.1613 35.0911C20.4237 35.3822 19.7038 35.6851 18.9424 36Z" fill="#6CC04A"/>
</svg>
