<svg width="60" height="60" viewBox="0 0 60 60" fill="none" xmlns="http://www.w3.org/2000/svg">
<circle cx="30" cy="30" r="26" fill="#00A1DD" fill-opacity="0.18" stroke="#E3F8FF" stroke-width="8"/>
<path d="M30.0007 43.001C37.1804 43.001 43.0007 37.1807 43.0007 30.001C43.0007 22.8213 37.1804 17.001 30.0007 17.001C22.821 17.001 17.0007 22.8213 17.0007 30.001C17.0007 37.1807 22.821 43.001 30.0007 43.001Z" fill="#00A1DD"/>
<path d="M34.0004 23.6199L30.0004 22.3892L26.0004 23.6199M34.0004 23.6199L30.0004 25.4661M34.0004 23.6199V29.1584L30.0004 30.3892M30.0004 25.4661L26.0004 23.6199M30.0004 25.4661V30.3892M26.0004 23.6199V29.1584L30.0004 30.3892" stroke="white" stroke-width="1.2"/>
<path d="M38.0004 30.3909L34.0004 29.1602L30.0004 30.3909M38.0004 30.3909L34.0004 32.2371M38.0004 30.3909V35.9294L34.0004 37.1602M34.0004 32.2371L30.0004 30.3909M34.0004 32.2371V37.1602M30.0004 30.3909V35.9294L34.0004 37.1602" stroke="white" stroke-width="1.2"/>
<path d="M30.0004 30.3909L26.0004 29.1602L22.0004 30.3909M30.0004 30.3909L26.0004 32.2371M30.0004 30.3909V35.9294L26.0004 37.1602M26.0004 32.2371L22.0004 30.3909M26.0004 32.2371V37.1602M22.0004 30.3909V35.9294L26.0004 37.1602" stroke="white" stroke-width="1.2"/>
</svg>
