<svg width="60" height="60" viewBox="0 0 60 60" fill="none" xmlns="http://www.w3.org/2000/svg">
<circle cx="30" cy="30" r="26" fill="#F7A528" fill-opacity="0.2" stroke="#FFF6EC" stroke-width="8"/>
<path d="M29.9997 43C37.1794 43 42.9997 37.1797 42.9997 30C42.9997 22.8203 37.1794 17 29.9997 17C22.82 17 16.9997 22.8203 16.9997 30C16.9997 37.1797 22.82 43 29.9997 43Z" fill="#F7A528" stroke="#F7A528" stroke-width="2" stroke-linecap="round" stroke-linejoin="round"/>
<path d="M34.0004 23.6194L30.0004 22.3887L26.0004 23.6194M34.0004 23.6194L30.0004 25.4656M34.0004 23.6194V29.1579L30.0004 30.3887M30.0004 25.4656L26.0004 23.6194M30.0004 25.4656V30.3887M26.0004 23.6194V29.1579L30.0004 30.3887" stroke="white" stroke-width="1.2"/>
<path d="M38.0004 30.3906L34.0004 29.1598L30.0004 30.3906M38.0004 30.3906L34.0004 32.2367M38.0004 30.3906V35.929L34.0004 37.1598M34.0004 32.2367L30.0004 30.3906M34.0004 32.2367V37.1598M30.0004 30.3906V35.929L34.0004 37.1598" stroke="white" stroke-width="1.2"/>
<path d="M30.0004 30.3906L26.0004 29.1598L22.0004 30.3906M30.0004 30.3906L26.0004 32.2367M30.0004 30.3906V35.929L26.0004 37.1598M26.0004 32.2367L22.0004 30.3906M26.0004 32.2367V37.1598M22.0004 30.3906V35.929L26.0004 37.1598" stroke="white" stroke-width="1.2"/>
</svg>
