<svg width="60" height="60" viewBox="0 0 60 60" fill="none" xmlns="http://www.w3.org/2000/svg">
<circle cx="30" cy="30" r="26" fill="#EEEEEE" stroke="#F7F7F7" stroke-width="8"/>
<path d="M30 43C37.1797 43 43 37.1797 43 30C43 22.8203 37.1797 17 30 17C22.8203 17 17 22.8203 17 30C17 37.1797 22.8203 43 30 43Z" fill="#B7B7B7" stroke="#B7B7B7" stroke-width="2" stroke-linecap="round" stroke-linejoin="round"/>
<path fill-rule="evenodd" clip-rule="evenodd" d="M30 22C30.2509 22 30.4827 22.1416 30.6081 22.3714L37.9059 35.7429C38.0314 35.9727 38.0314 36.2559 37.9059 36.4857C37.7805 36.7156 37.5487 36.8571 37.2978 36.8571H22.7022C22.4513 36.8571 22.2195 36.7156 22.0941 36.4857C21.9686 36.2559 21.9686 35.9727 22.0941 35.7429L29.3919 22.3714C29.5173 22.1416 29.7491 22 30 22ZM23.9185 35.3714H36.0815L30 24.2286L23.9185 35.3714Z" fill="white"/>
<path d="M29.4277 28.3805C29.4277 28.0123 29.8115 27.7139 30.2849 27.7139V27.7139C30.7583 27.7139 31.142 28.0123 31.142 28.3805V31.0472C31.142 31.4154 30.7583 31.7139 30.2849 31.7139V31.7139C29.8115 31.7139 29.4277 31.4154 29.4277 31.0472V28.3805Z" fill="white"/>
<path d="M29.4277 33.1423C29.4277 32.6689 29.8115 32.2852 30.2849 32.2852V32.2852C30.7583 32.2852 31.142 32.6689 31.142 33.1423V33.1423C31.142 33.6157 30.7583 33.9994 30.2849 33.9994V33.9994C29.8115 33.9994 29.4277 33.6157 29.4277 33.1423V33.1423Z" fill="white"/>
</svg>
