<svg xmlns="http://www.w3.org/2000/svg" viewBox="0 0 170.84 22.49"><defs><style>.cls-1{fill:#6abf4b;}</style></defs><title>Cortx-logo-GRN</title><g id="Layer_2" data-name="Layer 2"><g id="Layer_1-2" data-name="Layer 1"><path class="cls-1" d="M16.3,0C22.58,0,27,1,29.61,2.12V7.36A31.68,31.68,0,0,0,16.24,4.67c-4.58,0-7.33,1-8.55,2.18a5.61,5.61,0,0,0-1.62,4.4,5.6,5.6,0,0,0,1.62,4.39c1.22,1.23,4,2.19,8.55,2.19a33.48,33.48,0,0,0,13.37-2.49v5c-2.57,1.16-7,2.12-13.31,2.12-7.48,0-11.54-1.73-13.55-3.71A10.23,10.23,0,0,1,0,11.25,10.26,10.26,0,0,1,2.75,3.71C4.76,1.74,8.82,0,16.3,0Z"/><path class="cls-1" d="M35.32,3.77c2-2,5.77-3.77,14.62-3.77S62.53,1.74,64.57,3.77a10.05,10.05,0,0,1,2.81,7.48,10,10,0,0,1-2.81,7.47c-2,2-5.78,3.77-14.63,3.77s-12.59-1.73-14.62-3.77a10,10,0,0,1-2.81-7.47A10,10,0,0,1,35.32,3.77Zm24.4,3c-1.22-1.23-3.8-2.27-9.78-2.27s-8.55,1-9.78,2.27a5.9,5.9,0,0,0-1.58,4.46,5.89,5.89,0,0,0,1.58,4.45C41.39,16.93,44,18,49.94,18s8.56-1,9.78-2.27a5.85,5.85,0,0,0,1.59-4.45A5.86,5.86,0,0,0,59.72,6.79Z"/><path class="cls-1" d="M99.28,12.65c-1.19,1.2-2.87,2-6.46,2.24l10.56,6.73v.09h-8.7L84.6,15H77.12v6.73h-6V.78H89.42c6.31,0,8.43.75,10,2.27a6.59,6.59,0,0,1,1.68,4.79A6.49,6.49,0,0,1,99.28,12.65Zm-10-7.06H77.12v5H89.33c2.75,0,4.36-.21,5.14-1A2.27,2.27,0,0,0,95.07,8a2.15,2.15,0,0,0-.63-1.65C93.78,5.71,92.38,5.59,89.33,5.59Z"/><path class="cls-1" d="M135.44,5.5H122.19V21.71h-6V5.5H102.93V.78h32.51Z"/><path class="cls-1" d="M144,21.71h-7.93v-.09l13-10.29L136.12.87V.78h8.67l8.8,7.41,9-7.41h7.92V.87L157.69,11l13.15,10.58v.09h-8.67l-9-7.53Z"/></g></g></svg>