<svg width="26" height="27" viewBox="0 0 26 27" fill="none" xmlns="http://www.w3.org/2000/svg">
<path d="M19.4126 5.0185L21.9565 2.33331L24.5004 5.0185" stroke="#6EBE49" stroke-width="2" stroke-linecap="round"/>
<path d="M6.96529 22.4722C6.96529 24.196 5.65436 25.5 4.1495 25.5C2.64464 25.5 1.33371 24.196 1.33371 22.4722C1.33371 20.7484 2.64464 19.4444 4.1495 19.4444C5.65436 19.4444 6.96529 20.7484 6.96529 22.4722Z" stroke="#6EBE49" stroke-width="2"/>
<mask id="path-3-inside-1" fill="white">
<rect x="7.96524" y="7.70374" width="10.1754" height="10.7407" rx="1"/>
</mask>
<rect x="7.96524" y="7.70374" width="10.1754" height="10.7407" rx="1" stroke="#6EBE49" stroke-width="4" mask="url(#path-3-inside-1)"/>
<path d="M4.14948 19.787L4.14948 7.70368C4.14948 6.27937 4.6185 4.9134 5.45336 3.90626C6.28823 2.89912 7.42055 2.33331 8.60123 2.33331C9.78191 2.33331 10.9142 2.89912 11.7491 3.90626C12.584 4.9134 13.053 6.27937 13.053 7.70368V8.30039" stroke="#6EBE49" stroke-width="2"/>
<path d="M21.9565 3.67593L21.9565 18.4444C21.9565 19.8688 21.4875 21.2347 20.6527 22.2419C19.8178 23.249 18.6855 23.8148 17.5048 23.8148C16.3241 23.8148 15.1918 23.249 14.3569 22.2419C13.5221 21.2347 13.053 19.8688 13.053 18.4444L13.053 17.8477" stroke="#6EBE49" stroke-width="2"/>
</svg>
