<svg width="54" height="57" viewBox="0 0 54 57" fill="none" xmlns="http://www.w3.org/2000/svg">
<path d="M11.7776 17.5913L18.2235 22.8961M34.1605 13.5146L29.8976 20.8536M40.9435 28.8379L33.5818 28.7124M36.1712 44.7015L30.1944 34.8828M12.8305 41.7933L19.7143 34.1967M34.3948 27.9048C34.3948 32.9542 30.4393 37.0476 25.5599 37.0476C20.6805 37.0476 16.7249 32.9542 16.7249 27.9048C16.7249 22.8553 20.6805 18.7619 25.5599 18.7619C30.4393 18.7619 34.3948 22.8553 34.3948 27.9048ZM13.7799 14.1905C13.7799 17.5568 11.1429 20.2857 7.88997 20.2857C4.63703 20.2857 2 17.5568 2 14.1905C2 10.8242 4.63703 8.09524 7.88997 8.09524C11.1429 8.09524 13.7799 10.8242 13.7799 14.1905ZM44.7023 8.85714C44.7023 12.6442 41.7356 15.7143 38.076 15.7143C34.4165 15.7143 31.4498 12.6442 31.4498 8.85714C31.4498 5.07005 34.4165 2 38.076 2C41.7356 2 44.7023 5.07005 44.7023 8.85714ZM51.8924 27.5617C52.5081 30.8672 50.4179 34.0633 47.2238 34.7005C44.0296 35.3377 40.9411 33.1746 40.3254 29.8691C39.7097 26.5637 41.8 23.3675 44.9941 22.7304C48.1882 22.0932 51.2767 24.2563 51.8924 27.5617ZM44.7023 49.2381C44.7023 52.6044 42.0652 55.3333 38.8123 55.3333C35.5594 55.3333 32.9223 52.6044 32.9223 49.2381C32.9223 45.8718 35.5594 43.1429 38.8123 43.1429C42.0652 43.1429 44.7023 45.8718 44.7023 49.2381ZM16.2793 47.5524C15.7888 51.3053 12.4513 53.9362 8.82477 53.4287C5.19823 52.9211 2.65593 49.4673 3.14639 45.7144C3.63684 41.9615 6.97433 39.3306 10.6009 39.8381C14.2274 40.3457 16.7697 43.7995 16.2793 47.5524Z" stroke="#6EBE49" stroke-width="3"/>
</svg>
