<svg width="28" height="28" viewBox="0 0 28 28" fill="none" xmlns="http://www.w3.org/2000/svg">
<path fill-rule="evenodd" clip-rule="evenodd" d="M15 5C15 4.44772 14.5523 4 14 4C13.4477 4 13 4.44772 13 5V14.8358L10.3321 12.1679C9.94158 11.7774 9.30842 11.7774 8.91789 12.1679C8.52737 12.5584 8.52737 13.1916 8.91789 13.5821L13.2929 17.9571C13.4804 18.1446 13.7348 18.25 14 18.25C14.2652 18.25 14.5196 18.1446 14.7071 17.9571L19.0821 13.5821C19.4726 13.1916 19.4726 12.5584 19.0821 12.1679C18.6916 11.7774 18.0584 11.7774 17.6679 12.1679L15 14.8358V5ZM7 18C7 17.4477 6.55228 17 6 17C5.44772 17 5 17.4477 5 18V21C5 22.1046 5.89543 23 7 23H21C22.1046 23 23 22.1046 23 21V18C23 17.4477 22.5523 17 22 17C21.4477 17 21 17.4477 21 18V21H7V18Z" fill="#6EBE49"/>
</svg>
