<svg width="28" height="28" viewBox="0 0 28 28" fill="none" xmlns="http://www.w3.org/2000/svg">
    <path d="M12 20L21.8733 9.11384C22.072 8.90191 22.2296 8.65031 22.3371 8.37341C22.4447 8.0965 22.5 7.79972 22.5 7.5C22.5 7.20028 22.4447 6.9035 22.3371 6.62659C22.2296 6.34969 21.6987 5.71193 21.5 5.5C21.3013 5.28807 20.5784 4.78843 20.3188 4.67373C20.0592 4.55903 19.781 4.5 19.5 4.5C19.219 4.5 18.9408 4.55903 18.6812 4.67373C18.4216 4.78843 18.1857 4.95654 17.987 5.16848L8 16M12 20L6 22L8 16M12 20L8 16" stroke="#6EBE49" stroke-width="2" stroke-linecap="round" stroke-linejoin="round" />
</svg>