<svg width="35" height="45" viewBox="0 0 35 45" fill="none" xmlns="http://www.w3.org/2000/svg">
<path d="M25.6943 2.21715L33.4832 12.4125H28.9443C27.1494 12.4125 25.6943 10.9574 25.6943 9.1625V2.21715ZM24.1943 0.75V9.1625C24.1943 11.7859 26.321 13.9125 28.9443 13.9125H34.25V41C34.25 42.7949 32.7949 44.25 31 44.25H4C2.20507 44.25 0.75 42.7949 0.75 41V4C0.75 2.20507 2.20507 0.75 4 0.75H24.1943Z" fill="white" stroke="#6EBE49" stroke-width="1.5" stroke-linecap="round"/>
<path d="M18.144 17.6317V27.5904C18.144 28.1496 17.6927 28.6029 17.136 28.6029C16.5793 28.6029 16.128 28.1496 16.128 27.5904V17.6317L13.4387 20.3329C13.0451 20.7283 12.4068 20.7283 12.0132 20.3329C11.6196 19.9375 11.6196 19.2965 12.0132 18.901L16.4232 14.4714C16.6122 14.2815 16.8686 14.1748 17.136 14.1748C17.4033 14.1748 17.6597 14.2815 17.8487 14.4714L22.2587 18.901C22.6524 19.2965 22.6524 19.9375 22.2587 20.3329C21.8651 20.7283 21.2268 20.7283 20.8332 20.3329L18.144 17.6317Z" fill="#6EBE49"/>
<path d="M10.08 28.3498C10.08 27.7906 9.62867 27.3373 9.07196 27.3373C8.51526 27.3373 8.06396 27.7906 8.06396 28.3498V31.3873C8.06396 32.5057 8.96656 33.4123 10.08 33.4123H24.192C25.3054 33.4123 26.208 32.5057 26.208 31.3873V28.3498C26.208 27.7906 25.7567 27.3373 25.2 27.3373C24.6433 27.3373 24.192 27.7906 24.192 28.3498V31.3873H10.08V28.3498Z" fill="#6EBE49"/>
</svg>
