<svg width="28" height="28" viewBox="0 0 28 28" fill="none" 
    xmlns="http://www.w3.org/2000/svg">
    <path d="M16.0826 9.07607C15.909 9.25311 15.8118 9.49114 15.8118 9.73906C15.8118 9.98697 15.909 10.225 16.0826 10.402L17.598 11.9174C17.775 12.091 18.013 12.1882 18.2609 12.1882C18.5089 12.1882 18.7469 12.091 18.9239 11.9174L22.4946 8.34679C22.9708 9.39922 23.115 10.5718 22.908 11.7083C22.7009 12.8447 22.1524 13.8911 21.3356 14.7079C20.5187 15.5247 19.4724 16.0732 18.3359 16.2803C17.1994 16.4874 16.0269 16.3432 14.9744 15.8669L8.42983 22.4115C8.05304 22.7883 7.54201 23 7.00915 23C6.47629 23 5.96525 22.7883 5.58847 22.4115C5.21168 22.0347 5 21.5237 5 20.9909C5 20.458 5.21168 19.947 5.58847 19.5702L12.1331 13.0256C11.6568 11.9731 11.5126 10.8006 11.7197 9.66409C11.9268 8.52763 12.4753 7.48127 13.2921 6.66444C14.1089 5.84761 15.1553 5.29911 16.2917 5.09205C17.4282 4.88498 18.6008 5.02918 19.6532 5.50542L16.092 9.0666L16.0826 9.07607Z" stroke="#FFFFFF" stroke-width="2" stroke-linecap="round" stroke-linejoin="round"/>
</svg>
