<svg width="47" height="48" viewBox="0 0 47 48" fill="none" xmlns="http://www.w3.org/2000/svg">
<path d="M35.528 7.99999L40.264 3L45.0001 7.99999" stroke="#6EBE49" stroke-width="3" stroke-linecap="round"/>
<path d="M12.7082 40.501C12.7082 43.8923 10.1236 46.5009 7.10412 46.5009C4.08465 46.5009 1.5 43.8923 1.5 40.501C1.5 37.1096 4.08465 34.501 7.10412 34.501C10.1236 34.501 12.7082 37.1096 12.7082 40.501Z" stroke="#6EBE49" stroke-width="3"/>
<mask id="path-3-inside-1_135_1909" fill="white">
<rect x="14.2109" y="12.999" width="18.9443" height="19.9999" rx="1"/>
</mask>
<rect x="14.2109" y="12.999" width="18.9443" height="19.9999" rx="1" stroke="#6EBE49" stroke-width="6" mask="url(#path-3-inside-1_135_1909)"/>
<path d="M7.09839 35.4999L7.09839 13C7.09839 10.3478 7.9716 7.80428 9.52593 5.92892C11.0803 4.05356 13.1884 3 15.3865 3C17.5847 3 19.6928 4.05357 21.2471 5.92892C22.8014 7.80428 23.6747 10.3478 23.6747 13V14.1111" stroke="#6EBE49" stroke-width="3"/>
<path d="M40.5759 6.00011L40.5759 33.5C40.5759 36.1522 39.7027 38.6957 38.1484 40.5711C36.5941 42.4464 34.4859 43.5 32.2878 43.5C30.0896 43.5 27.9815 42.4464 26.4272 40.5711C24.8729 38.6957 23.9997 36.1522 23.9997 33.5L23.9997 32.3889" stroke="#6EBE49" stroke-width="3"/>
</svg>
