<svg width="49" height="50" viewBox="0 0 49 50" fill="none" xmlns="http://www.w3.org/2000/svg">
<path d="M28.019 19.4082C21.347 23.7486 7.2752 35.4024 2.1265 28.0742C1.01417 26.7216 2.00148 22.1676 6.70403 21.4812" stroke="#6EBE49" stroke-width="3"/>
<ellipse rx="2.14296" ry="2.14304" transform="matrix(0.995832 -0.0912087 0.0912015 0.995833 27.6723 19.3488)" fill="#6EBE49"/>
<rect x="29.29" y="32.4658" width="6.57184" height="6.57218" stroke="#6EBE49" stroke-width="2"/>
<path d="M34.4514 18.0723L40.2509 28.1178H28.6518L34.4514 18.0723Z" stroke="#6EBE49" stroke-width="2"/>
<ellipse cx="21.3199" cy="36.288" rx="4.28592" ry="4.28609" stroke="#6EBE49" stroke-width="2"/>
<path d="M4.14087 8.16197L13.2189 44.6714C18.5006 46.7696 28.1838 49.9074 37.9771 44.6714L47.0001 8.16197M4.14087 8.16197C4.14087 8.16197 16.4733 12.541 25.5705 12.246C33.6967 11.9826 47.0001 8.16197 47.0001 8.16197M4.14087 8.16197C12.7429 2.96346 20.7252 1.80783 26.8507 2.02447C32.3957 2.22057 39.6143 3.28763 47.0001 8.16197" stroke="#6EBE49" stroke-width="3"/>
</svg>
