<svg width="33" height="33" viewBox="0 0 33 33" fill="none" xmlns="http://www.w3.org/2000/svg">
<path d="M1 1H20C21.6569 1 23 2.34315 23 4V20C23 21.6569 21.6569 23 20 23H4C2.34315 23 1 21.6569 1 20V1Z" fill="white" stroke="#6EBE49" stroke-width="2"/>
<circle cx="24" cy="24" r="8.25" fill="white" stroke="#6EBE49" stroke-width="1.5"/>
<path d="M26.8945 20.1111L27.9472 19L28.9998 20.1111" stroke="#6EBE49" stroke-linecap="round"/>
<path d="M21.6579 27.3332C21.6579 28.0034 21.1497 28.4999 20.5789 28.4999C20.0082 28.4999 19.5 28.0034 19.5 27.3332C19.5 26.6631 20.0082 26.1666 20.5789 26.1666C21.1497 26.1666 21.6579 26.6631 21.6579 27.3332Z" stroke="#6EBE49"/>
<rect x="22.6575" y="21.7222" width="3.21053" height="3.44444" rx="0.5" stroke="#6EBE49"/>
<path d="M20.5793 26.2222L20.5793 21.2222C20.5793 20.6329 20.7734 20.0676 21.1189 19.6509C21.4643 19.2341 21.9329 19 22.4215 19C22.91 19 23.3786 19.2341 23.724 19.6509C24.0695 20.0676 24.2636 20.6329 24.2636 21.2222V21.4691" stroke="#6EBE49" stroke-width="1.5"/>
<path d="M27.948 19.5555L27.948 25.6666C27.948 26.256 27.7539 26.8212 27.4085 27.238C27.063 27.6547 26.5944 27.8889 26.1059 27.8889C25.6173 27.8889 25.1488 27.6547 24.8033 27.238C24.4579 26.8212 24.2638 26.256 24.2638 25.6666L24.2638 25.4197" stroke="#6EBE49" stroke-width="1.5"/>
<path d="M12 18.8327C8.69156 18.8327 6 16.1417 6 12.8339C6 10.9021 6.93948 9.07716 8.51303 7.95198C8.93872 7.64774 9.5304 7.74597 9.83466 8.17157C10.1391 8.5971 10.0408 9.1887 9.61517 9.49293C8.53792 10.2632 7.89468 11.5122 7.89468 12.8339C7.89468 15.0973 9.7363 16.9384 12 16.9384C14.2637 16.9384 16.1053 15.0973 16.1053 12.8339C16.1053 11.5122 15.4621 10.2632 14.3848 9.49293C13.9592 9.18873 13.8609 8.59714 14.1653 8.17157C14.4696 7.74601 15.0613 7.64774 15.487 7.95198C17.0605 9.07712 18 10.9021 18 12.8339C18 16.1417 15.3084 18.8327 12 18.8327Z" fill="#6EBE49"/>
<path d="M12.092 12.2792C11.5675 12.2792 11.1423 11.8541 11.1423 11.3296V5.94932C11.1423 5.42508 11.5675 5 12.092 5C12.6164 5 13.0416 5.42508 13.0416 5.94932V11.3296C13.0416 11.8541 12.6164 12.2792 12.092 12.2792Z" fill="#6EBE49"/>
</svg>
