<svg width="52" height="48" viewBox="0 0 52 48" fill="none" xmlns="http://www.w3.org/2000/svg">
<path d="M36.7222 10.3333V8.14327C36.7222 7.78047 36.5257 7.44613 36.2088 7.26961L26.9732 2.12634C26.8244 2.04349 26.657 2 26.4867 2H4C2.89543 2 2 2.89543 2 4V44.4444C2 45.549 2.89543 46.4444 4 46.4444H35.7222C36.2745 46.4444 36.7222 45.9967 36.7222 45.4444V42.2778" stroke="#6EBE49" stroke-width="2.3" stroke-linecap="round"/>
<path d="M37.0867 29.9101C38.493 29.9101 39.633 28.7701 39.633 27.3638C39.633 25.9575 38.493 24.8175 37.0867 24.8175C35.6804 24.8175 34.5404 25.9575 34.5404 27.3638C34.5404 28.7701 35.6804 29.9101 37.0867 29.9101Z" stroke="#6EBE49" stroke-width="2" stroke-linecap="round" stroke-linejoin="round"/>
<path d="M44.0635 29.9762C43.9315 30.2754 43.8921 30.6073 43.9504 30.9292C44.0088 31.251 44.1622 31.5479 44.3909 31.7818L44.4504 31.8413C44.6349 32.0255 44.7813 32.2444 44.8811 32.4852C44.981 32.7261 45.0324 32.9843 45.0324 33.245C45.0324 33.5058 44.981 33.764 44.8811 34.0048C44.7813 34.2457 44.6349 34.4645 44.4504 34.6488C44.2662 34.8333 44.0473 34.9796 43.8065 35.0795C43.5656 35.1793 43.3074 35.2307 43.0467 35.2307C42.7859 35.2307 42.5277 35.1793 42.2869 35.0795C42.046 34.9796 41.8272 34.8333 41.6429 34.6488L41.5834 34.5893C41.3496 34.3606 41.0526 34.2072 40.7308 34.1488C40.409 34.0905 40.077 34.1299 39.7778 34.2619C39.4844 34.3877 39.2342 34.5965 39.0579 34.8626C38.8816 35.1288 38.787 35.4407 38.7858 35.7599V35.9286C38.7858 36.4548 38.5767 36.9595 38.2046 37.3316C37.8325 37.7037 37.3279 37.9127 36.8016 37.9127C36.2754 37.9127 35.7707 37.7037 35.3986 37.3316C35.0265 36.9595 34.8175 36.4548 34.8175 35.9286V35.8393C34.8098 35.5109 34.7035 35.1925 34.5125 34.9253C34.3214 34.6581 34.0543 34.4547 33.7461 34.3413C33.4469 34.2092 33.1149 34.1698 32.7931 34.2282C32.4713 34.2865 32.1743 34.4399 31.9405 34.6687L31.881 34.7282C31.6967 34.9127 31.4779 35.059 31.237 35.1589C30.9962 35.2587 30.738 35.3101 30.4772 35.3101C30.2165 35.3101 29.9583 35.2587 29.7174 35.1589C29.4766 35.059 29.2577 34.9127 29.0735 34.7282C28.889 34.5439 28.7426 34.3251 28.6428 34.0842C28.5429 33.8433 28.4915 33.5852 28.4915 33.3244C28.4915 33.0637 28.5429 32.8055 28.6428 32.5646C28.7426 32.3237 28.889 32.1049 29.0735 31.9206L29.133 31.8611C29.3617 31.6273 29.5151 31.3303 29.5735 31.0085C29.6318 30.6867 29.5924 30.3548 29.4604 30.0556C29.3346 29.7621 29.1258 29.5119 28.8596 29.3356C28.5935 29.1594 28.2816 29.0648 27.9623 29.0635H27.7937C27.2675 29.0635 26.7628 28.8545 26.3907 28.4824C26.0186 28.1103 25.8096 27.6056 25.8096 27.0794C25.8096 26.5531 26.0186 26.0485 26.3907 25.6764C26.7628 25.3043 27.2675 25.0952 27.7937 25.0952H27.883C28.2113 25.0876 28.5298 24.9813 28.797 24.7902C29.0641 24.5991 29.2676 24.3321 29.381 24.0238C29.5131 23.7246 29.5524 23.3927 29.4941 23.0709C29.4357 22.749 29.2823 22.4521 29.0536 22.2183L28.9941 22.1587C28.8096 21.9745 28.6633 21.7556 28.5634 21.5148C28.4636 21.2739 28.4122 21.0157 28.4122 20.755C28.4122 20.4942 28.4636 20.236 28.5634 19.9952C28.6633 19.7543 28.8096 19.5355 28.9941 19.3512C29.1784 19.1667 29.3972 19.0204 29.6381 18.9205C29.8789 18.8207 30.1371 18.7693 30.3979 18.7693C30.6586 18.7693 30.9168 18.8207 31.1577 18.9205C31.3985 19.0204 31.6174 19.1667 31.8016 19.3512L31.8612 19.4107C32.095 19.6394 32.3919 19.7929 32.7137 19.8512C33.0356 19.9096 33.3675 19.8702 33.6667 19.7381H33.7461C34.0395 19.6123 34.2897 19.4035 34.466 19.1374C34.6423 18.8712 34.7369 18.5593 34.7381 18.2401V18.0714C34.7381 17.5452 34.9472 17.0405 35.3193 16.6684C35.6914 16.2964 36.196 16.0873 36.7223 16.0873C37.2485 16.0873 37.7532 16.2964 38.1253 16.6684C38.4974 17.0405 38.7064 17.5452 38.7064 18.0714V18.1607C38.7077 18.48 38.8023 18.7918 38.9785 19.058C39.1548 19.3242 39.405 19.533 39.6985 19.6587C39.9977 19.7908 40.3296 19.8302 40.6514 19.7718C40.9732 19.7135 41.2702 19.5601 41.504 19.3314L41.5635 19.2718C41.7478 19.0874 41.9666 18.941 42.2075 18.8412C42.4484 18.7413 42.7066 18.6899 42.9673 18.6899C43.228 18.6899 43.4862 18.7413 43.7271 18.8412C43.968 18.941 44.1868 19.0874 44.3711 19.2718C44.5556 19.4561 44.7019 19.6749 44.8017 19.9158C44.9016 20.1567 44.953 20.4149 44.953 20.6756C44.953 20.9363 44.9016 21.1945 44.8017 21.4354C44.7019 21.6763 44.5556 21.8951 44.3711 22.0794L44.3116 22.1389C44.0828 22.3727 43.9294 22.6697 43.8711 22.9915C43.8127 23.3133 43.8521 23.6452 43.9842 23.9445V24.0238C44.1099 24.3172 44.3187 24.5675 44.5849 24.7438C44.8511 24.92 45.163 25.0146 45.4822 25.0159H45.6508C46.1771 25.0159 46.6817 25.2249 47.0538 25.597C47.4259 25.9691 47.635 26.4738 47.635 27C47.635 27.5262 47.4259 28.0309 47.0538 28.403C46.6817 28.7751 46.1771 28.9841 45.6508 28.9841H45.5616C45.2423 28.9854 44.9304 29.08 44.6643 29.2563C44.3981 29.4325 44.1893 29.6828 44.0635 29.9762V29.9762Z" stroke="#6EBE49" stroke-width="2.3" stroke-linecap="round" stroke-linejoin="round"/>
<line x1="8.87183" y1="13.0409" x2="23.7882" y2="13.0409" stroke="#6EBE49" stroke-width="3" stroke-linecap="round"/>
<path d="M9.03833 20.9318H20.8436" stroke="#6EBE49" stroke-width="3" stroke-linecap="round"/>
<path d="M9.03772 29.0009H20.843" stroke="#6EBE49" stroke-width="3" stroke-linecap="round"/>
<line x1="8.87183" y1="37.2341" x2="23.7882" y2="37.2341" stroke="#6EBE49" stroke-width="3" stroke-linecap="round"/>
</svg>
