<svg width="44" height="54" viewBox="0 0 44 54" fill="none" xmlns="http://www.w3.org/2000/svg">
<path d="M26.8678 26.7675C29.0571 28.1848 30.4999 30.6085 30.4999 33.3604C30.4999 37.7298 26.8622 41.2719 22.3749 41.2719C17.8876 41.2719 14.2499 37.7298 14.2499 33.3604C14.2499 30.6085 15.6928 28.1848 17.8821 26.7675M13.5741 18.3566C13.0962 18.3566 9.45803 18.8913 9.01658 19.0645C8.57513 19.2376 8.17408 19.4914 7.83636 19.8113C7.49827 20.1309 7.23005 20.5104 7.04706 20.9281C6.86406 21.3458 6.76987 21.7935 6.76987 22.2457C6.76987 22.6979 6.86406 23.1456 7.04706 23.5633C7.23005 23.981 7.49827 24.3605 7.83636 24.68L7.94545 24.7833C8.36461 25.1887 8.64579 25.7037 8.75274 26.2618C8.85968 26.8199 8.78748 27.3955 8.54545 27.9144C8.33767 28.449 7.96472 28.9121 7.47509 29.2434C6.98546 29.5748 6.40181 29.7591 5.8 29.7724H5.63636C4.67194 29.7724 3.74702 30.1349 3.06507 30.7802C2.38312 31.4255 2 32.3007 2 33.2132C2 34.1258 2.38312 35.001 3.06507 35.6462C3.74702 36.2915 4.67194 36.654 5.63636 36.654H5.94546C6.53052 36.6562 7.10214 36.8203 7.58994 37.126C8.07774 37.4316 8.46043 37.8656 8.69091 38.3744C8.93294 38.8933 9.00513 39.4689 8.89819 40.027C8.79125 40.5851 8.51007 41.1001 8.09091 41.5056L7.98182 41.6088C7.64372 41.9283 7.37551 42.3078 7.19251 42.7255C7.00951 43.1432 6.91532 43.591 6.91532 44.0432C6.91532 44.4953 7.00951 44.9431 7.19251 45.3608C7.37551 45.7785 7.64372 46.158 7.98182 46.4775C8.31954 46.7974 8.72059 47.0512 9.16204 47.2244C9.60348 47.3975 10.0767 47.4867 10.5545 47.4867C11.0324 47.4867 11.5056 47.3975 11.9471 47.2244C12.3885 47.0512 12.7896 46.7974 13.1273 46.4775L13.2364 46.3743C13.6649 45.9777 14.2091 45.7116 14.7989 45.6104C15.3887 45.5092 15.9971 45.5775 16.5455 45.8066C17.1104 46.0032 17.5998 46.3561 17.95 46.8194C18.3002 47.2827 18.495 47.8349 18.5091 48.4044V48.5592C18.5091 49.4718 18.8922 50.3469 19.5742 50.9922C20.2561 51.6375 21.181 52 22.1455 52C23.1099 52 24.0348 51.6375 24.7168 50.9922C25.3987 50.3469 25.7818 49.4718 25.7818 48.5592V48.2667C25.7842 47.7131 25.9575 47.1723 26.2806 46.7107C26.6036 46.2491 27.0622 45.887 27.6 45.6689C28.1484 45.4399 28.7567 45.3716 29.3465 45.4728C29.9363 45.574 30.4806 45.84 30.9091 46.2367L31.0182 46.3399C31.3559 46.6598 31.757 46.9136 32.1984 47.0867C32.6398 47.2599 33.113 47.349 33.5909 47.349C34.0688 47.349 34.542 47.2599 34.9834 47.0867C35.4249 46.9136 35.8259 46.6598 36.1636 46.3399C36.5017 46.0203 36.7699 45.6408 36.9529 45.2231C37.1359 44.8054 37.2301 44.3577 37.2301 43.9055C37.2301 43.4533 37.1359 43.0056 36.9529 42.5879C36.7699 42.1702 36.5017 41.7907 36.1636 41.4711L36.0545 41.3679C35.6354 40.9625 35.3542 40.4475 35.2473 39.8894C35.1403 39.3313 35.2125 38.7557 35.4546 38.2368C35.685 37.728 36.0677 37.294 36.5555 36.9883C37.0433 36.6826 37.6149 36.5186 38.2 36.5164H38.3636C39.3281 36.5164 40.253 36.1539 40.9349 35.5086C41.6169 34.8633 42 33.9882 42 33.0756C42 32.163 41.6169 31.2879 40.9349 30.6426C40.253 29.9973 39.3281 29.6348 38.3636 29.6348H38.0545C37.4695 29.6326 36.8979 29.4686 36.4101 29.1629C35.9223 28.8572 35.5396 28.4232 35.3091 27.9144V27.7768C35.0671 27.2579 34.9949 26.6823 35.1018 26.1242C35.2088 25.5661 35.4899 25.0511 35.9091 24.6456L36.0182 24.5424C36.3563 24.2229 36.6245 23.8434 36.8075 23.4257C36.9905 23.008 37.0847 22.5602 37.0847 22.108C37.0847 21.6559 36.9905 21.2081 36.8075 20.7904C36.6245 20.3727 36.3563 19.9932 36.0182 19.6737C35.6805 19.3538 35.2794 19.1 34.838 18.9268C34.3965 18.7537 32.2001 18.3566 31.7222 18.3566M26.0877 40.2606L25.7501 20.0147C27.632 19.3579 29.2425 18.1586 30.367 16.5768C31.4914 14.995 32.0764 13.1058 32.044 11.1608C32.0115 9.21587 31.3632 7.3076 30.1855 5.69033C29.0077 4.07305 27.3564 2.82359 25.4516 2.10844L25.5933 10.6105C25.5959 11.0278 25.4282 11.4243 25.126 11.7147C24.8239 12.0051 24.4115 12.1664 23.9774 12.1638L20.2235 12.106C19.7893 12.0951 19.3713 11.9211 19.0593 11.6212C18.7473 11.3213 18.5662 10.9195 18.5549 10.5021L18.4132 2C16.5313 2.65681 14.9208 3.85602 13.7963 5.43782C12.6719 7.01963 12.0869 8.9089 12.1193 10.8539C12.1518 12.7988 12.8001 14.7071 13.9778 16.3243C15.1556 17.9416 16.8069 19.1911 18.7117 19.9062L19.0493 40.1522" stroke="#6EBE49" stroke-width="3" stroke-linecap="round" stroke-linejoin="round"/>
</svg>
