<svg width="45" height="49" viewBox="0 0 45 49" fill="none" xmlns="http://www.w3.org/2000/svg">
<path d="M3.38114 21.9498H13.0642C13.4904 21.9498 13.8928 21.7312 14.1544 21.3574L17.0174 17.2675C17.6889 16.3082 19.0498 16.5556 19.4112 17.7027L22.0507 26.0823C22.488 27.4705 24.2624 27.4462 24.6688 26.0465L28.6243 12.4218C29.0653 10.9029 31.0407 11.0482 31.2977 12.6184L32.8695 22.2244C32.9889 22.9541 33.5609 23.4845 34.2284 23.4845H42.0532M7.52457 38.0298H37.9097C40.9609 38.0298 43.4343 35.2816 43.4343 31.8914V8.13841C43.4343 4.74826 40.9609 2 37.9097 2H7.52457C4.47344 2 2 4.74826 2 8.13841V31.8914C2 35.2816 4.47344 38.0298 7.52457 38.0298ZM17.9253 38.5129L12.6445 44.3804C11.7745 45.3471 12.3908 47 13.6212 47H31.8131C33.0435 47 33.6598 45.347 32.7897 44.3803L27.5088 38.5127C27.2498 38.2249 26.8985 38.0632 26.5322 38.0632H18.9021C18.5358 38.0632 18.1843 38.2251 17.9253 38.5129Z" stroke="#6EBE49" stroke-width="3"/>
</svg>
