<svg width="50" height="50" viewBox="0 0 50 50" fill="none" xmlns="http://www.w3.org/2000/svg">
<path d="M25.3677 27.9107C26.7732 27.9107 27.9126 26.7713 27.9126 25.3658C27.9126 23.9603 26.7732 22.821 25.3677 22.821C23.9623 22.821 22.8229 23.9603 22.8229 25.3658C22.8229 26.7713 23.9623 27.9107 25.3677 27.9107Z" stroke="#6EBE49" stroke-width="2" stroke-linecap="round" stroke-linejoin="round"/>
<path d="M32.3406 27.9768C32.2086 28.2759 32.1692 28.6076 32.2275 28.9293C32.2858 29.2509 32.4392 29.5477 32.6678 29.7814L32.7272 29.8409C32.9116 30.025 33.0579 30.2437 33.1577 30.4845C33.2575 30.7252 33.3088 30.9832 33.3088 31.2438C33.3088 31.5044 33.2575 31.7625 33.1577 32.0032C33.0579 32.244 32.9116 32.4627 32.7272 32.6468C32.5431 32.8312 32.3244 32.9775 32.0836 33.0773C31.8429 33.1771 31.5849 33.2284 31.3243 33.2284C31.0637 33.2284 30.8056 33.1771 30.5649 33.0773C30.3242 32.9775 30.1054 32.8312 29.9213 32.6468L29.8618 32.5873C29.6281 32.3588 29.3313 32.2054 29.0097 32.1471C28.688 32.0888 28.3563 32.1282 28.0572 32.2601C27.764 32.3858 27.5139 32.5945 27.3377 32.8605C27.1615 33.1265 27.067 33.4383 27.0657 33.7573V33.9259C27.0657 34.4518 26.8568 34.9562 26.4849 35.3281C26.113 35.7 25.6086 35.9089 25.0827 35.9089C24.5568 35.9089 24.0524 35.7 23.6805 35.3281C23.3086 34.9562 23.0997 34.4518 23.0997 33.9259V33.8366C23.092 33.5085 22.9858 33.1902 22.7948 32.9232C22.6038 32.6562 22.337 32.4528 22.0289 32.3395C21.7298 32.2075 21.3981 32.1681 21.0764 32.2264C20.7548 32.2847 20.458 32.4381 20.2243 32.6667L20.1648 32.7262C19.9807 32.9105 19.762 33.0568 19.5212 33.1566C19.2805 33.2564 19.0224 33.3077 18.7618 33.3077C18.5013 33.3077 18.2432 33.2564 18.0025 33.1566C17.7617 33.0568 17.543 32.9105 17.3589 32.7262C17.1745 32.542 17.0282 32.3233 16.9284 32.0825C16.8286 31.8418 16.7773 31.5838 16.7773 31.3232C16.7773 31.0626 16.8286 30.8045 16.9284 30.5638C17.0282 30.3231 17.1745 30.1044 17.3589 29.9202L17.4184 29.8607C17.6469 29.627 17.8003 29.3302 17.8586 29.0086C17.9169 28.6869 17.8775 28.3552 17.7456 28.0561C17.6199 27.7629 17.4112 27.5128 17.1452 27.3366C16.8791 27.1604 16.5674 27.0659 16.2484 27.0646H16.0798C15.5539 27.0646 15.0495 26.8557 14.6776 26.4838C14.3057 26.1119 14.0968 25.6075 14.0968 25.0816C14.0968 24.5557 14.3057 24.0513 14.6776 23.6794C15.0495 23.3075 15.5539 23.0986 16.0798 23.0986H16.1691C16.4972 23.0909 16.8155 22.9847 17.0825 22.7937C17.3495 22.6028 17.5529 22.3359 17.6662 22.0278C17.7982 21.7287 17.8376 21.397 17.7793 21.0753C17.7209 20.7537 17.5676 20.4569 17.339 20.2232L17.2795 20.1637C17.0952 19.9796 16.9489 19.7609 16.8491 19.5201C16.7493 19.2794 16.698 19.0214 16.698 18.7608C16.698 18.5002 16.7493 18.2421 16.8491 18.0014C16.9489 17.7606 17.0952 17.5419 17.2795 17.3578C17.4637 17.1734 17.6824 17.0271 17.9232 16.9273C18.1639 16.8275 18.4219 16.7762 18.6825 16.7762C18.9431 16.7762 19.2012 16.8275 19.4419 16.9273C19.6826 17.0271 19.9013 17.1734 20.0855 17.3578L20.145 17.4173C20.3787 17.6458 20.6755 17.7992 20.9971 17.8575C21.3188 17.9158 21.6505 17.8764 21.9495 17.7445H22.0289C22.3221 17.6188 22.5722 17.4101 22.7484 17.1441C22.9246 16.8781 23.0191 16.5663 23.0204 16.2473V16.0787C23.0204 15.5528 23.2293 15.0484 23.6012 14.6765C23.9731 14.3046 24.4775 14.0957 25.0034 14.0957C25.5293 14.0957 26.0337 14.3046 26.4056 14.6765C26.7775 15.0484 26.9864 15.5528 26.9864 16.0787V16.168C26.9877 16.487 27.0822 16.7987 27.2584 17.0647C27.4346 17.3308 27.6847 17.5394 27.9779 17.6651C28.277 17.7971 28.6087 17.8365 28.9304 17.7782C29.252 17.7199 29.5488 17.5665 29.7825 17.3379L29.842 17.2784C30.0261 17.0941 30.2448 16.9478 30.4856 16.848C30.7263 16.7482 30.9843 16.6969 31.2449 16.6969C31.5055 16.6969 31.7636 16.7482 32.0043 16.848C32.2451 16.9478 32.4638 17.0941 32.6479 17.2784C32.8323 17.4626 32.9786 17.6813 33.0784 17.9221C33.1782 18.1628 33.2295 18.4208 33.2295 18.6814C33.2295 18.942 33.1782 19.2001 33.0784 19.4408C32.9786 19.6815 32.8323 19.9002 32.6479 20.0844L32.5884 20.1439C32.3599 20.3776 32.2065 20.6744 32.1482 20.996C32.0899 21.3177 32.1293 21.6494 32.2612 21.9485V22.0278C32.3869 22.321 32.5956 22.5711 32.8616 22.7473C33.1276 22.9235 33.4394 23.018 33.7584 23.0193H33.927C34.4529 23.0193 34.9573 23.2282 35.3292 23.6001C35.7011 23.972 35.91 24.4764 35.91 25.0023C35.91 25.5282 35.7011 26.0326 35.3292 26.4045C34.9573 26.7764 34.4529 26.9853 33.927 26.9853H33.8377C33.5187 26.9866 33.207 27.0811 32.941 27.2573C32.6749 27.4335 32.4662 27.6836 32.3406 27.9768V27.9768Z" stroke="#6EBE49" stroke-width="2.3" stroke-linecap="round" stroke-linejoin="round"/>
<path d="M7.66858 21.7096C6.86559 25.5717 7.32509 29.5728 8.97785 33.1101C10.6306 36.6474 13.3871 39.5293 16.832 41.3214C20.2768 43.1136 24.2235 43.719 28.0773 43.0464C31.931 42.3738 35.4832 40.4597 38.1984 37.5924C40.9137 34.7251 42.645 31.0601 43.1315 27.1494C43.618 23.2388 42.8333 19.2944 40.8956 15.9106C38.958 12.5269 35.9724 9.88696 32.3887 8.38873C28.805 6.8905 24.935 6.3819 21.4817 6.97777L16.0643 8.29301L13.3555 8.95063M13.3555 8.95063C13.3555 8.95063 15.0484 6.1014 16.6124 3.48171M13.3555 8.95063L18.7073 12.1457" stroke="#6EBE49" stroke-width="2.3" stroke-linecap="round" stroke-linejoin="round"/>
</svg>
