<svg width="28" height="28" viewBox="0 0 28 28" fill="none" xmlns="http://www.w3.org/2000/svg">
<circle cx="14" cy="14" r="14" fill="#6EBE49"/>
<path d="M14.3731 15.7895C15.1563 15.7895 15.7912 15.1545 15.7912 14.3713C15.7912 13.5881 15.1563 12.9531 14.3731 12.9531C13.5899 12.9531 12.955 13.5881 12.955 14.3713C12.955 15.1545 13.5899 15.7895 14.3731 15.7895Z" stroke="white" stroke-width="1.5" stroke-linecap="round" stroke-linejoin="round"/>
<path d="M18.1636 15.9155C18.0957 16.0696 18.0754 16.2405 18.1054 16.4062C18.1355 16.5718 18.2144 16.7247 18.3322 16.8451L18.3628 16.8757C18.4578 16.9706 18.5331 17.0833 18.5845 17.2073C18.6359 17.3313 18.6624 17.4642 18.6624 17.5985C18.6624 17.7327 18.6359 17.8656 18.5845 17.9896C18.5331 18.1136 18.4578 18.2263 18.3628 18.3212C18.268 18.4161 18.1553 18.4915 18.0313 18.5429C17.9073 18.5943 17.7744 18.6207 17.6402 18.6207C17.5059 18.6207 17.373 18.5943 17.249 18.5429C17.125 18.4915 17.0124 18.4161 16.9175 18.3212L16.8869 18.2905C16.7665 18.1728 16.6136 18.0938 16.4479 18.0637C16.2823 18.0337 16.1114 18.054 15.9573 18.122C15.8063 18.1867 15.6775 18.2942 15.5867 18.4312C15.496 18.5683 15.4473 18.7288 15.4466 18.8932V18.98C15.4466 19.2509 15.339 19.5107 15.1475 19.7023C14.9559 19.8939 14.6961 20.0015 14.4252 20.0015C14.1543 20.0015 13.8945 19.8939 13.7029 19.7023C13.5114 19.5107 13.4037 19.2509 13.4037 18.98V18.934C13.3998 18.765 13.3451 18.601 13.2467 18.4635C13.1483 18.326 13.0109 18.2212 12.8522 18.1628C12.6981 18.0948 12.5273 18.0746 12.3616 18.1046C12.1959 18.1346 12.043 18.2136 11.9227 18.3314L11.892 18.362C11.7972 18.457 11.6845 18.5323 11.5605 18.5837C11.4365 18.6351 11.3036 18.6616 11.1694 18.6616C11.0351 18.6616 10.9022 18.6351 10.7782 18.5837C10.6542 18.5323 10.5415 18.457 10.4467 18.362C10.3517 18.2671 10.2764 18.1545 10.225 18.0305C10.1736 17.9065 10.1471 17.7735 10.1471 17.6393C10.1471 17.5051 10.1736 17.3721 10.225 17.2481C10.2764 17.1241 10.3517 17.0115 10.4467 16.9166L10.4773 16.886C10.5951 16.7656 10.674 16.6127 10.7041 16.447C10.7341 16.2813 10.7138 16.1105 10.6459 15.9564C10.5811 15.8053 10.4736 15.6765 10.3366 15.5858C10.1996 15.495 10.039 15.4463 9.87468 15.4457H9.78786C9.51695 15.4457 9.25715 15.338 9.06559 15.1465C8.87403 14.9549 8.76642 14.6951 8.76642 14.4242C8.76642 14.1533 8.87403 13.8934 9.06559 13.7019C9.25715 13.5103 9.51695 13.4027 9.78786 13.4027H9.83382C10.0029 13.3987 10.1668 13.344 10.3043 13.2456C10.4419 13.1473 10.5466 13.0098 10.605 12.8511C10.673 12.697 10.6933 12.5262 10.6632 12.3605C10.6332 12.1948 10.5542 12.0419 10.4365 11.9215L10.4058 11.8909C10.3109 11.796 10.2355 11.6834 10.1841 11.5594C10.1327 11.4353 10.1063 11.3024 10.1063 11.1682C10.1063 11.0339 10.1327 10.901 10.1841 10.777C10.2355 10.653 10.3109 10.5404 10.4058 10.4455C10.5007 10.3505 10.6133 10.2752 10.7373 10.2238C10.8613 10.1724 10.9943 10.1459 11.1285 10.1459C11.2627 10.1459 11.3956 10.1724 11.5196 10.2238C11.6436 10.2752 11.7563 10.3505 11.8512 10.4455L11.8818 10.4761C12.0022 10.5939 12.155 10.6729 12.3207 10.7029C12.4864 10.7329 12.6573 10.7127 12.8113 10.6447H12.8522C13.0032 10.5799 13.1321 10.4724 13.2228 10.3354C13.3135 10.1984 13.3622 10.0378 13.3629 9.87345V9.78662C13.3629 9.51571 13.4705 9.25589 13.6621 9.06432C13.8536 8.87276 14.1134 8.76514 14.3843 8.76514C14.6552 8.76514 14.915 8.87276 15.1066 9.06432C15.2981 9.25589 15.4058 9.51571 15.4058 9.78662V9.83259C15.4064 9.99694 15.4551 10.1575 15.5459 10.2945C15.6366 10.4316 15.7654 10.5391 15.9165 10.6038C16.0705 10.6718 16.2414 10.6921 16.4071 10.662C16.5728 10.632 16.7256 10.553 16.846 10.4353L16.8766 10.4046C16.9715 10.3097 17.0842 10.2343 17.2082 10.1829C17.3322 10.1315 17.4651 10.105 17.5993 10.105C17.7335 10.105 17.8665 10.1315 17.9905 10.1829C18.1145 10.2343 18.2271 10.3097 18.322 10.4046C18.4169 10.4995 18.4923 10.6122 18.5437 10.7362C18.5951 10.8602 18.6215 10.9931 18.6215 11.1273C18.6215 11.2616 18.5951 11.3945 18.5437 11.5185C18.4923 11.6425 18.4169 11.7552 18.322 11.85L18.2913 11.8807C18.1736 12.001 18.0946 12.1539 18.0646 12.3196C18.0345 12.4853 18.0548 12.6562 18.1228 12.8102V12.8511C18.1875 13.0021 18.295 13.131 18.432 13.2217C18.5691 13.3125 18.7296 13.3612 18.894 13.3618H18.9808C19.2517 13.3618 19.5115 13.4695 19.7031 13.661C19.8946 13.8526 20.0022 14.1124 20.0022 14.3833C20.0022 14.6542 19.8946 14.9141 19.7031 15.1056C19.5115 15.2972 19.2517 15.4048 18.9808 15.4048H18.9348C18.7705 15.4055 18.6099 15.4542 18.4729 15.5449C18.3359 15.6357 18.2284 15.7645 18.1636 15.9155V15.9155Z" stroke="white" stroke-width="1.6" stroke-linecap="round" stroke-linejoin="round"/>
<path d="M5.53005 12.7167C5.13353 14.6234 5.3602 16.5987 6.17592 18.345C6.99163 20.0912 8.35219 21.5139 10.0526 22.3985C11.753 23.2831 13.7011 23.5819 15.6035 23.2497C17.5058 22.9175 19.2593 21.9724 20.5997 20.5567C21.9401 19.1411 22.7949 17.3317 23.0352 15.401C23.2755 13.4703 22.8883 11.5231 21.9319 9.85263C20.9756 8.18217 19.5019 6.879 17.733 6.13948C15.964 5.39995 14.0537 5.149 12.3491 5.4433L9.67485 6.09282L8.33773 6.41757M8.33773 6.41757C8.33773 6.41757 9.17349 5.01089 9.94561 3.71752M8.33773 6.41757L10.9794 7.99475" stroke="white" stroke-width="2" stroke-linecap="round" stroke-linejoin="round"/>
</svg>
