<svg width="33" height="31" viewBox="0 0 33 31" fill="none" xmlns="http://www.w3.org/2000/svg">
<path d="M1 1H20C21.6569 1 23 2.34315 23 4V20.5052C23 22.1621 21.6569 23.5052 20 23.5052H4C2.34315 23.5052 1 22.1621 1 20.5052V1Z" fill="white" stroke="#BDBDBD" stroke-width="2"/>
<circle cx="24" cy="21.0105" r="8.25" fill="white" stroke="#BDBDBD" stroke-width="1.5"/>
<path d="M26.1246 21.5279L27.1603 21.7306C27.171 22.2314 27.5915 22.6289 28.0995 22.6183C28.6074 22.6077 29.0105 22.1931 28.9998 21.6923C28.9891 21.1914 28.5686 20.794 28.0606 20.8045C27.7039 20.812 27.3836 21.0221 27.239 21.3438L26.1765 21.1358C26.1754 20.7525 26.0241 20.3844 25.7542 20.1084L27.1294 18.193C27.7094 18.4649 28.4032 18.2217 28.679 17.6498C28.9548 17.0779 28.7082 16.3938 28.1281 16.1219C27.5481 15.8499 26.8543 16.0931 26.5785 16.665C26.368 17.1016 26.4577 17.6215 26.803 17.9648L25.4411 19.8617C24.8147 19.4908 24.0089 19.6155 23.5278 20.1576L21.7399 18.7885C21.9746 18.3431 21.7986 17.7944 21.3469 17.563C20.8952 17.3316 20.3387 17.5051 20.104 17.9505C19.8693 18.3959 20.0452 18.9446 20.497 19.176C20.8144 19.3386 21.1986 19.3055 21.4825 19.091L23.3049 20.4865C23.0021 21.0965 23.1565 21.8312 23.6801 22.2724L22.5725 23.8164C21.9862 23.4656 21.2224 23.6498 20.8666 24.228C20.5107 24.8061 20.6976 25.5592 21.284 25.9101C21.8703 26.2609 22.6341 26.0767 22.9899 25.4985C23.2665 25.0492 23.2214 24.476 22.8779 24.0741L24.0153 22.4881C24.4044 22.6705 24.854 22.6805 25.2511 22.5154L26.6007 24.4811C26.2037 24.8949 26.2222 25.5476 26.6418 25.939C27.0615 26.3304 27.7235 26.3122 28.1204 25.8984C28.5173 25.4846 28.4989 24.8319 28.0792 24.4406C27.7698 24.152 27.3138 24.0772 26.9263 24.2516L25.5962 22.3142C25.8537 22.1152 26.0392 21.8394 26.1246 21.5279Z" fill="#BDBDBD" stroke="#BDBDBD" stroke-width="0.7"/>
<path d="M14.9998 7.0105L7.92869 14.0816" stroke="#BDBDBD" stroke-width="2" stroke-linecap="round"/>
<path d="M14.9998 14.0105L7.92869 6.93943" stroke="#BDBDBD" stroke-width="2" stroke-linecap="round"/>
</svg>
