<svg width="60" height="60" viewBox="0 0 60 60" fill="none" xmlns="http://www.w3.org/2000/svg">
<circle cx="30" cy="30" r="25" fill="#F7A528" fill-opacity="0.2" stroke="#FFF6EC" stroke-width="10"/>
<path d="M30 42C36.6274 42 42 36.6274 42 30C42 23.3726 36.6274 18 30 18C23.3726 18 18 23.3726 18 30C18 36.6274 23.3726 42 30 42Z" fill="#F7A528" stroke="#F7A528" stroke-width="2" stroke-linecap="round" stroke-linejoin="round"/>
<path d="M32.437 30.0492L33.9904 30.3485C34.0065 31.0882 34.6372 31.6752 35.3992 31.6596C36.1611 31.644 36.7658 31.0316 36.7497 30.2919C36.7336 29.5522 36.1028 28.9652 35.3409 28.9808C34.8058 28.9918 34.3255 29.3022 34.1085 29.7772L32.5148 29.4701C32.5132 28.9039 32.2862 28.3603 31.8813 27.9527L33.9441 25.1237C34.8141 25.5254 35.8548 25.1662 36.2685 24.3215C36.6822 23.4768 36.3123 22.4665 35.4422 22.0649C34.5721 21.6632 33.5315 22.0224 33.1178 22.8671C32.802 23.5119 32.9366 24.2797 33.4545 24.7867L31.4116 27.5883C30.4721 27.0406 29.2634 27.2247 28.5418 28.0254L25.8599 26.0033C26.2119 25.3455 25.948 24.5351 25.2704 24.1933C24.5927 23.8516 23.758 24.1078 23.406 24.7656C23.054 25.4235 23.3179 26.2339 23.9955 26.5756C24.4716 26.8158 25.0479 26.7668 25.4738 26.4501L28.2074 28.5111C27.7532 29.412 27.9847 30.4971 28.7701 31.1488L27.1088 33.4291C26.2293 32.911 25.0836 33.1831 24.5498 34.037C24.0161 34.8908 24.2964 36.0031 25.1759 36.5213C26.0555 37.0395 27.2012 36.7674 27.7349 35.9135C28.1497 35.2499 28.0821 34.4033 27.5668 33.8098L29.2729 31.4673C29.8566 31.7367 30.5311 31.7514 31.1266 31.5076L33.151 34.4109C32.5556 35.022 32.5833 35.986 33.2127 36.564C33.8422 37.142 34.8352 37.1152 35.4306 36.5041C36.026 35.8929 35.9983 34.9289 35.3688 34.3509C34.9047 33.9247 34.2206 33.8143 33.6394 34.0719L31.6443 31.2105C32.0306 30.9166 32.3087 30.5092 32.437 30.0492Z" fill="white" stroke="white" stroke-width="0.7"/>
</svg>
