<svg width="64" height="64" viewBox="0 0 64 64" fill="none" xmlns="http://www.w3.org/2000/svg">
<circle cx="32" cy="32" r="27" fill="#DC1F2E" fill-opacity="0.1" stroke="#FDF4F5" stroke-width="10"/>
<path d="M32.0008 44.9998C39.1805 44.9998 45.0008 39.1795 45.0008 31.9998C45.0008 24.8201 39.1805 18.9998 32.0008 18.9998C24.8211 18.9998 19.0008 24.8201 19.0008 31.9998C19.0008 39.1795 24.8211 44.9998 32.0008 44.9998Z" fill="#DC1F2E" stroke="#DC1F2E" stroke-width="2" stroke-linecap="round" stroke-linejoin="round"/>
<path d="M34.4377 32.0483L35.9911 32.3477C36.0072 33.0874 36.6379 33.6744 37.3999 33.6588C38.1618 33.6431 38.7665 33.0308 38.7504 32.2911C38.7343 31.5513 38.1035 30.9643 37.3416 30.98C36.8065 30.9909 36.3262 31.3013 36.1092 31.7763L34.5155 31.4693C34.5139 30.9031 34.2869 30.3594 33.882 29.9519L35.9448 27.1229C36.8149 27.5245 37.8555 27.1653 38.2692 26.3207C38.6829 25.476 38.313 24.4657 37.4429 24.064C36.5728 23.6624 35.5322 24.0216 35.1185 24.8662C34.8027 25.511 34.9373 26.2788 35.4552 26.7858L33.4123 29.5875C32.4728 29.0397 31.2641 29.2238 30.5425 30.0245L27.8606 28.0025C28.2126 27.3446 27.9487 26.5343 27.2711 26.1925C26.5934 25.8507 25.7587 26.1069 25.4067 26.7648C25.0547 27.4226 25.3186 28.233 25.9962 28.5748C26.4723 28.8149 27.0486 28.766 27.4745 28.4492L30.2081 30.5102C29.7539 31.4111 29.9854 32.4963 30.7708 33.1479L29.1095 35.4283C28.23 34.9101 27.0843 35.1822 26.5505 36.0361C26.0168 36.89 26.2971 38.0023 27.1766 38.5205C28.0562 39.0386 29.2019 38.7665 29.7356 37.9126C30.1504 37.249 30.0828 36.4024 29.5675 35.8089L31.2736 33.4664C31.8573 33.7358 32.5318 33.7505 33.1273 33.5068L35.1517 36.41C34.5563 37.0211 34.584 37.9851 35.2135 38.5631C35.8429 39.1412 36.8359 39.1143 37.4313 38.5032C38.0267 37.8921 37.999 36.9281 37.3695 36.3501C36.9054 35.9239 36.2213 35.8135 35.6401 36.071L33.645 33.2096C34.0313 32.9157 34.3094 32.5083 34.4377 32.0483Z" fill="white" stroke="white" stroke-width="0.7"/>
</svg>
