<svg width="64" height="64" viewBox="0 0 64 64" fill="none" xmlns="http://www.w3.org/2000/svg">
<circle cx="32" cy="32" r="27" fill="#EEEEEE" stroke="#F7F7F7" stroke-width="10"/>
<circle cx="32" cy="32.0003" r="13" fill="#B7B7B7" stroke="#B7B7B7" stroke-width="2" stroke-linecap="round" stroke-linejoin="round"/>
<path d="M36.0527 26.5557L37.5262 25.0002L38.9997 26.5557" stroke="white" stroke-width="1.5" stroke-linecap="round"/>
<path d="M28.6705 36.6674C28.6705 37.5807 27.9789 38.2507 27.2102 38.2507C26.4415 38.2507 25.75 37.5807 25.75 36.6674C25.75 35.7542 26.4415 35.0841 27.2102 35.0841C27.9789 35.0841 28.6705 35.7542 28.6705 36.6674Z" stroke="white" stroke-width="1.5"/>
<mask id="path-5-inside-1_11_259" fill="white">
<rect x="29.4199" y="28.1107" width="5.89398" height="6.22214" rx="1"/>
</mask>
<rect x="29.4199" y="28.1107" width="5.89398" height="6.22214" rx="1" stroke="white" stroke-width="3" mask="url(#path-5-inside-1_11_259)"/>
<path d="M27.2092 35.1112L27.2092 28.1113C27.2092 27.2861 27.4809 26.4948 27.9645 25.9114C28.448 25.328 29.1039 25.0002 29.7878 25.0002C30.4717 25.0002 31.1276 25.328 31.6112 25.9114C32.0948 26.4948 32.3664 27.2861 32.3664 28.1113V28.4569" stroke="white" stroke-width="1.5"/>
<path d="M37.5254 25.7782L37.5254 34.3336C37.5254 35.1587 37.2537 35.95 36.7701 36.5335C36.2865 37.1169 35.6307 37.4447 34.9468 37.4447C34.2629 37.4447 33.607 37.1169 33.1234 36.5335C32.6398 35.95 32.3682 35.1587 32.3682 34.3336L32.3682 33.9879" stroke="white" stroke-width="1.5"/>
</svg>
