<svg width="26" height="27" viewBox="0 0 26 27" fill="none" xmlns="http://www.w3.org/2000/svg">
<path d="M19.4125 5.0185L21.9564 2.33331L24.5002 5.0185" stroke="#F2994A" stroke-width="2" stroke-linecap="round"/>
<path d="M6.96517 22.4722C6.96517 24.196 5.65424 25.5 4.14938 25.5C2.64452 25.5 1.33359 24.196 1.33359 22.4722C1.33359 20.7484 2.64452 19.4444 4.14938 19.4444C5.65424 19.4444 6.96517 20.7484 6.96517 22.4722Z" stroke="#F2994A" stroke-width="2"/>
<mask id="path-3-inside-1" fill="white">
<rect x="7.96512" y="7.70374" width="10.1754" height="10.7407" rx="1"/>
</mask>
<rect x="7.96512" y="7.70374" width="10.1754" height="10.7407" rx="1" stroke="#F2994A" stroke-width="4" mask="url(#path-3-inside-1)"/>
<path d="M4.14935 19.787L4.14935 7.70368C4.14935 6.27937 4.61838 4.9134 5.45324 3.90626C6.28811 2.89912 7.42043 2.33331 8.60111 2.33331C9.78179 2.33331 10.9141 2.89912 11.749 3.90626C12.5838 4.9134 13.0529 6.27937 13.0529 7.70368V8.30039" stroke="#F2994A" stroke-width="2"/>
<path d="M21.9564 3.67593L21.9564 18.4444C21.9564 19.8688 21.4874 21.2347 20.6525 22.2419C19.8177 23.249 18.6853 23.8148 17.5047 23.8148C16.324 23.8148 15.1917 23.249 14.3568 22.2419C13.5219 21.2347 13.0529 19.8688 13.0529 18.4444L13.0529 17.8477" stroke="#F2994A" stroke-width="2"/>
</svg>
