<svg width="22" height="21" viewBox="0 0 22 21" fill="none" xmlns="http://www.w3.org/2000/svg">
    <path fill-rule="evenodd" clip-rule="evenodd" d="M17.6399 19.131H14.3399V13.37C14.3325 13.0352 14.1962 12.7162 13.9595 12.4795C13.7227 12.2427 13.4037 12.1064 13.0689 12.099H9.50591C9.17114 12.1064 8.85213 12.2427 8.61536 12.4795C8.37858 12.7162 8.2423 13.0352 8.23491 13.37V19.131H4.93091V12.353L11.2859 5.99901L17.6399 12.353V19.131ZM18.8259 11.591L11.7909 4.55801C11.6433 4.45247 11.4674 4.3936 11.2859 4.38901C11.106 4.40637 10.9324 4.46414 10.7779 4.55801L3.65991 11.675C3.57491 11.844 3.49091 11.929 3.49091 12.099V19.299C3.48011 19.6247 3.59889 19.9414 3.82121 20.1796C4.04353 20.4179 4.35125 20.5583 4.67691 20.57H9.50591V13.539H12.8059V20.571H17.6349C17.9697 20.5636 18.2887 20.4273 18.5255 20.1906C18.7622 19.9538 18.8985 19.6348 18.9059 19.3V12.1C18.9346 12.0147 18.9424 11.9237 18.9284 11.8347C18.9145 11.7458 18.8793 11.6615 18.8259 11.589V11.591Z" fill="#6EBE49" />
    <path fill-rule="evenodd" clip-rule="evenodd" d="M21.4529 11.929C21.4027 12.0167 21.3277 12.0877 21.2373 12.1329C21.1469 12.1781 21.0452 12.1955 20.9449 12.183C20.7877 12.18 20.637 12.12 20.5209 12.014L18.9959 10.4L12.9839 4.38899L11.2839 2.69399L9.59086 4.38899C8.40486 5.40599 6.54086 7.26999 3.49086 10.4C2.98286 10.908 2.47386 11.417 1.96586 12.01C1.79686 12.01 1.62686 12.095 1.45786 12.095C1.27796 12.0776 1.10431 12.0199 0.949863 11.926C0.827716 11.8016 0.759277 11.6343 0.759277 11.46C0.759277 11.2857 0.827716 11.1183 0.949863 10.994L3.49086 8.45599L7.55786 4.38899L10.6929 1.25399C10.7425 1.16578 10.8174 1.09445 10.908 1.04918C10.9985 1.00392 11.1005 0.986785 11.2009 0.999995C11.2928 0.988563 11.3861 0.997804 11.474 1.02704C11.5619 1.05628 11.6421 1.10478 11.7089 1.16899L14.8439 4.29999L18.9109 8.45099L21.3679 11C21.4427 11.0496 21.5055 11.1154 21.5515 11.1926C21.5976 11.2697 21.6257 11.3562 21.6339 11.4456C21.642 11.5351 21.63 11.6252 21.5987 11.7094C21.5674 11.7936 21.5175 11.8696 21.4529 11.932" fill="#6EBE49" />
</svg>