<svg width="18" height="18" viewBox="0 0 18 18" fill="none" xmlns="http://www.w3.org/2000/svg">
    <path fill-rule="evenodd" clip-rule="evenodd" d="M16.5094 16.4028C16.3004 16.6233 16.0134 16.7537 15.7095 16.7663C15.3871 16.7415 15.0811 16.6141 14.8367 16.4028L6.25589 7.76795L5.96528 7.98518C5.5703 8.13358 5.15106 8.20725 4.72903 8.20242C3.82601 8.21053 2.95556 7.86627 2.30337 7.24308C1.65118 6.61989 1.26888 5.76711 1.23802 4.86665L2.83776 6.45909C3.09667 6.63346 3.39851 6.73374 3.71051 6.74904C3.93107 6.76076 4.15206 6.7362 4.36462 6.67633C4.8975 6.44082 5.38951 6.12237 5.82225 5.73286C6.23211 5.32982 6.53245 4.82935 6.695 4.27857C6.8106 4.0318 6.85108 3.75661 6.8114 3.48711C6.77172 3.21761 6.65364 2.96565 6.4718 2.76248L4.87388 1.1664C5.74783 1.21021 6.57547 1.57168 7.20061 2.18258C7.52584 2.50584 7.78338 2.89042 7.95824 3.31392C8.13309 3.73742 8.22178 4.19139 8.21913 4.64941C8.21762 5.06994 8.14398 5.4871 8.00139 5.88283L7.85563 6.2464L16.4365 14.8076C16.6575 15.0161 16.7882 15.3024 16.8009 15.6056C16.8081 15.7512 16.7861 15.8967 16.736 16.0337C16.6859 16.1706 16.6089 16.2961 16.5094 16.4028ZM14.3976 1.52906C14.6897 1.30281 15.0465 1.17545 15.4161 1.16549C15.6064 1.16712 15.7943 1.20645 15.9692 1.2812C16.144 1.35594 16.3023 1.4646 16.4347 1.60086C16.6715 1.85797 16.8017 2.19515 16.7991 2.54433C16.7974 2.73411 16.758 2.92167 16.6831 3.09612C16.6082 3.27056 16.4993 3.42842 16.3627 3.56052L11.6373 8.34966L11.0551 7.76886L15.0545 3.70594C15.118 3.6515 15.17 3.58495 15.2074 3.51018C15.2448 3.43542 15.2668 3.35395 15.2722 3.27057C15.2668 3.18719 15.2448 3.10572 15.2074 3.03095C15.17 2.95619 15.118 2.88963 15.0545 2.83519C14.9218 2.75463 14.7727 2.70493 14.6181 2.68976C14.4829 2.6924 14.3534 2.74411 14.2537 2.83519L10.2543 6.8981L9.6722 6.3173L14.3976 1.52906ZM3.05641 15.7502L1.59878 16.4028L2.25289 14.9485L3.27414 14.7303L3.05641 15.7502ZM12.51 9.1477L17.2364 4.35946C17.5999 4.00396 17.8482 3.54788 17.9493 3.05013C18.0504 2.55237 17.9996 2.03581 17.8034 1.56717C17.6072 1.09853 17.2747 0.699334 16.8489 0.421147C16.423 0.14296 15.9233 -0.00143882 15.4143 0.00660196C14.7402 0.0278302 14.0951 0.285273 13.5923 0.733745L9.38705 4.93936V4.64941C9.38319 4.04095 9.25877 3.43925 9.02097 2.87893C8.78316 2.31862 8.43666 1.81075 8.00139 1.38454C7.5739 0.950927 7.06473 0.605888 6.50315 0.369258C5.94156 0.132628 5.33863 0.0090719 4.72903 0.00569303C4.31161 -0.0177759 3.89328 0.031435 3.49278 0.151122C3.43655 0.152269 3.38128 0.165919 3.33101 0.191077C3.28073 0.216236 3.23672 0.252269 3.20217 0.29655C3.09657 0.417126 3.03838 0.571811 3.03838 0.731928C3.03838 0.892044 3.09657 1.04673 3.20217 1.1673L5.67375 3.56052C5.66738 3.68461 5.64283 3.8071 5.60087 3.92409C5.43349 4.27069 5.21278 4.58903 4.94676 4.86756C4.68726 5.15613 4.36331 5.3797 4.00113 5.52017C3.85537 5.52017 3.7834 5.59288 3.71051 5.59288H3.63763C2.40139 4.35946 1.8156 3.70685 1.52863 3.416L1.23802 3.12605C1.18075 3.07088 1.11184 3.02919 1.03634 3.00403C0.960835 2.97886 0.880646 2.97087 0.801643 2.98062C0.647084 2.99578 0.497933 3.04549 0.365267 3.12605C0.292386 3.19876 0.292386 3.27148 0.219505 3.416C0.13089 3.82144 0.0820718 4.23453 0.0737422 4.64941C0.0602221 5.27093 0.176152 5.88847 0.414197 6.46298C0.652241 7.03748 1.00722 7.55644 1.45666 7.987C1.884 8.42094 2.39311 8.76632 2.9547 9.00326C3.51629 9.24021 4.1193 9.36405 4.72903 9.36767C5.14657 9.39547 5.56567 9.34617 5.96528 9.22224L6.98379 10.1657L3.71051 13.4279L1.6744 13.8632C1.52863 13.8632 1.45666 14.0087 1.38378 14.0805C1.38122 14.1182 1.36505 14.1537 1.33824 14.1805C1.31144 14.2072 1.27584 14.2233 1.23802 14.2259L0.0746532 16.9836C0.0152604 17.0858 -0.00971024 17.2044 0.00340714 17.3219C0.0165245 17.4393 0.0670389 17.5495 0.147534 17.6362L0.365267 17.8534C0.486386 17.9564 0.642803 18.0085 0.801643 17.9989H1.01938L3.78248 16.6927C3.85537 16.6927 3.92825 16.62 4.00022 16.5473C4.07219 16.4746 4.14598 16.4019 4.14598 16.3301L4.58236 14.2986L7.85472 11.1064L14.1088 17.3462C14.3194 17.5546 14.5691 17.7195 14.8436 17.8315C15.1181 17.9435 15.412 18.0003 15.7086 17.9989C16.0126 17.9958 16.3115 17.9214 16.5813 17.7816C16.8524 17.6559 17.0999 17.4846 17.3129 17.2754C17.5217 17.0653 17.687 16.8162 17.7992 16.5423C17.9115 16.2684 17.9685 15.9752 17.967 15.6793C17.9364 15.0887 17.7058 14.5259 17.3129 14.0832L12.51 9.1477Z" fill="#9E9E9E" />
</svg>