<svg width="28" height="28" viewBox="0 0 28 28" fill="none" xmlns="http://www.w3.org/2000/svg">
<path d="M19 20V18.6667C19 17.9594 18.6312 17.2811 17.9749 16.781C17.3185 16.281 16.4283 16 15.5 16H8.5C7.57174 16 6.6815 16.281 6.02513 16.781C5.36875 17.2811 5 17.9594 5 18.6667V20" stroke="#9E9E9E" stroke-width="2" stroke-linecap="round" stroke-linejoin="round"/>
<path d="M12 12C13.6569 12 15 10.6569 15 9C15 7.34315 13.6569 6 12 6C10.3431 6 9 7.34315 9 9C9 10.6569 10.3431 12 12 12Z" stroke="#9E9E9E" stroke-width="2" stroke-linecap="round" stroke-linejoin="round"/>
<path d="M22.0557 19.5086V18.5086C22.0557 16.5086 21.0557 15.0086 19.5557 14.5086" stroke="#9E9E9E" stroke-width="2" stroke-linecap="round" stroke-linejoin="round"/>
<path d="M17.0554 6.50861C18.0554 6.50861 19.5 7.49998 19.5557 9.00861C19.6113 10.5172 18.4872 11.5429 17.5556 12.0086" stroke="#9E9E9E" stroke-width="2" stroke-linecap="round" stroke-linejoin="round"/>
</svg>
