<svg width="28" height="28" viewBox="0 0 28 28" fill="none" xmlns="http://www.w3.org/2000/svg">
    <path d="M14 16C15.1046 16 16 15.1046 16 14C16 12.8954 15.1046 12 14 12C12.8954 12 12 12.8954 12 14C12 15.1046 12.8954 16 14 16Z" stroke="#6EBE49" stroke-width="2" stroke-linecap="round" stroke-linejoin="round" />
    <path d="M20.0545 16.4545C19.9456 16.7013 19.9131 16.9751 19.9613 17.2405C20.0094 17.5059 20.1359 17.7508 20.3245 17.9436L20.3736 17.9927C20.5258 18.1447 20.6465 18.3252 20.7288 18.5238C20.8112 18.7225 20.8536 18.9354 20.8536 19.1505C20.8536 19.3655 20.8112 19.5784 20.7288 19.7771C20.6465 19.9757 20.5258 20.1562 20.3736 20.3082C20.2217 20.4603 20.0412 20.581 19.8425 20.6634C19.6439 20.7457 19.431 20.7881 19.2159 20.7881C19.0009 20.7881 18.7879 20.7457 18.5893 20.6634C18.3906 20.581 18.2102 20.4603 18.0582 20.3082L18.0091 20.2591C17.8163 20.0705 17.5714 19.9439 17.3059 19.8958C17.0405 19.8477 16.7668 19.8802 16.52 19.9891C16.278 20.0928 16.0716 20.265 15.9263 20.4845C15.7809 20.704 15.7029 20.9613 15.7018 21.2245V21.3636C15.7018 21.7976 15.5294 22.2138 15.2225 22.5207C14.9157 22.8276 14.4994 23 14.0655 23C13.6315 23 13.2152 22.8276 12.9084 22.5207C12.6015 22.2138 12.4291 21.7976 12.4291 21.3636V21.29C12.4228 21.0192 12.3351 20.7565 12.1775 20.5362C12.0199 20.3159 11.7997 20.1481 11.5455 20.0545C11.2987 19.9456 11.0249 19.9131 10.7595 19.9613C10.4941 20.0094 10.2492 20.1359 10.0564 20.3245L10.0073 20.3736C9.8553 20.5258 9.67483 20.6465 9.47617 20.7288C9.27752 20.8112 9.06459 20.8536 8.84955 20.8536C8.6345 20.8536 8.42157 20.8112 8.22292 20.7288C8.02426 20.6465 7.84379 20.5258 7.69182 20.3736C7.53967 20.2217 7.41898 20.0412 7.33663 19.8425C7.25428 19.6439 7.21189 19.431 7.21189 19.2159C7.21189 19.0009 7.25428 18.7879 7.33663 18.5893C7.41898 18.3906 7.53967 18.2102 7.69182 18.0582L7.74091 18.0091C7.92953 17.8163 8.05606 17.5714 8.10419 17.3059C8.15231 17.0405 8.11982 16.7668 8.01091 16.52C7.90719 16.278 7.73498 16.0716 7.51547 15.9263C7.29596 15.7809 7.03873 15.7029 6.77545 15.7018H6.63636C6.20237 15.7018 5.78616 15.5294 5.47928 15.2225C5.1724 14.9157 5 14.4994 5 14.0655C5 13.6315 5.1724 13.2152 5.47928 12.9084C5.78616 12.6015 6.20237 12.4291 6.63636 12.4291H6.71C6.98081 12.4228 7.24346 12.3351 7.46379 12.1775C7.68412 12.0199 7.85195 11.7997 7.94545 11.5455C8.05437 11.2987 8.08686 11.0249 8.03873 10.7595C7.99061 10.4941 7.86408 10.2492 7.67545 10.0564L7.62636 10.0073C7.47422 9.8553 7.35352 9.67483 7.27118 9.47617C7.18883 9.27752 7.14644 9.06459 7.14644 8.84955C7.14644 8.6345 7.18883 8.42157 7.27118 8.22292C7.35352 8.02426 7.47422 7.84379 7.62636 7.69182C7.77834 7.53967 7.95881 7.41898 8.15746 7.33663C8.35611 7.25428 8.56905 7.21189 8.78409 7.21189C8.99913 7.21189 9.21207 7.25428 9.41072 7.33663C9.60937 7.41898 9.78984 7.53967 9.94182 7.69182L9.99091 7.74091C10.1837 7.92953 10.4286 8.05606 10.6941 8.10419C10.9595 8.15231 11.2332 8.11982 11.48 8.01091H11.5455C11.7874 7.90719 11.9938 7.73498 12.1392 7.51547C12.2846 7.29596 12.3626 7.03873 12.3636 6.77545V6.63636C12.3636 6.20237 12.536 5.78616 12.8429 5.47928C13.1498 5.1724 13.566 5 14 5C14.434 5 14.8502 5.1724 15.1571 5.47928C15.464 5.78616 15.6364 6.20237 15.6364 6.63636V6.71C15.6374 6.97328 15.7154 7.23051 15.8608 7.45002C16.0062 7.66953 16.2126 7.84174 16.4545 7.94545C16.7013 8.05437 16.9751 8.08686 17.2405 8.03873C17.5059 7.99061 17.7508 7.86408 17.9436 7.67545L17.9927 7.62636C18.1447 7.47422 18.3252 7.35352 18.5238 7.27118C18.7225 7.18883 18.9354 7.14644 19.1505 7.14644C19.3655 7.14644 19.5784 7.18883 19.7771 7.27118C19.9757 7.35352 20.1562 7.47422 20.3082 7.62636C20.4603 7.77834 20.581 7.95881 20.6634 8.15746C20.7457 8.35611 20.7881 8.56905 20.7881 8.78409C20.7881 8.99913 20.7457 9.21207 20.6634 9.41072C20.581 9.60937 20.4603 9.78984 20.3082 9.94182L20.2591 9.99091C20.0705 10.1837 19.9439 10.4286 19.8958 10.6941C19.8477 10.9595 19.8802 11.2332 19.9891 11.48V11.5455C20.0928 11.7874 20.265 11.9938 20.4845 12.1392C20.704 12.2846 20.9613 12.3626 21.2245 12.3636H21.3636C21.7976 12.3636 22.2138 12.536 22.5207 12.8429C22.8276 13.1498 23 13.566 23 14C23 14.434 22.8276 14.8502 22.5207 15.1571C22.2138 15.464 21.7976 15.6364 21.3636 15.6364H21.29C21.0267 15.6374 20.7695 15.7154 20.55 15.8608C20.3305 16.0062 20.1583 16.2126 20.0545 16.4545V16.4545Z" stroke="#6EBE49" stroke-width="2" stroke-linecap="round" stroke-linejoin="round" />
</svg>