<svg width="21" height="22" viewBox="0 0 21 22" fill="none" xmlns="http://www.w3.org/2000/svg">
    <path d="M2.16085 15.966L1.92785 16.199C1.84497 16.2778 1.77899 16.3727 1.73391 16.4778C1.68882 16.5829 1.66557 16.6961 1.66557 16.8105C1.66557 16.9249 1.68882 17.0381 1.73391 17.1432C1.77899 17.2483 1.84497 17.3432 1.92785 17.422L4.08285 19.577C4.16168 19.6599 4.25654 19.7258 4.36166 19.7709C4.46678 19.816 4.57997 19.8393 4.69435 19.8393C4.80873 19.8393 4.92191 19.816 5.02703 19.7709C5.13215 19.7258 5.22701 19.6599 5.30585 19.577L5.53885 19.344C5.66601 19.2168 5.8292 19.1319 6.00628 19.1006C6.18337 19.0692 6.36579 19.0931 6.52885 19.169C6.77079 19.2911 7.0244 19.3886 7.28585 19.46C7.45452 19.5201 7.60074 19.6304 7.70479 19.7761C7.80885 19.9218 7.86576 20.0959 7.86785 20.275V20.622C7.87439 20.8517 7.96858 21.0702 8.13109 21.2328C8.29359 21.3953 8.51212 21.4894 8.74185 21.496H11.8298C12.0596 21.4894 12.2781 21.3953 12.4406 21.2328C12.6031 21.0702 12.6973 20.8517 12.7038 20.622V20.273C12.7059 20.0939 12.7628 19.9198 12.8669 19.7741C12.971 19.6284 13.1172 19.5181 13.2858 19.458C13.5188 19.342 13.8098 19.283 14.0428 19.167C14.2065 19.0943 14.3882 19.0722 14.5646 19.1034C14.7409 19.1345 14.904 19.2176 15.0328 19.342L15.2658 19.575C15.3447 19.6579 15.4395 19.7238 15.5447 19.7689C15.6498 19.814 15.763 19.8373 15.8773 19.8373C15.9917 19.8373 16.1049 19.814 16.21 19.7689C16.3152 19.7238 16.41 19.6579 16.4888 19.575L18.6448 17.422C18.7277 17.3432 18.7937 17.2483 18.8388 17.1432C18.8839 17.0381 18.9071 16.9249 18.9071 16.8105C18.9071 16.6961 18.8839 16.5829 18.8388 16.4778C18.7937 16.3727 18.7277 16.2778 18.6448 16.199L18.5288 15.966C18.4017 15.8388 18.3167 15.6756 18.2854 15.4986C18.2541 15.3215 18.278 15.139 18.3538 14.976C18.476 14.734 18.5735 14.4804 18.6448 14.219C18.7049 14.0503 18.8153 13.9041 18.961 13.8C19.1067 13.696 19.2808 13.6391 19.4598 13.637H19.8098C20.0396 13.6304 20.2581 13.5363 20.4206 13.3738C20.5831 13.2112 20.6773 12.9927 20.6838 12.763V9.67599C20.6773 9.44626 20.5831 9.22774 20.4206 9.06523C20.2581 8.90272 20.0396 8.80854 19.8098 8.80199H19.4598C19.2808 8.7999 19.1067 8.743 18.961 8.63894C18.8153 8.53488 18.7049 8.38867 18.6448 8.21999C18.5288 7.92899 18.4698 7.69599 18.3538 7.46299C18.2812 7.29929 18.2591 7.11764 18.2902 6.94128C18.3214 6.76492 18.4045 6.60187 18.5288 6.47299L18.7618 6.23999C18.8447 6.16115 18.9107 6.0663 18.9558 5.96118C19.0009 5.85606 19.0241 5.74287 19.0241 5.62849C19.0241 5.51411 19.0009 5.40092 18.9558 5.2958C18.9107 5.19069 18.8447 5.09583 18.7618 5.01699L16.6098 2.86099C16.531 2.77812 16.4362 2.71214 16.331 2.66705C16.2259 2.62196 16.1127 2.59872 15.9983 2.59872C15.884 2.59872 15.7708 2.62196 15.6657 2.66705C15.5605 2.71214 15.4657 2.77812 15.3868 2.86099L15.0958 3.03599C14.9687 3.16314 14.8055 3.24813 14.6284 3.27943C14.4513 3.31073 14.2689 3.28684 14.1058 3.21099C13.8639 3.08887 13.6103 2.99138 13.3488 2.91999C13.1802 2.85991 13.034 2.74958 12.9299 2.60386C12.8258 2.45814 12.7689 2.28404 12.7668 2.10499V1.75399C12.773 1.51407 12.6841 1.28142 12.5194 1.10682C12.3548 0.932222 12.1277 0.829832 11.8878 0.821991H8.80085C8.57112 0.828537 8.35259 0.92272 8.19009 1.08523C8.02758 1.24774 7.93339 1.46626 7.92685 1.69599V2.04499C7.92476 2.22404 7.86785 2.39814 7.76379 2.54386C7.65974 2.68958 7.51352 2.79991 7.34485 2.85999C7.11185 2.97599 6.82085 3.03499 6.58785 3.15099C6.42415 3.22363 6.24249 3.24579 6.06613 3.21461C5.88977 3.18344 5.72672 3.10035 5.59785 2.97599L5.30985 2.80199C5.23101 2.71912 5.13615 2.65314 5.03103 2.60805C4.92591 2.56296 4.81273 2.53972 4.69835 2.53972C4.58397 2.53972 4.47078 2.56296 4.36566 2.60805C4.26054 2.65314 4.16568 2.71912 4.08685 2.80199L1.92785 4.95799C1.84497 5.03683 1.77899 5.13169 1.73391 5.2368C1.68882 5.34192 1.66557 5.45511 1.66557 5.56949C1.66557 5.68387 1.68882 5.79706 1.73391 5.90218C1.77899 6.0073 1.84497 6.10215 1.92785 6.18099L2.16085 6.41399C2.288 6.54116 2.37298 6.70434 2.40429 6.88143C2.43559 7.05851 2.4117 7.24094 2.33585 7.40399C2.21372 7.64594 2.11623 7.89954 2.04485 8.16099C1.98476 8.32967 1.87443 8.47588 1.72872 8.57994C1.583 8.684 1.40889 8.7409 1.22985 8.74299H0.879846C0.649977 8.7506 0.431742 8.84592 0.26995 9.00939C0.108158 9.17285 0.0150866 9.39206 0.00984593 9.62199V12.709C-0.00468662 12.825 0.00548831 12.9428 0.0397025 13.0546C0.0739167 13.1664 0.131396 13.2697 0.208366 13.3577C0.285336 13.4458 0.380055 13.5165 0.486303 13.5653C0.592551 13.6141 0.707924 13.6399 0.824846 13.641H1.17385C1.35289 13.6431 1.527 13.7 1.67272 13.804C1.81843 13.9081 1.92876 14.0543 1.98885 14.223C2.10485 14.514 2.16385 14.747 2.27985 14.98C2.37507 15.1334 2.41517 15.3146 2.39354 15.4939C2.3719 15.6731 2.28983 15.8397 2.16085 15.966ZM3.03485 9.50099L3.32585 8.39399C3.32585 8.33599 3.38385 8.27799 3.38385 8.21899L3.90985 7.28699C3.99265 7.11948 4.02573 6.93175 4.00517 6.74602C3.98461 6.56029 3.91128 6.38434 3.79385 6.23899C3.62596 6.06808 3.53189 5.83807 3.53189 5.59849C3.53189 5.35891 3.62596 5.12891 3.79385 4.95799L4.08485 4.66699C4.16376 4.58425 4.25864 4.51838 4.36375 4.47338C4.46886 4.42837 4.58201 4.40517 4.69635 4.40517C4.81068 4.40517 4.92383 4.42837 5.02894 4.47338C5.13405 4.51838 5.22893 4.58425 5.30785 4.66699C5.43878 4.81008 5.61725 4.90073 5.81003 4.92207C6.00281 4.94341 6.19678 4.89399 6.35585 4.78299L7.28785 4.25899C7.31085 4.23689 7.3385 4.22021 7.36878 4.21018C7.39906 4.20014 7.4312 4.197 7.46285 4.20099L8.50985 3.90899C8.71687 3.87166 8.90487 3.76459 9.04259 3.60559C9.18031 3.44658 9.25945 3.24522 9.26685 3.03499C9.27339 2.80526 9.36758 2.58674 9.53008 2.42423C9.69259 2.26172 9.91112 2.16754 10.1408 2.16099H10.5488C10.7786 2.16754 10.9971 2.26172 11.1596 2.42423C11.3221 2.58674 11.4163 2.80526 11.4228 3.03499C11.4274 3.22876 11.4913 3.41647 11.6059 3.57276C11.7206 3.72906 11.8804 3.84642 12.0638 3.90899L13.1118 4.19999C13.1698 4.19999 13.2278 4.25799 13.2868 4.25799L14.2188 4.78199C14.3864 4.86479 14.5741 4.89787 14.7598 4.87732C14.9455 4.85676 15.1215 4.78342 15.2668 4.66599C15.4375 4.49762 15.6676 4.40322 15.9073 4.40322C16.1471 4.40322 16.3772 4.49762 16.5478 4.66599L16.8388 4.95699C16.9217 5.03583 16.9877 5.13069 17.0328 5.2358C17.0779 5.34092 17.1011 5.45411 17.1011 5.56849C17.1011 5.68287 17.0779 5.79606 17.0328 5.90118C16.9877 6.0063 16.9217 6.10115 16.8388 6.17999C16.6958 6.31093 16.6051 6.48939 16.5838 6.68218C16.5624 6.87496 16.6119 7.06893 16.7228 7.22799L17.2468 8.15999C17.2689 8.18299 17.2856 8.21065 17.2957 8.24092C17.3057 8.2712 17.3088 8.30334 17.3048 8.33499L17.5958 9.38299C17.6483 9.5725 17.7631 9.73882 17.9216 9.85511C18.0802 9.9714 18.2733 10.0309 18.4698 10.024C18.6996 10.0305 18.9181 10.1247 19.0806 10.2872C19.2431 10.4497 19.3373 10.6683 19.3438 10.898V11.306C19.3373 11.5357 19.2431 11.7542 19.0806 11.9168C18.9181 12.0793 18.6996 12.1734 18.4698 12.18C18.2761 12.1846 18.0884 12.2485 17.9321 12.3631C17.7758 12.4777 17.6584 12.6375 17.5958 12.821L17.3098 13.869C17.3098 13.927 17.2518 13.985 17.2518 14.044L16.7278 14.976C16.645 15.1435 16.612 15.3312 16.6325 15.517C16.6531 15.7027 16.7264 15.8786 16.8438 16.024C16.9267 16.1028 16.9927 16.1977 17.0378 16.3028C17.0829 16.4079 17.1061 16.5211 17.1061 16.6355C17.1061 16.7499 17.0829 16.8631 17.0378 16.9682C16.9927 17.0733 16.9267 17.1682 16.8438 17.247L16.5528 17.713C16.474 17.7959 16.3792 17.8618 16.274 17.9069C16.1689 17.952 16.0557 17.9753 15.9413 17.9753C15.827 17.9753 15.7138 17.952 15.6087 17.9069C15.5035 17.8618 15.4087 17.7959 15.3298 17.713C15.1989 17.5699 15.0204 17.4792 14.8277 17.4579C14.6349 17.4366 14.4409 17.486 14.2818 17.597L13.3498 18.121C13.3268 18.1431 13.2992 18.1598 13.2689 18.1698C13.2386 18.1798 13.2065 18.183 13.1748 18.179L12.1268 18.47C11.9373 18.5225 11.771 18.6372 11.6547 18.7958C11.5384 18.9544 11.4789 19.1475 11.4858 19.344C11.4793 19.5737 11.3851 19.7922 11.2226 19.9548C11.0601 20.1173 10.8416 20.2114 10.6118 20.218H10.2038C9.97412 20.2114 9.75559 20.1173 9.59309 19.9548C9.43058 19.7922 9.33639 19.5737 9.32985 19.344C9.32528 19.1502 9.26138 18.9625 9.14675 18.8062C9.03212 18.6499 8.87229 18.5326 8.68885 18.47L7.51985 18.238C7.46185 18.238 7.40385 18.18 7.34485 18.18L6.40985 17.655C6.24233 17.5722 6.0546 17.5391 5.86887 17.5597C5.68315 17.5802 5.5072 17.6536 5.36185 17.771C5.28301 17.8539 5.18815 17.9198 5.08303 17.9649C4.97791 18.01 4.86473 18.0333 4.75035 18.0333C4.63597 18.0333 4.52278 18.01 4.41766 17.9649C4.31254 17.9198 4.21768 17.8539 4.13885 17.771L3.84785 17.48C3.755 17.4029 3.67928 17.3072 3.62553 17.1991C3.57179 17.091 3.54121 16.9729 3.53575 16.8523C3.53029 16.7317 3.55007 16.6113 3.59383 16.4988C3.63758 16.3863 3.70435 16.2842 3.78985 16.199C3.93356 16.0686 4.02496 15.8904 4.04704 15.6976C4.06912 15.5048 4.02036 15.3105 3.90985 15.151L3.38385 14.222C3.36175 14.199 3.34507 14.1713 3.33503 14.1411C3.325 14.1108 3.32186 14.0786 3.32585 14.047L3.03485 12.999C2.98238 12.8095 2.86761 12.6432 2.70904 12.5269C2.55048 12.4106 2.35736 12.3511 2.16085 12.358C1.93112 12.3514 1.71259 12.2573 1.55008 12.0948C1.38758 11.9322 1.29339 11.7137 1.28685 11.484V11.076C1.28062 10.8369 1.36887 10.605 1.53248 10.4305C1.69608 10.2561 1.92185 10.1531 2.16085 10.144C2.35486 10.1393 2.54274 10.0751 2.69907 9.96007C2.85539 9.84507 2.9726 9.68481 3.03485 9.50099Z" fill="#6EBE49" />
    <path d="M10.3161 15.384C11.1456 15.384 11.9564 15.138 12.6461 14.6772C13.3358 14.2163 13.8734 13.5613 14.1908 12.795C14.5083 12.0286 14.5913 11.1853 14.4295 10.3718C14.2677 9.55822 13.8682 8.81092 13.2817 8.22438C12.6951 7.63784 11.9478 7.2384 11.1343 7.07658C10.3207 6.91475 9.47745 6.9978 8.7111 7.31524C7.94474 7.63267 7.28973 8.17023 6.82889 8.85993C6.36804 9.54963 6.12207 10.3605 6.12207 11.19C6.12733 12.3007 6.57088 13.3644 7.35627 14.1498C8.14166 14.9352 9.20537 15.3787 10.3161 15.384ZM10.3161 8.39399C10.9597 8.39672 11.5825 8.62236 12.0784 9.03251C12.5744 9.44267 12.913 10.012 13.0365 10.6437C13.16 11.2753 13.0609 11.9302 12.7559 12.497C12.451 13.0638 11.9591 13.5074 11.3639 13.7524C10.7688 13.9974 10.1071 14.0286 9.49155 13.8407C8.87597 13.6528 8.34451 13.2574 7.98759 12.7219C7.63066 12.1863 7.47033 11.5436 7.53386 10.9031C7.5974 10.2627 7.88088 9.664 8.33607 9.20899C8.59581 8.94909 8.9046 8.74339 9.2445 8.60383C9.5844 8.46426 9.94864 8.39362 10.3161 8.39599V8.39399Z" fill="#868689" />
</svg>