<svg width="18" height="18" viewBox="0 0 18 18" fill="none" xmlns="http://www.w3.org/2000/svg">
    <path d="M8.99983 0C5.40954 0 0 0.910938 0 3.37478V14.6252C0 17.09 5.40954 18 8.99983 18C12.5901 18 17.8981 17.1429 17.9997 14.6826V3.37478C18.0496 0.910938 12.64 0 8.99983 0ZM16.8387 14.6252C16.8387 14.7857 16.6873 15 16.4342 15.2143C15.9298 15.5556 15.3861 15.8268 14.8164 16.0212C12.9204 16.5547 10.9638 16.8072 9.00237 16.7717C7.05755 16.804 5.11785 16.5515 3.23828 16.0212C1.7211 15.5389 1.16517 14.9453 1.16517 14.6817V12.6967C2.68235 13.7143 5.66509 14.3042 9.00237 14.3042C12.3396 14.3042 15.3156 13.7179 16.8387 12.6967V14.6252ZM16.8387 10.8748C16.8387 11.0353 16.6873 11.2496 16.4342 11.4638C15.9298 11.8051 15.3861 12.0763 14.8164 12.2708C12.9204 12.8042 10.9638 13.0568 9.00237 13.0212C7.05755 13.0536 5.11785 12.801 3.23828 12.2708C1.7211 11.7884 1.16517 11.1949 1.16517 10.9313V8.9471C2.68235 9.96473 5.66509 10.5547 9.00237 10.5547C12.3396 10.5547 15.3156 9.96473 16.8387 8.9471V10.8748ZM16.8387 7.12433C16.8387 7.28482 16.6873 7.4991 16.4342 7.71339C15.9298 8.05469 15.3861 8.32589 14.8164 8.52032C12.9204 9.05378 10.9638 9.30633 9.00237 9.27077C7.05659 9.3025 5.11601 9.04906 3.23574 8.51763C1.71856 8.03527 1.16263 7.44172 1.16263 7.17812V5.08906C2.67981 6.10669 5.66255 6.69665 8.99983 6.69665C12.3371 6.69665 15.3156 6.10759 16.8387 5.08906V7.12433ZM16.4342 3.91004C15.9298 4.25134 15.3861 4.52254 14.8164 4.71698C12.9204 5.25043 10.9638 5.50298 9.00237 5.46742C7.05755 5.49978 5.11785 5.24725 3.23828 4.71698C1.7211 4.23461 1.16517 3.64106 1.16517 3.37747C1.16517 3.21698 1.31664 3.00269 1.56964 2.7884C2.07408 2.4471 2.61782 2.1759 3.18751 1.98147C5.06708 1.4512 7.00678 1.19866 8.9516 1.23102C10.9127 1.20259 12.8683 1.45502 14.7656 1.98147C16.2828 2.46384 16.8387 3.05738 16.8387 3.32098C16.8387 3.48237 16.6847 3.69665 16.4317 3.91094L16.4342 3.91004Z" fill="#FFFFFF" />
</svg>