<svg width="28" height="28" viewBox="0 0 28 28" fill="none" xmlns="http://www.w3.org/2000/svg">
<circle cx="14" cy="14" r="14" fill="#6EBE49"/>
<path d="M15.6822 22.3334C15.5113 22.628 15.266 22.8726 14.9708 23.0426C14.6756 23.2127 14.3409 23.3022 14.0003 23.3022C13.6597 23.3022 13.325 23.2127 13.0298 23.0426C12.7346 22.8726 12.4893 22.628 12.3184 22.3334" stroke="white" stroke-width="2" stroke-linecap="round" stroke-linejoin="round"/>
<path d="M16 5C15.2109 4.61804 14.1017 4.61804 13.9997 4.61804C12.5557 4.61804 11.1709 5.21621 10.1499 6.28096C9.12884 7.3457 8.55523 8.78981 8.55523 10.2956C8.55523 16.9194 5.83301 19.0485 5.83301 19.0485H22.1663C22.1663 19.0485 20.1336 17.4587 19.5812 12.7526" stroke="white" stroke-width="2" stroke-linecap="round" stroke-linejoin="round"/>
<path d="M12 9L15 12L21 6" stroke="white" stroke-width="2" stroke-linecap="round"/>
</svg>