<svg width="4" height="20" viewBox="0 0 4 20" fill="none" xmlns="http://www.w3.org/2000/svg">
<path d="M1.00024 10C1.00024 10.5523 1.44796 11 2.00024 11C2.55253 11 3.00024 10.5523 3.00024 10C3.00024 9.44772 2.55253 9 2.00024 9C1.44796 9 1.00024 9.44772 1.00024 10Z" fill="#6EBE49" stroke="#828282" stroke-width="2" stroke-linecap="round" stroke-linejoin="round"/>
<path d="M1.00024 18C1.00024 18.5523 1.44796 19 2.00024 19C2.55253 19 3.00024 18.5523 3.00024 18C3.00024 17.4477 2.55253 17 2.00024 17C1.44796 17 1.00024 17.4477 1.00024 18Z" fill="#6EBE49" stroke="#828282" stroke-width="2" stroke-linecap="round" stroke-linejoin="round"/>
<path d="M1.00024 2C1.00024 2.55228 1.44796 3 2.00024 3C2.55253 3 3.00024 2.55228 3.00024 2C3.00024 1.44772 2.55253 1 2.00024 1C1.44796 1 1.00024 1.44772 1.00024 2Z" fill="#6EBE49" stroke="#828282" stroke-width="2" stroke-linecap="round" stroke-linejoin="round"/>
</svg>
