<svg width="190" height="17" viewBox="0 0 190 17" fill="none" xmlns="http://www.w3.org/2000/svg">
    <path d="M0 10.7622V6.61649C0 3.77915 1.34774 1.99792 4.48458 1.99792H8.70907C11.8538 1.99792 13.1937 3.77915 13.1937 6.61649V6.67166C13.1937 6.97116 13.0203 7.14455 12.7208 7.14455H11.0341C10.7346 7.14455 10.5612 7.01057 10.5612 6.82141V6.52191C10.5612 4.87468 10.0095 4.52001 8.70907 4.52001H4.48458C3.17625 4.52001 2.63243 4.88256 2.63243 6.52191V10.8567C2.63243 12.4882 3.21566 12.8429 4.48458 12.8429H8.70907C9.97799 12.8429 10.5612 12.4803 10.5612 10.8567V10.4942C10.5612 10.1947 10.7346 10.0213 11.0341 10.0213H12.7208C13.0203 10.0213 13.1937 10.1553 13.1937 10.3839V10.7622C13.1937 13.5837 11.8459 15.365 8.70907 15.365H4.48458C1.34774 15.365 0 13.5837 0 10.7622Z" fill="#6EBE49" />
    <path d="M15.897 14.8921V2.47082C15.897 2.17132 16.0704 1.99792 16.3699 1.99792H18.0565C18.356 1.99792 18.5294 2.17132 18.5294 2.47082V12.8429H26.269C26.5685 12.8429 26.7419 13.0163 26.7419 13.3158V14.8842C26.7419 15.1837 26.5685 15.3571 26.269 15.3571H16.3699C16.0704 15.365 15.897 15.1916 15.897 14.8921Z" fill="#6EBE49" />
    <path d="M28.5625 10.7622V6.61649C28.5625 3.77915 29.9102 1.99792 33.0471 1.99792H37.91C41.0547 1.99792 42.3946 3.77915 42.3946 6.61649V10.7622C42.3946 13.5837 41.0468 15.365 37.91 15.365H33.0471C29.9024 15.365 28.5625 13.5837 28.5625 10.7622ZM37.91 12.8429C39.1789 12.8429 39.7621 12.4803 39.7621 10.8567V6.52191C39.7621 4.87468 39.2341 4.52001 37.91 4.52001H33.0471C31.7387 4.52001 31.1949 4.88256 31.1949 6.52191V10.8567C31.1949 12.4882 31.7782 12.8429 33.0471 12.8429H37.91Z" fill="#6EBE49" />
    <path d="M45.366 10.7622V2.47082C45.366 2.17132 45.5394 1.99792 45.8389 1.99792H47.5255C47.825 1.99792 47.9984 2.17132 47.9984 2.47082V10.8567C47.9984 12.4882 48.5816 12.8429 49.8505 12.8429H54.1066C55.3755 12.8429 55.943 12.4803 55.943 10.8567V2.47082C55.943 2.17132 56.1164 1.99792 56.4158 1.99792H58.1183C58.4177 1.99792 58.5911 2.17132 58.5911 2.47082V10.7622C58.5911 13.5837 57.2276 15.365 54.1066 15.365H49.8505C46.7137 15.365 45.366 13.5837 45.366 10.7622Z" fill="#6EBE49" />
    <path d="M61.8147 14.8921V2.47082C61.8147 2.17132 61.9881 1.99792 62.2876 1.99792H70.4055C73.5345 1.99792 74.8744 3.66092 74.8744 7.01057V10.4154C74.8744 13.7493 73.5266 15.3571 70.4055 15.3571H62.2876C61.9881 15.365 61.8147 15.1916 61.8147 14.8921ZM70.106 12.8665C71.5484 12.8665 72.2813 12.4725 72.2813 10.3839V7.03421C72.2813 4.95349 71.5799 4.52001 70.106 4.52001H64.4471V12.8665H70.106Z" fill="#6EBE49" />
    <path d="M77.428 11.3453C77.4123 11.0222 77.5778 10.8567 77.8852 10.8567H79.5718C79.8713 10.8567 80.0289 11.0301 80.0447 11.3296C80.155 12.4251 80.6673 12.8428 81.8969 12.8428H85.609C87.0514 12.8428 87.5558 12.4803 87.5558 11.3848C87.5558 10.3286 87.0671 10.037 85.7982 9.94244L81.5737 9.61929C78.6576 9.39073 77.5068 8.44495 77.5068 5.94651C77.5068 3.3929 78.7364 1.98999 82.0308 1.98999H85.4987C88.4858 1.98999 89.8335 3.33773 89.9675 6.00168C89.9833 6.32482 89.8178 6.49033 89.5104 6.49033H87.808C87.5085 6.49033 87.3509 6.31694 87.3351 6.01744C87.2248 4.92191 86.7125 4.50419 85.4987 4.50419H82.0702C80.6122 4.50419 80.0999 4.8431 80.0999 5.96227C80.0999 7.00263 80.5885 7.2706 81.8574 7.36518L86.0819 7.68832C88.9587 7.91689 90.1724 8.91784 90.1724 11.4005C90.1724 13.9541 88.9429 15.357 85.6327 15.357H81.9047C78.8861 15.3649 77.562 14.0172 77.428 11.3453Z" fill="#6EBE49" />
    <path d="M96.4696 14.8921V4.53577H92.3791C92.0796 4.53577 91.9062 4.36238 91.9062 4.06288V2.47082C91.9062 2.17132 92.0796 1.99792 92.3791 1.99792H103.185C103.484 1.99792 103.658 2.17132 103.658 2.47082V4.06288C103.658 4.36238 103.484 4.53577 103.185 4.53577H99.0942V14.8921C99.0942 15.1916 98.9208 15.365 98.6213 15.365H96.9425C96.643 15.365 96.4696 15.1916 96.4696 14.8921Z" fill="#6EBE49" />
    <path d="M105.533 10.7622V6.61649C105.533 3.77915 106.881 1.99792 110.018 1.99792H114.881C118.026 1.99792 119.366 3.77915 119.366 6.61649V10.7622C119.366 13.5837 118.018 15.365 114.881 15.365H110.018C106.881 15.365 105.533 13.5837 105.533 10.7622ZM114.889 12.8429C116.158 12.8429 116.741 12.4803 116.741 10.8567V6.52191C116.741 4.87468 116.213 4.52001 114.889 4.52001H110.026C108.718 4.52001 108.174 4.88256 108.174 6.52191V10.8567C108.174 12.4882 108.757 12.8429 110.026 12.8429H114.889Z" fill="#6EBE49" />
    <path d="M132.204 11.5976L134.459 14.7975C134.687 15.1206 134.537 15.365 134.159 15.365H132.189C131.944 15.365 131.755 15.2704 131.621 15.0655L129.556 11.8656H124.898V14.8921C124.898 15.1916 124.725 15.365 124.425 15.365H122.739C122.439 15.365 122.266 15.1916 122.266 14.8921V2.47082C122.266 2.17132 122.439 1.99792 122.739 1.99792H129.611C133.489 1.99792 134.971 3.6294 134.971 6.82141V7.10514C134.971 9.41443 134.23 10.9907 132.204 11.5976ZM132.323 6.84506C132.323 4.87468 131.471 4.52001 129.407 4.52001H124.898V9.36714H129.407C131.432 9.36714 132.323 9.02823 132.323 7.09726V6.84506Z" fill="#6EBE49" />
    <path d="M137.698 14.8921V2.47082C137.698 2.17132 137.871 1.99792 138.171 1.99792H148.527C148.827 1.99792 149 2.17132 149 2.47082V4.03924C149 4.33873 148.827 4.51213 148.527 4.51213H140.315V7.42829H145.635C145.934 7.42829 146.108 7.60168 146.108 7.90118V9.28044C146.108 9.57994 145.934 9.75333 145.635 9.75333H140.315V12.8429H148.527C148.827 12.8429 149 13.0163 149 13.3158V14.8842C149 15.1837 148.827 15.3571 148.527 15.3571H138.171C137.864 15.365 137.698 15.1916 137.698 14.8921Z" fill="#6EBE49" />
</svg>