<svg width="28" height="28" viewBox="0 0 28 28" fill="none" xmlns="http://www.w3.org/2000/svg">
<circle cx="14" cy="14" r="14" fill="#6EBE49"/>
<path d="M17.5 18L18.2526 17.3415L17.9538 17H17.5V18ZM21 22L20.2474 22.6585C20.5218 22.972 20.9617 23.0826 21.3517 22.9361C21.7417 22.7896 22 22.4166 22 22H21ZM5 7V17H7V7H5ZM7 19H17.5V17H7V19ZM16.7474 18.6585L20.2474 22.6585L21.7526 21.3415L18.2526 17.3415L16.7474 18.6585ZM22 22V7H20V22H22ZM20 5H7V7H20V5ZM22 7C22 5.89543 21.1046 5 20 5V7H22ZM5 17C5 18.1046 5.89543 19 7 19V17H5ZM7 7H7V5C5.89543 5 5 5.89543 5 7H7Z" fill="white"/>
</svg>