<svg width="17" height="18" viewBox="0 0 17 18" fill="none" xmlns="http://www.w3.org/2000/svg">
<path d="M12.5 13L13.2526 12.3415L12.9538 12H12.5V13ZM16 17L15.2474 17.6585C15.5218 17.972 15.9617 18.0826 16.3517 17.9361C16.7417 17.7896 17 17.4166 17 17H16ZM0 2V12H2V2H0ZM2 14H12.5V12H2V14ZM11.7474 13.6585L15.2474 17.6585L16.7526 16.3415L13.2526 12.3415L11.7474 13.6585ZM17 17V2H15V17H17ZM15 0H2V2H15V0ZM17 2C17 0.89543 16.1046 0 15 0V2H17ZM0 12C0 13.1046 0.895431 14 2 14V12H0ZM2 2H2V0C0.89543 0 0 0.895431 0 2H2Z" fill="#6EBE49"/>
</svg>