<svg
    xmlns="http://www.w3.org/2000/svg" viewBox="0 0 179.84 22.49">
    <defs>
        <style>.cls-1{fill:#6abf4b;}</style>
    </defs>
    <title>Cortx-logo-GRN</title>
    <path class="cls-1" d="M93.11,60.43c6.29,0,10.74,1,13.31,2.13v5.23A31.63,31.63,0,0,0,93.06,65.1c-4.58,0-7.33,1-8.56,2.18a5.64,5.64,0,0,0-1.61,4.4,5.6,5.6,0,0,0,1.61,4.39c1.23,1.23,4,2.19,8.56,2.19a33.43,33.43,0,0,0,13.36-2.49v5c-2.57,1.17-7,2.12-13.31,2.12-7.47,0-11.54-1.73-13.54-3.71a10.19,10.19,0,0,1-2.75-7.53,10.23,10.23,0,0,1,2.75-7.54C81.57,62.17,85.64,60.43,93.11,60.43Z" transform="translate(-76.82 -60.43)"/>
    <path class="cls-1" d="M112.13,64.2c2-2,5.77-3.77,14.63-3.77s12.59,1.74,14.62,3.77a10,10,0,0,1,2.81,7.48,10,10,0,0,1-2.81,7.47c-2,2-5.77,3.77-14.62,3.77s-12.59-1.73-14.63-3.77a10,10,0,0,1-2.81-7.47A10.07,10.07,0,0,1,112.13,64.2Zm24.41,3C135.31,66,132.74,65,126.76,65s-8.56,1-9.78,2.27a5.86,5.86,0,0,0-1.59,4.46A5.84,5.84,0,0,0,117,76.13c1.22,1.23,3.8,2.28,9.78,2.28s8.55-1,9.78-2.28a5.88,5.88,0,0,0,1.58-4.45A5.9,5.9,0,0,0,136.54,67.22Z" transform="translate(-76.82 -60.43)"/>
    <path class="cls-1" d="M176.1,73.08c-1.2,1.2-2.87,2-6.46,2.25l10.56,6.72v.09h-8.71l-10.08-6.72h-7.47v6.72H148V61.21h18.24c6.31,0,8.43.75,10,2.27a6.62,6.62,0,0,1,1.67,4.79A6.52,6.52,0,0,1,176.1,73.08Zm-10-7.06h-12.2v5h12.2c2.75,0,4.37-.21,5.14-1a2.25,2.25,0,0,0,.6-1.58,2.15,2.15,0,0,0-.63-1.65C170.6,66.14,169.19,66,166.14,66Z" transform="translate(-76.82 -60.43)"/>
    <path class="cls-1" d="M212.25,65.93H199V82.14h-5.95V65.93H179.74V61.21h32.51Z" transform="translate(-76.82 -60.43)"/>
    <path class="cls-1" d="M220.83,82.14h-7.92v-.09l13-10.28-13-10.47v-.09h8.67l8.79,7.42,9-7.42h7.92v.09L234.5,71.47l13.16,10.58v.09H239l-9-7.53Z" transform="translate(-76.82 -60.43)"/>
    <path class="cls-1" d="M251.46,61.78h-1.25v3.45h-.66V61.78H248.3v-.53h3.16Zm5.2,3.45H256V61.9h0l-1.31,3.33h-.42L253,61.9h0v3.33h-.66v-4h1l1.19,3,1.17-3h1Z" transform="translate(-76.82 -60.43)"/>
</svg>