<svg width="62" height="32" viewBox="0 0 62 32" fill="none" xmlns="http://www.w3.org/2000/svg">
<path fill-rule="evenodd" clip-rule="evenodd" d="M1 19.12V13.86C1 10.26 2.71 8 6.69 8H12.05C16.04 8 17.74 10.26 17.74 13.86V13.93C17.74 14.31 17.52 14.53 17.14 14.53H15C14.62 14.53 14.4 14.36 14.4 14.12V13.74C14.4 11.65 13.7 11.19 12.05 11.19H6.69C5.03 11.19 4.34 11.65 4.34 13.74V19.24C4.34 21.31 5.08 21.76 6.69 21.76H12.05C13.66 21.76 14.4 21.3 14.4 19.24V18.78C14.4 18.4 14.62 18.18 15 18.18H17.14C17.52 18.18 17.74 18.35 17.74 18.64V19.12C17.74 22.7 16.03 24.96 12.05 24.96H6.69C2.71 24.96 1 22.7 1 19.12ZM20.74 19.86C20.72 19.45 20.93 19.24 21.32 19.24H23.46C23.84 19.24 24.04 19.46 24.06 19.84C24.2 21.23 24.85 21.76 26.41 21.76H31.12C32.95 21.76 33.59 21.3 33.59 19.91C33.59 18.56 32.97 18.2 31.36 18.08L26 17.68C22.3 17.39 20.84 16.19 20.84 13.02C20.84 9.78 22.4 8 26.58 8H30.98C34.77 8 36.48 9.71 36.65 13.09C36.67 13.5 36.46 13.71 36.07 13.71H33.9C33.52 13.71 33.32 13.49 33.3 13.11C33.16 11.72 32.51 11.19 30.97 11.19H26.62C24.77 11.19 24.12 11.62 24.12 13.04C24.12 14.36 24.74 14.7 26.35 14.82L31.71 15.23C35.36 15.52 36.9 16.79 36.9 19.94C36.9 23.18 35.34 24.96 31.14 24.96H26.41C22.59 24.96 20.91 23.25 20.74 19.86ZM40.41 8.6V24.36C40.41 24.74 40.62 24.96 41.03 24.96H43.14C43.52 24.96 43.74 24.74 43.74 24.36V13.38L48.95 21.71C49.12 21.98 49.36 22.12 49.67 22.12H51.01C51.32 22.12 51.56 21.97 51.73 21.71L56.94 13.35V24.35C56.94 24.73 57.16 24.95 57.54 24.95H59.65C60.03 24.95 60.25 24.73 60.25 24.35V8.6C60.25 8.22 60.03 8 59.65 8H57.08C56.76 8 56.52 8.14 56.35 8.41L50.35 18.23L44.32 8.41C44.15 8.14 43.91 8 43.6 8H41.01C40.63 8 40.41 8.22 40.41 8.6Z" fill="#6EBE49"/>
</svg>
