<svg width="50" height="50" viewBox="0 0 50 50" fill="none" xmlns="http://www.w3.org/2000/svg">
<rect x="0.5" y="0.5" width="49" height="49" rx="3.5" fill="white" stroke="#6EBE49"/>
<path d="M32.4122 16.0186L34.9561 13.3334L37.5 16.0186" stroke="#6EBE49" stroke-width="2" stroke-linecap="round"/>
<path d="M19.9649 33.4722C19.9649 35.1961 18.654 36.5 17.1491 36.5C15.6442 36.5 14.3333 35.1961 14.3333 33.4722C14.3333 31.7484 15.6442 30.4445 17.1491 30.4445C18.654 30.4445 19.9649 31.7484 19.9649 33.4722Z" stroke="#6EBE49" stroke-width="2"/>
<mask id="path-4-inside-1" fill="white">
<rect x="20.9648" y="18.7037" width="10.1754" height="10.7407" rx="1"/>
</mask>
<rect x="20.9648" y="18.7037" width="10.1754" height="10.7407" rx="1" stroke="#6EBE49" stroke-width="4" mask="url(#path-4-inside-1)"/>
<path d="M17.1491 30.7871L17.1491 18.7037C17.1491 17.2794 17.6181 15.9135 18.453 14.9063C19.2879 13.8992 20.4202 13.3334 21.6009 13.3334C22.7815 13.3334 23.9139 13.8992 24.7487 14.9063C25.5836 15.9135 26.0526 17.2794 26.0526 18.7037V19.3005" stroke="#6EBE49" stroke-width="2"/>
<path d="M34.9562 14.676L34.9562 29.4445C34.9562 30.8688 34.4872 32.2348 33.6523 33.2419C32.8174 34.249 31.6851 34.8148 30.5044 34.8148C29.3237 34.8148 28.1914 34.249 27.3566 33.2419C26.5217 32.2348 26.0527 30.8688 26.0527 29.4445L26.0527 28.8478" stroke="#6EBE49" stroke-width="2"/>
</svg>
