<svg width="28" height="28" viewBox="0 0 28 28" fill="none" xmlns="http://www.w3.org/2000/svg">
<path d="M14 23C18.9706 23 23 18.9706 23 14C23 9.02944 18.9706 5 14 5C9.02944 5 5 9.02944 5 14C5 18.9706 9.02944 23 14 23Z" stroke="#6EBE49" stroke-width="2" stroke-linecap="round" stroke-linejoin="round"/>
<path d="M11.1709 11.0836C11.3995 10.4338 11.8506 9.88589 12.4445 9.53689C13.0383 9.18788 13.7365 9.06031 14.4154 9.17675C15.0943 9.2932 15.71 9.64615 16.1536 10.1731C16.5972 10.7001 16.84 11.367 16.839 12.0558C16.839 14.0002 14 14.7294 14 14.7294" stroke="#6EBE49" stroke-width="2" stroke-linecap="round" stroke-linejoin="round"/>
<path d="M13.5 17.5V15.309L14.5 14.809V17.5H13.5Z" stroke="#6EBE49"/>
<circle cx="14" cy="20" r="0.5" stroke="#6EBE49"/>
</svg>
