<svg width="238" height="20" viewBox="0 0 238 20" fill="none" xmlns="http://www.w3.org/2000/svg">
<path d="M21.7667 18.85H0V0.799988H5.11713V16.4207H21.7667V18.85Z" fill="#6EBE49"/>
<path d="M47.724 0.799988L35.7822 12.9033V18.8284H30.6112V12.8495L18.6694 0.799988H24.406L33.2506 9.95696L42.0143 0.799988H47.724Z" fill="#6EBE49"/>
<path d="M77.3063 0.799988L65.1006 18.85H60.032L47.8317 0.799988H53.2612L62.569 14.9933L71.8768 0.799988H77.3063Z" fill="#6EBE49"/>
<path d="M104.088 18.85H80.2043V0.799988H104.088V3.33162H85.3699V8.34102H101.712V10.7703H85.3699V16.313H104.088V18.85Z" fill="#6EBE49"/>
<path d="M119.45 18.85H109.054V0.799988H119.45C133.929 0.799988 134.08 4.03186 134.08 9.8223C134.08 15.6127 133.929 18.85 119.45 18.85ZM131.548 3.41242C129.684 1.87728 126.043 1.21474 119.294 1.21474H109.884V18.4083H119.294C126.065 18.4083 129.684 17.735 131.548 16.2106C133.562 14.5301 133.255 11.5567 133.255 9.8223C133.255 8.08786 133.584 5.10915 131.548 3.41242Z" fill="#6EBE49" stroke="#6EBE49" stroke-width="0.6"/>
<path d="M151.402 10.1347C152.742 10.5718 153.976 11.2856 155.022 12.23L162.832 18.85H161.798L153.939 12.2031C152.386 10.8263 150.375 10.079 148.3 10.1078H140.441V18.85H139.617V0.799988H151.559C158.179 0.799988 162.671 2.11967 162.671 5.45388C162.671 8.45414 159.008 9.95696 151.402 10.1347ZM151.559 1.24168H140.441V9.69302H151.559C157.198 9.69302 161.793 8.71269 161.793 5.45388C161.793 2.19508 157.144 1.24168 151.559 1.24168Z" fill="#6EBE49" stroke="#6EBE49" stroke-width="0.6"/>
<path d="M170.535 18.85H169.711V0.799988H170.535V18.85Z" fill="#6EBE49" stroke="#6EBE49" stroke-width="0.6"/>
<path d="M201.249 0.799988L188.994 18.85H187.497L175.243 0.799988H176.137L188.235 18.4352L200.376 0.799988H201.249Z" fill="#6EBE49" stroke="#6EBE49" stroke-width="0.6"/>
<path d="M226.899 18.85H204.718V0.799988H226.899V1.21474H205.547V9.29442H224.211V9.65532H205.547V18.4352H226.899V18.85Z" fill="#6EBE49" stroke="#6EBE49" stroke-width="0.6"/>
</svg>