<svg height="20" width="340"
	xmlns="http://www.w3.org/2000/svg" >
	<defs>
		<style>.cls-1{fill:#6abf4b;}</style>
	</defs>
	<g id="Layer_2" data-name="Layer 2">
		<g id="Layer_1-2" data-name="Layer 1">
			<path class="cls-1" d="M119.49,8v4.31H98.16V15.8h21.6v4.59H92.52V.15h27.24v4.6H98.16V8Z"/>
			<path class="cls-1" d="M25.73,15.74v4.65H0V.15H5.75V15.74Z"/>
			<path class="cls-1" d="M47.86.15h7.29V.24L41.33,12.38v8H35.57v-8L21.78.24V.15h7.69l9.2,8.24Z"/>
			<path class="cls-1" d="M76.23,20.39H69.15L55.18.15h7L72.82,16.09,83.52.15H90.2Z"/>
			<polygon class="cls-1" points="232.93 20.49 232.93 0.06 258.81 0.06 258.81 1.97 235.1 1.97 235.1 9.22 258.59 9.22 258.59 11.1 235.1 11.1 235.1 18.58 258.81 18.58 258.81 20.49 232.93 20.49"/>
			<path class="cls-1" d="M126.75,20.49V.06h13.48c6,0,10.22,1.1,12.42,3.26a9.48,9.48,0,0,1,2.69,7,9.49,9.49,0,0,1-2.69,7c-2.2,2.16-6.38,3.26-12.42,3.26Zm13.45-1.91c6.77,0,9.64-1.45,10.85-2.66a7.55,7.55,0,0,0,2.09-5.65,7.54,7.54,0,0,0-2.09-5.64C149.84,3.42,147,2,140.2,2H128.92V18.58Z"/>
			<path class="cls-1" d="M186.44,20.49l-12.66-7.55H162v7.55h-2.18V.06h16.38c6.09,0,8,.71,9.32,2a5.79,5.79,0,0,1,1.61,4.32,5.78,5.78,0,0,1-1.6,4.29c-1.1,1.1-2.87,2.12-8.22,2.23l12.28,7.26v.3h-3.17Zm-10.25-9.44c5.36,0,6.9-.8,7.76-1.66a4,4,0,0,0,1-2.95,4,4,0,0,0-1.09-3C182.81,2.35,180.81,2,176.22,2H162v9.08Z"/>
			<rect class="cls-1" x="193.14" y="0.06" width="2.14" height="20.43"/>
			<polygon class="cls-1" points="213.31 20.61 198.45 0.06 201.09 0.06 214.58 18.87 228.11 0.06 230.69 0.06 215.8 20.61 213.31 20.61"/>
			<path class="cls-1" d="M264.27.6H263V4.13h-.67V.6H261V.06h3.23Zm5.31,3.53h-.67V.73h0l-1.34,3.4h-.42L265.79.73h0v3.4h-.67V.06h1l1.22,3.09L268.55.06h1Z"/>
			<path class="cls-1" d="M279.09,0h9.63C292.57,0,295,2.09,295,5.36c0,2.47-1.09,4.5-3.56,5.19v.06c2.38.46,2.87,2.21,3.07,4.21s.06,4.25,1.2,5.65h-3c-.77-.83-.34-3-.74-5s-.78-3.7-3.41-3.7h-6.66v8.74h-2.72Zm8.4,9.43c2.55,0,4.73-.66,4.73-3.64,0-2-1.09-3.5-3.64-3.5h-6.77V9.43Z"/>
			<path class="cls-1" d="M310.75,20.42a3.38,3.38,0,0,1-1.75.4c-1.27,0-2.07-.69-2.07-2.3a6.57,6.57,0,0,1-5.22,2.3c-2.69,0-4.9-1.21-4.9-4.16,0-3.35,2.49-4.07,5-4.56,2.69-.52,5-.34,5-2.18,0-2.12-1.75-2.47-3.3-2.47-2.07,0-3.59.64-3.7,2.81h-2.44c.15-3.67,3-5,6.28-5,2.67,0,5.57.61,5.57,4.08V17c0,1.15,0,1.67.77,1.67a2.05,2.05,0,0,0,.75-.15Zm-4-7.6c-1,.69-2.78.71-4.42,1s-3,.86-3,2.67c0,1.6,1.38,2.18,2.87,2.18,3.21,0,4.53-2,4.53-3.36Z"/>
			<path class="cls-1" d="M322.36,10.41a3.45,3.45,0,0,0-3.67-3c-3.53,0-4.62,2.79-4.62,5.8,0,2.72,1.23,5.42,4.33,5.42a3.83,3.83,0,0,0,4.07-3.62H325c-.55,3.62-2.81,5.77-6.54,5.77-4.53,0-6.94-3.16-6.94-7.57s2.29-7.95,7-7.95c3.35,0,6.05,1.58,6.39,5.11Z"/>
			<path class="cls-1" d="M327.12,0h2.43V12.13l6.77-6.48h3.27L333.71,11,340,20.47h-3.1l-5.07-7.74-2.3,2.12v5.62h-2.43Z"/>
		</g>
	</g>
</svg>