<svg width="50" height="50" viewBox="0 0 50 50" fill="none" xmlns="http://www.w3.org/2000/svg">
<rect x="0.500244" y="0.5" width="49" height="49" rx="3.5" fill="white" stroke="#DC1F2E"/>
<path d="M32.4125 16.0185L34.9564 13.3333L37.5002 16.0185" stroke="#EB5757" stroke-width="2" stroke-linecap="round"/>
<path d="M19.9652 33.4722C19.9652 35.196 18.6542 36.5 17.1494 36.5C15.6445 36.5 14.3336 35.196 14.3336 33.4722C14.3336 31.7484 15.6445 30.4444 17.1494 30.4444C18.6542 30.4444 19.9652 31.7484 19.9652 33.4722Z" stroke="#EB5757" stroke-width="2"/>
<mask id="path-4-inside-1" fill="white">
<rect x="20.9651" y="18.7037" width="10.1754" height="10.7407" rx="1"/>
</mask>
<rect x="20.9651" y="18.7037" width="10.1754" height="10.7407" rx="1" stroke="#EB5757" stroke-width="4" mask="url(#path-4-inside-1)"/>
<path d="M17.1494 30.787L17.1494 18.7037C17.1494 17.2794 17.6184 15.9134 18.4533 14.9063C19.2881 13.8991 20.4204 13.3333 21.6011 13.3333C22.7818 13.3333 23.9141 13.8991 24.749 14.9063C25.5838 15.9134 26.0529 17.2794 26.0529 18.7037V19.3004" stroke="#EB5757" stroke-width="2"/>
<path d="M34.9564 14.6759L34.9564 29.4444C34.9564 30.8688 34.4874 32.2347 33.6525 33.2419C32.8177 34.249 31.6853 34.8148 30.5047 34.8148C29.324 34.8148 28.1917 34.249 27.3568 33.2419C26.5219 32.2347 26.0529 30.8688 26.0529 29.4444L26.0529 28.8477" stroke="#EB5757" stroke-width="2"/>
</svg>
