<svg width="88" height="19" viewBox="0 0 88 19" fill="none" xmlns="http://www.w3.org/2000/svg">
    <path d="M27.5134 0.551402H22.5246C22.4649 0.551402 22.4077 0.574991 22.3655 0.61698C22.3233 0.65897 22.2996 0.715919 22.2996 0.775302L22.2678 13.9519H13.8655C10.2111 13.9213 8.2511 13.5001 7.30925 12.5414C6.90987 12.109 6.60639 11.5979 6.4185 11.0412C6.23062 10.4845 6.16254 9.89472 6.21868 9.31015V0.223934C6.21869 0.194197 6.21274 0.164756 6.20118 0.137331C6.18962 0.109905 6.17269 0.0850458 6.15137 0.0642023C6.13005 0.0433588 6.10477 0.026949 6.07701 0.0159318C6.04924 0.00491459 6.01955 -0.000489248 5.98966 3.47692e-05H0.972074C0.912467 0.000294301 0.855375 0.0239678 0.813226 0.0659011C0.771076 0.107834 0.747282 0.164632 0.747021 0.223934V10.2136C0.684546 11.1944 0.83367 12.177 1.18439 13.0957C1.5351 14.0143 2.07929 14.8477 2.78043 15.5399C4.82573 17.5747 8.34826 18.5364 13.8665 18.566H27.5134C27.5727 18.5663 27.6297 18.5434 27.6722 18.5022C27.7147 18.4611 27.7392 18.405 27.7405 18.3461V0.775302C27.7404 0.745769 27.7344 0.716552 27.7229 0.689317C27.7114 0.662081 27.6947 0.637363 27.6736 0.616572C27.6525 0.595781 27.6275 0.579324 27.6 0.568142C27.5725 0.55696 27.5431 0.551272 27.5134 0.551402Z" fill="#6EBE49" />
    <path d="M56.1646 9.56467C56.1995 8.45983 56.0147 7.35902 55.6211 6.32535C55.2274 5.29168 54.6325 4.3455 53.8705 3.54106C52.0552 1.73605 49.4874 0.533691 42.8498 0.533691H29.4081C29.341 0.533691 29.2768 0.560191 29.2293 0.60736C29.1819 0.654528 29.1553 0.718504 29.1553 0.785211V18.3422C29.1553 18.3752 29.1618 18.4079 29.1745 18.4384C29.1872 18.4689 29.2059 18.4966 29.2293 18.52C29.2528 18.5434 29.2807 18.5619 29.3113 18.5745C29.342 18.5872 29.3749 18.5937 29.4081 18.5937H42.8498C49.4923 18.5937 52.0571 17.3903 53.8705 15.5843C54.6324 14.7806 55.2272 13.8351 55.6209 12.8021C56.0146 11.7691 56.1994 10.6689 56.1646 9.56467ZM50.5403 9.56467C50.5775 10.114 50.4998 10.6651 50.3121 11.1831C50.1244 11.7011 49.8307 12.1747 49.4497 12.574C48.5088 13.5081 47.0257 14.1305 42.8448 14.1305H34.6745V4.99888H42.8448C47.0267 4.99888 48.5088 5.62225 49.4497 6.5573C49.8256 6.95976 50.1159 7.43357 50.3033 7.95033C50.4907 8.46709 50.5713 9.01617 50.5403 9.56467Z" fill="#6EBE49" />
    <path d="M82.4114 18.0748L71.5622 9.39498L82.1576 1.06135C82.188 1.03807 82.2128 1.00822 82.23 0.974053C82.2471 0.939882 82.2563 0.90228 82.2567 0.864079V0.789117C82.2567 0.72241 82.2301 0.658435 82.1827 0.611266C82.1353 0.564097 82.071 0.537598 82.0039 0.537598H75.3227C75.2642 0.537659 75.2074 0.557874 75.1621 0.594808L67.7086 6.68253L60.4553 0.597766C60.4099 0.55954 60.3523 0.538576 60.2927 0.538587H52.98C52.913 0.538587 52.8487 0.565083 52.8013 0.612252C52.7539 0.65942 52.7272 0.723396 52.7272 0.790103V0.865065C52.7276 0.903279 52.7367 0.940906 52.7539 0.975087C52.7711 1.00927 52.7958 1.03911 52.8263 1.06233L63.5466 9.64354L52.8016 18.0797C52.7711 18.103 52.7463 18.1328 52.7291 18.167C52.7119 18.2012 52.7028 18.2388 52.7024 18.277V18.352C52.7024 18.4187 52.729 18.4827 52.7765 18.5298C52.8239 18.577 52.8882 18.6035 52.9552 18.6035H59.6394C59.6979 18.6034 59.7546 18.5832 59.8 18.5463L67.3794 12.357L74.7834 18.5443C74.8288 18.5826 74.8864 18.6036 74.946 18.6035H82.2587C82.3257 18.6035 82.39 18.577 82.4374 18.5298C82.4849 18.4827 82.5115 18.4187 82.5115 18.352V18.277C82.5118 18.2379 82.5029 18.1992 82.4855 18.1641C82.4681 18.129 82.4427 18.0984 82.4114 18.0748Z" fill="#6EBE49" />
    <path d="M84.8431 0.970669H84.159V2.90095H83.5642V0.970669H82.8811V0.506104H84.8442L84.8431 0.970669ZM87.9393 2.90095H87.3782V1.20345H87.3663L86.7466 2.90095H86.3432L85.7235 1.20345H85.7117V2.90095H85.1505V0.506104H85.9436L86.5454 2.08425L87.1472 0.506104H87.9404L87.9393 2.90095Z" fill="#6EBE49" />
</svg>