<svg width="60" height="60" viewBox="0 0 60 60" fill="none" xmlns="http://www.w3.org/2000/svg">
<circle cx="30" cy="30" r="26" fill="#00A1DD" fill-opacity="0.18" stroke="#E3F8FF" stroke-width="8"/>
<path d="M30 43C37.1797 43 43 37.1797 43 30C43 22.8203 37.1797 17 30 17C22.8203 17 17 22.8203 17 30C17 37.1797 22.8203 43 30 43Z" fill="#00A1DD"/>
<path fill-rule="evenodd" clip-rule="evenodd" d="M30.4002 21.7372C26.1622 21.7372 22.7267 25.2372 22.7267 29.5546V29.5958L22.7228 29.6369C22.599 30.9619 23.0373 34.2128 25.7837 36.2335C26.1654 36.5144 26.2514 37.0573 25.9757 37.4462C25.7 37.8351 25.167 37.9227 24.7853 37.6418C21.4204 35.166 20.8737 31.2514 21.0215 29.5143C21.0428 24.256 25.2336 20 30.4002 20C35.5799 20 39.7789 24.2777 39.7789 29.5546C39.7789 30.0343 39.3972 30.4232 38.9263 30.4232C38.4554 30.4232 38.0737 30.0343 38.0737 29.5546C38.0737 25.2372 34.6381 21.7372 30.4002 21.7372Z" fill="white"/>
<path fill-rule="evenodd" clip-rule="evenodd" d="M30.5913 20C31.1799 20 31.6571 20.4861 31.6571 21.0857V23.2572C31.6571 23.8569 31.1799 24.343 30.5913 24.343C30.0027 24.343 29.5256 23.8569 29.5256 23.2572V21.0857C29.5256 20.4861 30.0027 20 30.5913 20Z" fill="white"/>
<path fill-rule="evenodd" clip-rule="evenodd" d="M23.9475 22.7765C24.3984 22.391 25.0706 22.451 25.449 22.9103L26.8191 24.5738C27.1974 25.0331 27.1386 25.718 26.6877 26.1034C26.2368 26.4888 25.5646 26.4289 25.1862 25.9696L23.8161 24.3061C23.4378 23.8468 23.4966 23.1619 23.9475 22.7765Z" fill="white"/>
<path fill-rule="evenodd" clip-rule="evenodd" d="M24.9352 37.6899C24.519 37.2659 24.519 36.5785 24.9352 36.1545L26.4425 34.619C26.8587 34.195 27.5335 34.195 27.9497 34.619C28.3659 35.043 28.3659 35.7305 27.9497 36.1545L26.4425 37.6899C26.0263 38.114 25.3515 38.114 24.9352 37.6899Z" fill="white"/>
<path fill-rule="evenodd" clip-rule="evenodd" d="M30.3949 30.0151C30.0526 29.5994 30.2244 28.8784 30.7786 28.4046L33.5887 26.0024C34.143 25.5286 34.8698 25.4815 35.2122 25.8971C35.5545 26.3128 35.3827 27.0338 34.8285 27.5076L32.0184 29.9098C31.4641 30.3836 30.7372 30.4307 30.3949 30.0151Z" fill="white"/>
<path fill-rule="evenodd" clip-rule="evenodd" d="M21.3329 30.6444C21.2816 30.0471 21.7153 29.5205 22.3017 29.4682L24.4251 29.2789C25.0115 29.2267 25.5284 29.6686 25.5797 30.2659C25.631 30.8633 25.1973 31.3899 24.6109 31.4422L22.4875 31.6314C21.9011 31.6837 21.3842 31.2418 21.3329 30.6444Z" fill="white"/>
<path d="M32.7 29.7866C32.7 30.8837 31.827 31.7731 30.75 31.7731C29.6731 31.7731 28.8 30.8837 28.8 29.7866C28.8 28.6894 29.6731 27.8 30.75 27.8C31.827 27.8 32.7 28.6894 32.7 29.7866Z" fill="white"/>
<path fill-rule="evenodd" clip-rule="evenodd" d="M34.4548 37.7652C34.1647 37.4696 34.1994 36.955 34.5323 36.6158L37.2453 33.852C37.5783 33.5128 38.0834 33.4774 38.3736 33.773C38.6637 34.0686 38.629 34.5832 38.2961 34.9224L35.5831 37.6863C35.2501 38.0255 34.745 38.0608 34.4548 37.7652Z" fill="white"/>
<path fill-rule="evenodd" clip-rule="evenodd" d="M28.3356 39.3793C28.0536 39.0759 28.1021 38.5626 28.444 38.2327L32.1586 34.6494C32.5005 34.3195 33.0063 34.2981 33.2883 34.6015C33.5703 34.9049 33.5217 35.4182 33.1798 35.748L29.4653 39.3314C29.1234 39.6613 28.6176 39.6827 28.3356 39.3793Z" fill="white"/>
<path fill-rule="evenodd" clip-rule="evenodd" d="M32.3149 34.75C32.5965 34.4462 33.1023 34.467 33.4446 34.7964L35.3038 36.5855C35.646 36.9149 35.6952 37.4281 35.4136 37.7319C35.1319 38.0356 34.6261 38.0148 34.2839 37.6854L32.4247 35.8963C32.0824 35.5669 32.0332 35.0537 32.3149 34.75Z" fill="white"/>
<path d="M38.8446 32.0199C39.4207 31.8813 39.9567 32.3681 39.8874 32.967L39.6124 35.3427C39.5317 36.0405 38.7132 36.3569 38.1983 35.8893L36.188 34.0636C35.6732 33.596 35.8881 32.7314 36.5594 32.5699L38.8446 32.0199Z" fill="white"/>
</svg>
