<svg width="60" height="60" viewBox="0 0 60 60" fill="none" xmlns="http://www.w3.org/2000/svg">
<circle cx="30" cy="30" r="26" fill="#DC1F2E" fill-opacity="0.1" stroke="#FDF4F5" stroke-width="8"/>
<path d="M30 43C37.1797 43 43 37.1797 43 30C43 22.8203 37.1797 17 30 17C22.8203 17 17 22.8203 17 30C17 37.1797 22.8203 43 30 43Z" fill="#DC1F2E" stroke="#DC1F2E" stroke-width="2" stroke-linecap="round" stroke-linejoin="round"/>
<path fill-rule="evenodd" clip-rule="evenodd" d="M29.9002 21.7372C25.6622 21.7372 22.2267 25.2372 22.2267 29.5546V29.5958L22.2228 29.6369C22.099 30.9619 22.5373 34.2128 25.2837 36.2335C25.6654 36.5144 25.7514 37.0573 25.4757 37.4462C25.2 37.8351 24.667 37.9227 24.2853 37.6418C20.9204 35.166 20.3737 31.2514 20.5215 29.5143C20.5428 24.256 24.7336 20 29.9002 20C35.0799 20 39.2789 24.2777 39.2789 29.5546C39.2789 30.0343 38.8972 30.4232 38.4263 30.4232C37.9554 30.4232 37.5737 30.0343 37.5737 29.5546C37.5737 25.2372 34.1381 21.7372 29.9002 21.7372Z" fill="white"/>
<path fill-rule="evenodd" clip-rule="evenodd" d="M30.0913 20C30.6799 20 31.1571 20.4861 31.1571 21.0857V23.2572C31.1571 23.8569 30.6799 24.343 30.0913 24.343C29.5027 24.343 29.0256 23.8569 29.0256 23.2572V21.0857C29.0256 20.4861 29.5027 20 30.0913 20Z" fill="white"/>
<path fill-rule="evenodd" clip-rule="evenodd" d="M23.4475 22.7765C23.8984 22.391 24.5706 22.451 24.949 22.9103L26.3191 24.5738C26.6974 25.0331 26.6386 25.718 26.1877 26.1034C25.7368 26.4888 25.0646 26.4289 24.6862 25.9696L23.3161 24.3061C22.9378 23.8468 22.9966 23.1619 23.4475 22.7765Z" fill="white"/>
<path fill-rule="evenodd" clip-rule="evenodd" d="M24.4352 37.6899C24.019 37.2659 24.019 36.5785 24.4352 36.1545L25.9425 34.619C26.3587 34.195 27.0335 34.195 27.4497 34.619C27.8659 35.043 27.8659 35.7305 27.4497 36.1545L25.9425 37.6899C25.5263 38.114 24.8515 38.114 24.4352 37.6899Z" fill="white"/>
<path fill-rule="evenodd" clip-rule="evenodd" d="M34.1557 34.3452C34.4663 34.6192 34.4686 35.135 34.1609 35.4972L31.6532 38.4486C31.3454 38.8109 30.8441 38.8824 30.5335 38.6083C30.2229 38.3343 30.2206 37.8186 30.5283 37.4563L33.036 34.5049C33.3438 34.1427 33.8451 34.0712 34.1557 34.3452Z" fill="white"/>
<path fill-rule="evenodd" clip-rule="evenodd" d="M39.9697 32.1047C40.2728 32.387 40.2612 32.9025 39.9438 33.2561L36.496 37.0967C36.1786 37.4503 35.6757 37.5079 35.3726 37.2256C35.0696 36.9432 35.0812 36.4277 35.3985 36.0742L38.8464 32.2335C39.1637 31.88 39.6667 31.8223 39.9697 32.1047Z" fill="white"/>
<path fill-rule="evenodd" clip-rule="evenodd" d="M36.3826 37.1909C36.1256 37.5157 35.6197 37.5345 35.2528 37.2329L33.2594 35.5946C32.8924 35.2929 32.8033 34.7851 33.0603 34.4603C33.3174 34.1355 33.8232 34.1167 34.1902 34.4183L36.1836 36.0566C36.5505 36.3582 36.6397 36.866 36.3826 37.1909Z" fill="white"/>
<path d="M30.0599 40.2551C29.521 40.4265 28.9774 39.9998 29.0024 39.4249L29.1014 37.1444C29.1305 36.4745 29.888 36.1172 30.4102 36.5271L32.4491 38.1276C32.9713 38.5375 32.8259 39.3752 32.1978 39.575L30.0599 40.2551Z" fill="white"/>
<path fill-rule="evenodd" clip-rule="evenodd" d="M29.8949 30.0151C29.5526 29.5994 29.7244 28.8784 30.2786 28.4046L33.0887 26.0024C33.643 25.5286 34.3698 25.4815 34.7122 25.8971C35.0545 26.3128 34.8827 27.0338 34.3285 27.5076L31.5184 29.9098C30.9641 30.3836 30.2372 30.4307 29.8949 30.0151Z" fill="white"/>
<path fill-rule="evenodd" clip-rule="evenodd" d="M20.8329 30.6444C20.7816 30.0471 21.2153 29.5205 21.8017 29.4682L23.9251 29.2789C24.5115 29.2267 25.0284 29.6686 25.0797 30.2659C25.131 30.8633 24.6973 31.3899 24.1109 31.4422L21.9875 31.6314C21.4011 31.6837 20.8842 31.2418 20.8329 30.6444Z" fill="white"/>
<path d="M32.2 29.7866C32.2 30.8837 31.327 31.7731 30.25 31.7731C29.1731 31.7731 28.3 30.8837 28.3 29.7866C28.3 28.6894 29.1731 27.8 30.25 27.8C31.327 27.8 32.2 28.6894 32.2 29.7866Z" fill="white"/>
</svg>
