<svg width="60" height="60" viewBox="0 0 60 60" fill="none" xmlns="http://www.w3.org/2000/svg">
<circle cx="30" cy="30" r="26" fill="#00A1DD" fill-opacity="0.18" stroke="#E3F8FF" stroke-width="8"/>
<path d="M30 43C37.1797 43 43 37.1797 43 30C43 22.8203 37.1797 17 30 17C22.8203 17 17 22.8203 17 30C17 37.1797 22.8203 43 30 43Z" fill="#00A1DD"/>
<line x1="26.5" y1="26.5" x2="32.5" y2="26.5" stroke="white" stroke-linecap="round"/>
<line x1="26.5" y1="35.5" x2="30.5" y2="35.5" stroke="white" stroke-linecap="round"/>
<line x1="26.5" y1="32.5" x2="30" y2="32.5" stroke="white" stroke-linecap="round"/>
<line x1="26.5" y1="29.5" x2="30" y2="29.5" stroke="white" stroke-linecap="round"/>
<path d="M36 36V37C36 37.5523 35.5523 38 35 38H25C24.4477 38 24 37.5523 24 37V23C24 22.4477 24.4477 22 25 22H32.4678C32.7256 22 32.9735 22.0996 33.1597 22.278L35.6919 24.7047C35.8887 24.8934 36 25.1541 36 25.4267V27" stroke="white" stroke-width="1.4"/>
<path d="M35.5455 34.0857L39.7341 29.1092C39.8184 29.0123 39.8853 28.8973 39.9309 28.7707C39.9765 28.6441 40 28.5084 40 28.3714C40 28.2344 39.9765 28.0987 39.9309 27.9722C39.8853 27.8456 39.66 27.554 39.5758 27.4571C39.4915 27.3603 39.1848 27.1319 39.0747 27.0794C38.9645 27.027 38.8465 27 38.7273 27C38.6081 27 38.49 27.027 38.3799 27.0794C38.2698 27.1319 38.1697 27.2087 38.0854 27.3056L33.8485 32.2571M35.5455 34.0857L33 35L33.8485 32.2571M35.5455 34.0857L33.8485 32.2571" stroke="white" stroke-width="0.9" stroke-linecap="round" stroke-linejoin="round"/>
</svg>
