<svg width="33" height="31" viewBox="0 0 33 31" fill="none" xmlns="http://www.w3.org/2000/svg">
<path d="M1 1H20C21.6569 1 23 2.34315 23 4V20.5053C23 22.1621 21.6569 23.5053 20 23.5053H4C2.34315 23.5053 1 22.1621 1 20.5053V1Z" fill="white" stroke="#F2994A" stroke-width="2"/>
<circle cx="24" cy="22" r="8.25" fill="white" stroke="#F2994A" stroke-width="1.5"/>
<path d="M26.1246 22.5174L27.1603 22.7201C27.171 23.2209 27.5915 23.6184 28.0995 23.6078C28.6074 23.5972 29.0105 23.1826 28.9998 22.6818C28.9891 22.1809 28.5686 21.7835 28.0606 21.794C27.7039 21.8015 27.3836 22.0116 27.239 22.3333L26.1765 22.1253C26.1754 21.742 26.0241 21.3739 25.7542 21.0979L27.1294 19.1825C27.7094 19.4544 28.4032 19.2112 28.679 18.6393C28.9548 18.0674 28.7082 17.3833 28.1281 17.1114C27.5481 16.8394 26.8543 17.0826 26.5785 17.6545C26.368 18.0911 26.4577 18.611 26.803 18.9543L25.4411 20.8512C24.8147 20.4803 24.0089 20.605 23.5278 21.1471L21.7399 19.778C21.9746 19.3326 21.7986 18.7839 21.3469 18.5525C20.8952 18.3211 20.3387 18.4946 20.104 18.94C19.8693 19.3854 20.0452 19.9341 20.497 20.1655C20.8144 20.3281 21.1986 20.295 21.4825 20.0805L23.3049 21.476C23.0021 22.086 23.1565 22.8207 23.6801 23.2619L22.5725 24.8059C21.9862 24.4551 21.2224 24.6393 20.8666 25.2175C20.5107 25.7956 20.6976 26.5487 21.284 26.8996C21.8703 27.2504 22.6341 27.0662 22.9899 26.488C23.2665 26.0387 23.2214 25.4655 22.8779 25.0636L24.0153 23.4776C24.4044 23.66 24.854 23.67 25.2511 23.5049L26.6007 25.4706C26.2037 25.8844 26.2222 26.5371 26.6418 26.9285C27.0615 27.3198 27.7235 27.3017 28.1204 26.8879C28.5173 26.4741 28.4989 25.8214 28.0792 25.43C27.7698 25.1415 27.3138 25.0667 26.9263 25.2411L25.5962 23.3037C25.8537 23.1047 26.0392 22.8289 26.1246 22.5174Z" fill="#F2994A" stroke="#F2994A" stroke-width="0.7"/>
<path d="M17.1434 12.1276C17.1434 12.6505 16.856 13.1249 16.3746 13.3966L10.1463 16.9115C9.89163 17.0552 9.60334 17.1274 9.31487 17.1274C9.04454 17.1274 8.77408 17.064 8.53059 16.937C8.02742 16.6743 7.71484 16.1783 7.71484 15.6425V8.61274C7.71484 8.07691 8.02742 7.58089 8.53059 7.31825C9.03381 7.05557 9.653 7.06532 10.1463 7.34376L16.3746 10.8586C16.856 11.1303 17.1434 11.6047 17.1434 12.1276ZM15.1662 12.1276L9.51076 8.93597V15.3192L15.1662 12.1276Z" fill="#F2994A"/>
</svg>
