<svg width="20" height="20" viewBox="0 0 28 28" fill="none" xmlns="http://www.w3.org/2000/svg">
<path d="M21.1538 11H12.8462C11.8266 11 11 11.8266 11 12.8462V21.1538C11 22.1734 11.8266 23 12.8462 23H21.1538C22.1734 23 23 22.1734 23 21.1538V12.8462C23 11.8266 22.1734 11 21.1538 11Z" stroke="#6EBE49" stroke-width="2" stroke-linecap="round" stroke-linejoin="round"/>
<path d="M8 16H7.62963C7.19743 16 6.78292 15.8068 6.47731 15.463C6.17169 15.1192 6 14.6529 6 14.1667V6.83333C6 6.3471 6.17169 5.88079 6.47731 5.53697C6.78292 5.19315 7.19743 5 7.62963 5H15.3704C15.8026 5 16.2171 5.19315 16.5227 5.53697C16.8283 5.88079 17 6.3471 17 6.83333V8" stroke="#6EBE49" stroke-width="2" stroke-linecap="round" stroke-linejoin="round"/>
</svg>
