<svg width="5" height="20" viewBox="0 0 5 20" fill="none" xmlns="http://www.w3.org/2000/svg">
<path d="M1.89474 10C1.89474 10.5523 2.36602 11 2.94737 11C3.52872 11 4 10.5523 4 10C4 9.44772 3.52872 9 2.94737 9C2.36602 9 1.89474 9.44772 1.89474 10Z" fill="#6EBE49" stroke="#828282" stroke-width="2" stroke-linecap="round" stroke-linejoin="round"/>
<path d="M1.89474 18C1.89474 18.5523 2.36602 19 2.94737 19C3.52872 19 4 18.5523 4 18C4 17.4477 3.52872 17 2.94737 17C2.36602 17 1.89474 17.4477 1.89474 18Z" fill="#6EBE49" stroke="#828282" stroke-width="2" stroke-linecap="round" stroke-linejoin="round"/>
<path d="M1.89474 2C1.89474 2.55228 2.36602 3 2.94737 3C3.52872 3 4 2.55228 4 2C4 1.44772 3.52872 1 2.94737 1C2.36602 1 1.89474 1.44772 1.89474 2Z" fill="#6EBE49" stroke="#828282" stroke-width="2" stroke-linecap="round" stroke-linejoin="round"/>
</svg>
