<svg width="33" height="32" viewBox="0 0 33 32" fill="none" xmlns="http://www.w3.org/2000/svg">
<path d="M1 1H20C21.6569 1 23 2.34315 23 4V20C23 21.6569 21.6569 23 20 23H4C2.34315 23 1 21.6569 1 20V1Z" fill="white" stroke="#6EBE49" stroke-width="2"/>
<circle cx="24" cy="23" r="8.25" fill="white" stroke="#6EBE49" stroke-width="1.5"/>
<path d="M25.4123 23.6341C25.5145 23.6341 25.6145 23.6362 25.7127 23.6398C25.7728 23.6422 25.8307 23.6463 25.8892 23.6499C25.9254 23.6522 25.9627 23.6536 25.9983 23.6563C26.0761 23.6622 26.1517 23.67 26.2265 23.6782C26.2406 23.6798 26.2553 23.6808 26.2692 23.6824C26.3548 23.6923 26.4382 23.7037 26.5195 23.7163C26.5216 23.7165 26.5237 23.7168 26.5258 23.7172C26.9439 23.7826 27.3028 23.8825 27.5833 24.0011C27.5848 24.0016 27.5863 24.0022 27.5877 24.0029C27.6395 24.0249 27.688 24.0477 27.7342 24.0708C27.7396 24.0736 27.7452 24.0762 27.7506 24.0789C27.7921 24.1001 27.8305 24.1219 27.8673 24.144C27.8759 24.1492 27.8851 24.1543 27.8935 24.1597C27.9255 24.1796 27.9546 24.1999 27.9825 24.2203C27.9932 24.2281 28.0042 24.236 28.0143 24.2438C28.0379 24.2623 28.059 24.2809 28.0793 24.2996C28.0903 24.3099 28.1012 24.3201 28.1114 24.3305C28.1279 24.3475 28.1425 24.3646 28.1562 24.3818C28.1659 24.3938 28.1751 24.406 28.1833 24.418C28.1941 24.4341 28.2034 24.4502 28.2117 24.4663C28.2184 24.4793 28.2243 24.4922 28.2293 24.5052C28.2354 24.521 28.2402 24.5369 28.2437 24.5526C28.2484 24.5734 28.2534 24.5946 28.2534 24.6157V25.6898C28.25 25.6864 28.2457 25.6831 28.2421 25.6797C28.215 25.6547 28.1877 25.6297 28.1568 25.6056C27.6915 25.2326 26.761 24.9428 25.4123 24.9428C24.0692 24.9428 23.1411 25.2303 22.6738 25.6009C22.6365 25.6297 22.6029 25.6594 22.5713 25.6896L22.5712 25.2046C22.5712 25.1322 22.5159 25.0737 22.4476 25.0737C22.3793 25.0737 22.3241 25.1322 22.3241 25.2046V26.1207V26.1862V27.7567V27.8221C22.3241 27.8459 22.3318 27.867 22.3421 27.8862C22.4852 28.4477 23.5499 29 25.4123 29C27.2747 29 28.3395 28.4477 28.4825 27.8862C28.4928 27.867 28.5005 27.8459 28.5005 27.8221V27.7567V26.1862V26.1207V24.6157V24.5502V22.9797C28.5005 22.9586 28.4953 22.9387 28.4863 22.9211C28.3456 22.2886 27.1656 21.916 26.0392 21.8264C26.0361 21.8262 26.0329 21.826 26.0298 21.826C25.9657 21.826 25.9116 21.8783 25.9068 21.9471C25.9017 22.0192 25.9526 22.082 26.0207 22.0874C27.3936 22.1966 28.1936 22.6394 28.2495 23.0009C28.2505 23.0068 28.2517 23.0124 28.2534 23.0181V24.1192C28.25 24.1158 28.2457 24.1126 28.2421 24.1092C28.215 24.0842 28.1877 24.0592 28.1568 24.0351C27.6915 23.6621 26.761 23.3723 25.4123 23.3723C25.344 23.3723 25.2888 23.4308 25.2888 23.5032C25.2888 23.5756 25.344 23.6341 25.4123 23.6341ZM28.1792 27.1943C28.1421 27.1634 28.1021 27.1329 28.0588 27.1032C28.0497 27.0971 28.0396 27.091 28.0302 27.0849C27.9939 27.0609 27.9555 27.0375 27.9151 27.0145C27.9001 27.006 27.8852 26.9976 27.8696 26.9892C27.8245 26.9649 27.7772 26.9413 27.7275 26.9183C27.7193 26.9145 27.7119 26.9106 27.7037 26.9069C27.6458 26.8809 27.5843 26.856 27.5202 26.832C27.5025 26.8254 27.484 26.8191 27.4658 26.8125C27.4149 26.7943 27.3623 26.7769 27.3078 26.7601C27.2882 26.754 27.2689 26.7478 27.2488 26.7419C27.1765 26.7207 27.1019 26.7005 27.0236 26.6819C27.0128 26.6793 27.0012 26.6771 26.9904 26.6746C26.9213 26.6586 26.8497 26.6438 26.776 26.6301C26.7511 26.6254 26.7258 26.6209 26.7003 26.6165C26.6303 26.6043 26.5581 26.5931 26.4841 26.5829C26.4651 26.5802 26.4468 26.5774 26.4277 26.5747C26.3358 26.563 26.2408 26.5529 26.143 26.5442C26.1189 26.5422 26.0938 26.5406 26.0693 26.5387C25.9911 26.5327 25.9112 26.5278 25.8295 26.5238C25.7997 26.5224 25.77 26.521 25.7396 26.5199C25.6332 26.5161 25.5247 26.5134 25.4123 26.5134C25.2999 26.5134 25.1914 26.5161 25.085 26.5199C25.0547 26.521 25.025 26.5225 24.9951 26.5238C24.9134 26.5278 24.8334 26.5327 24.7553 26.5387C24.7308 26.5407 24.7057 26.5422 24.6816 26.5442C24.5839 26.5528 24.4888 26.563 24.3969 26.5747C24.3776 26.5772 24.3595 26.5802 24.3405 26.5829C24.2665 26.5931 24.1944 26.6043 24.1243 26.6165C24.0988 26.6209 24.0735 26.6254 24.0486 26.6301C23.9749 26.6438 23.9033 26.6586 23.8342 26.6746C23.8234 26.6771 23.8118 26.6793 23.801 26.6819C23.7227 26.7005 23.6481 26.7207 23.5758 26.7419C23.5557 26.7478 23.5364 26.7539 23.5168 26.7601C23.4623 26.7768 23.4097 26.7943 23.3588 26.8125C23.3406 26.8191 23.3221 26.8254 23.3044 26.832C23.2404 26.8561 23.1788 26.881 23.1209 26.9069C23.1126 26.9106 23.1052 26.9146 23.0971 26.9183C23.0474 26.9413 23.0001 26.9649 22.955 26.9892C22.9395 26.9976 22.9245 27.006 22.9095 27.0145C22.8691 27.0374 22.8307 27.0608 22.7944 27.0849C22.785 27.091 22.7749 27.0971 22.7658 27.1032C22.7225 27.1329 22.6825 27.1633 22.6454 27.1943C22.6361 27.2022 22.6279 27.21 22.619 27.2179C22.6029 27.232 22.586 27.246 22.5712 27.2603V26.1862C22.5712 26.1651 22.5762 26.1439 22.5809 26.1227C22.5844 26.1069 22.5892 26.0912 22.5953 26.0753C22.6002 26.0624 22.6062 26.0494 22.6129 26.0364C22.6212 26.0204 22.6305 26.0043 22.6413 25.9882C22.6495 25.9761 22.6587 25.9639 22.6684 25.9519C22.6821 25.9348 22.6967 25.9176 22.7132 25.9006C22.7232 25.8903 22.7342 25.8801 22.7453 25.8697C22.7656 25.851 22.7867 25.8324 22.8103 25.814C22.8204 25.806 22.8313 25.7983 22.8421 25.7904C22.87 25.77 22.8991 25.7497 22.9311 25.7298C22.9395 25.7244 22.9485 25.7193 22.9573 25.7141C22.994 25.6921 23.0325 25.6704 23.074 25.6491C23.0794 25.6463 23.0849 25.6437 23.0904 25.6409C23.1367 25.6178 23.1851 25.595 23.2369 25.573C23.2383 25.5724 23.2398 25.5718 23.2413 25.5712C23.5218 25.4525 23.8807 25.3526 24.2988 25.2873C24.3009 25.2871 24.303 25.2868 24.3051 25.2864C24.3864 25.2737 24.4698 25.2623 24.5554 25.2525C24.5693 25.2509 24.584 25.2499 24.5981 25.2483C24.6729 25.2401 24.7486 25.2325 24.8263 25.2265C24.8619 25.2237 24.8992 25.2223 24.9354 25.22C24.9939 25.2164 25.0518 25.2123 25.1119 25.21C25.2101 25.2067 25.3101 25.2046 25.4123 25.2046C25.5145 25.2046 25.6145 25.2067 25.7127 25.2104C25.7728 25.2127 25.8307 25.2168 25.8892 25.2204C25.9254 25.2227 25.9627 25.2241 25.9983 25.2269C26.0761 25.2327 26.1517 25.2405 26.2265 25.2487C26.2406 25.2503 26.2553 25.2513 26.2692 25.2529C26.3548 25.2628 26.4382 25.2742 26.5195 25.2868C26.5216 25.2871 26.5237 25.2873 26.5258 25.2877C26.9439 25.3531 27.3028 25.453 27.5833 25.5716C27.5848 25.5721 27.5863 25.5728 27.5877 25.5734C27.6395 25.5954 27.688 25.6182 27.7342 25.6413C27.7396 25.6441 27.7452 25.6467 27.7506 25.6494C27.7921 25.6707 27.8305 25.6924 27.8673 25.7145C27.8759 25.7197 27.8851 25.7248 27.8935 25.7302C27.9255 25.7501 27.9546 25.7704 27.9825 25.7908C27.9932 25.7986 28.0042 25.8065 28.0143 25.8144C28.0379 25.8328 28.059 25.8514 28.0793 25.8701C28.0903 25.8804 28.1012 25.8907 28.1114 25.901C28.1279 25.918 28.1425 25.9351 28.1562 25.9523C28.1659 25.9643 28.1751 25.9765 28.1833 25.9885C28.1941 26.0046 28.2034 26.0207 28.2117 26.0368C28.2184 26.0498 28.2243 26.0628 28.2293 26.0757C28.2354 26.0915 28.2402 26.1074 28.2437 26.1231C28.2484 26.1439 28.2534 26.1651 28.2534 26.1862V27.2603C28.2386 27.246 28.2217 27.232 28.2056 27.2179C28.1967 27.21 28.1885 27.2022 28.1792 27.1943ZM25.4123 28.7382C23.7379 28.7382 22.5712 28.221 22.5712 27.7567C22.5712 27.2923 23.7379 26.7751 25.4123 26.7751C27.0867 26.7751 28.2534 27.2923 28.2534 27.7567C28.2534 28.221 27.0867 28.7382 25.4123 28.7382Z" fill="#6EBE49" stroke="#6EBE49" stroke-width="0.6"/>
<path d="M24.3384 18.8635L25.1836 18L26.0288 18.8635" stroke="#6EBE49" stroke-width="0.5" stroke-linecap="round"/>
<path d="M20.2356 24.4763C20.2356 25.0321 19.7962 25.4716 19.2678 25.4716C18.7393 25.4716 18.3 25.0321 18.3 24.4763C18.3 23.9205 18.7393 23.481 19.2678 23.481C19.7962 23.481 20.2356 23.9205 20.2356 24.4763Z" stroke="#6EBE49" stroke-width="0.6"/>
<rect x="20.9347" y="20.127" width="2.58075" height="2.65412" rx="0.6" stroke="#6EBE49" stroke-width="0.8"/>
<path d="M19.2682 23.6129L19.2682 19.7271C19.2682 19.269 19.424 18.8297 19.7014 18.5058C19.9788 18.182 20.355 18 20.7473 18C21.1395 18 21.5158 18.182 21.7931 18.5058C22.0705 18.8297 22.2263 19.269 22.2263 19.7271V19.919" stroke="#6EBE49" stroke-width="0.8"/>
<path d="M25.1846 18.4318L25.1846 23.1812C25.1846 23.6392 25.0287 24.0785 24.7514 24.4024C24.474 24.7263 24.0978 24.9083 23.7055 24.9083C23.3132 24.9083 22.937 24.7263 22.6596 24.4024C22.3822 24.0785 22.2264 23.6392 22.2264 23.1812L22.2264 22.9893" stroke="#6EBE49" stroke-width="0.8"/>
<path d="M11 18.8327C7.69156 18.8327 5 16.1417 5 12.8339C5 10.9021 5.93948 9.07716 7.51303 7.95198C7.93872 7.64774 8.5304 7.74597 8.83466 8.17157C9.13907 8.5971 9.04083 9.1887 8.61517 9.49293C7.53792 10.2632 6.89468 11.5122 6.89468 12.8339C6.89468 15.0973 8.7363 16.9384 11 16.9384C13.2637 16.9384 15.1053 15.0973 15.1053 12.8339C15.1053 11.5122 14.4621 10.2632 13.3848 9.49293C12.9592 9.18873 12.8609 8.59714 13.1653 8.17157C13.4696 7.74601 14.0613 7.64774 14.487 7.95198C16.0605 9.07712 17 10.9021 17 12.8339C17 16.1417 14.3084 18.8327 11 18.8327Z" fill="#6EBE49"/>
<path d="M11.0921 12.2792C10.5676 12.2792 10.1425 11.8541 10.1425 11.3296V5.94932C10.1425 5.42508 10.5676 5 11.0921 5C11.6165 5 12.0417 5.42508 12.0417 5.94932V11.3296C12.0417 11.8541 11.6165 12.2792 11.0921 12.2792Z" fill="#6EBE49"/>
</svg>
