<svg width="33" height="31" viewBox="0 0 33 31" fill="none" xmlns="http://www.w3.org/2000/svg">
<path d="M1 1H20C21.6569 1 23 2.34315 23 4V20C23 21.6569 21.6569 23 20 23H4C2.34315 23 1 21.6569 1 20V1Z" fill="white" stroke="#6EBE49" stroke-width="2"/>
<circle cx="24" cy="22" r="8.25" fill="white" stroke="#6EBE49" stroke-width="1.5"/>
<path d="M25.1246 22.4037L26.1603 22.6021C26.171 23.0927 26.5915 23.4819 27.0995 23.4716C27.6074 23.4612 28.0105 23.0551 27.9998 22.5646C27.9891 22.0741 27.5686 21.6848 27.0606 21.6952C26.7039 21.7025 26.3836 21.9083 26.239 22.2233L25.1765 22.0197C25.1754 21.6442 25.0241 21.2837 24.7542 21.0134L26.1294 19.1375C26.7094 19.4038 27.4032 19.1656 27.679 18.6055C27.9548 18.0454 27.7082 17.3754 27.1281 17.1091C26.5481 16.8427 25.8543 17.0809 25.5785 17.641C25.368 18.0686 25.4577 18.5778 25.803 18.914L24.4411 20.7718C23.8147 20.4086 23.0089 20.5306 22.5278 21.0616L20.7399 19.7208C20.9746 19.2845 20.7986 18.7471 20.3469 18.5205C19.8952 18.2939 19.3387 18.4638 19.104 18.9C18.8693 19.3363 19.0452 19.8736 19.497 20.1003C19.8144 20.2595 20.1986 20.227 20.4825 20.017L22.3049 21.3837C22.0021 21.9811 22.1565 22.7007 22.6801 23.1328L21.5725 24.645C20.9862 24.3014 20.2224 24.4818 19.8666 25.0481C19.5107 25.6143 19.6976 26.3519 20.284 26.6955C20.8703 27.0391 21.6341 26.8586 21.9899 26.2924C22.2665 25.8523 22.2214 25.291 21.8779 24.8974L23.0153 23.344C23.4044 23.5227 23.854 23.5324 24.2511 23.3708L25.6007 25.296C25.2037 25.7012 25.2222 26.3405 25.6418 26.7238C26.0615 27.1071 26.7235 27.0893 27.1204 26.684C27.5173 26.2788 27.4989 25.6395 27.0792 25.2562C26.7698 24.9736 26.3138 24.9004 25.9263 25.0712L24.5962 23.1737C24.8537 22.9788 25.0392 22.7087 25.1246 22.4037Z" fill="#6EBE49" stroke="#6EBE49" stroke-width="0.7"/>
<path d="M14.9998 8L7.92869 15.0711" stroke="#6EBE49" stroke-width="2" stroke-linecap="round"/>
<path d="M14.9998 15L7.92869 7.92893" stroke="#6EBE49" stroke-width="2" stroke-linecap="round"/>
</svg>
