<svg width="60" height="60" viewBox="0 0 60 60" fill="none" xmlns="http://www.w3.org/2000/svg">
<circle cx="30" cy="30" r="26" fill="#DC1F2E" fill-opacity="0.1" stroke="#FDF4F5" stroke-width="8"/>
<path d="M30 43C37.1797 43 43 37.1797 43 30C43 22.8203 37.1797 17 30 17C22.8203 17 17 22.8203 17 30C17 37.1797 22.8203 43 30 43Z" fill="#DC1F2E" stroke="#DC1F2E" stroke-width="2" stroke-linecap="round" stroke-linejoin="round"/>
<path d="M31.0867 27.4988C28.5959 29.1191 23.3427 33.4697 21.4206 30.7339C21.0053 30.229 21.3739 28.5289 23.1294 28.2727" stroke="white" stroke-width="0.8"/>
<ellipse rx="0.8" ry="0.800031" transform="matrix(0.995832 -0.0912087 0.0912015 0.995833 30.9571 27.4765)" fill="white"/>
<rect x="31.5879" y="32.4" width="2.4" height="2.40013" stroke="white" stroke-width="0.8"/>
<path d="M32.0156 30.3501L33.4879 27.8L34.9601 30.3501H32.0156Z" stroke="white" stroke-width="0.8"/>
<path d="M29.7857 33.8003C29.7857 34.4631 29.2484 35.0003 28.5857 35.0003C27.923 35.0003 27.3857 34.4631 27.3857 33.8003C27.3857 33.1375 27.923 32.6002 28.5857 32.6002C29.2484 32.6002 29.7857 33.1375 29.7857 33.8003Z" stroke="white" stroke-width="0.8"/>
<path d="M22.5879 23.3004L25.9769 36.9299C27.9486 37.7132 31.5635 38.8846 35.2195 36.9299L38.5879 23.3004M22.5879 23.3004C22.5879 23.3004 27.1918 24.9351 30.5879 24.825C33.6215 24.7267 38.5879 23.3004 38.5879 23.3004M22.5879 23.3004C25.7992 21.3597 28.7791 20.9283 31.0658 21.0091C33.1359 21.0823 35.8307 21.4807 38.5879 23.3004" stroke="white" stroke-width="1.5"/>
</svg>
