<svg width="64" height="64" viewBox="0 0 64 64" fill="none" xmlns="http://www.w3.org/2000/svg">
<circle cx="32" cy="32" r="27" fill="#6EBE49" fill-opacity="0.2" stroke="#F0FFEA" stroke-width="10"/>
<path d="M32.0007 45.0009C39.1804 45.0009 45.0007 39.1806 45.0007 32.0009C45.0007 24.8212 39.1804 19.0009 32.0007 19.0009C24.821 19.0009 19.0007 24.8212 19.0007 32.0009C19.0007 39.1806 24.821 45.0009 32.0007 45.0009Z" fill="#6EBE49"/>
<path d="M36.0004 25.6198L32.0004 24.3891L28.0004 25.6198M36.0004 25.6198L32.0004 27.466M36.0004 25.6198V31.1583L32.0004 32.3891M32.0004 27.466L28.0004 25.6198M32.0004 27.466V32.3891M28.0004 25.6198V31.1583L32.0004 32.3891" stroke="white" stroke-width="1.2"/>
<path d="M40.0004 32.391L36.0004 31.1602L32.0004 32.391M40.0004 32.391L36.0004 34.2371M40.0004 32.391V37.9294L36.0004 39.1602M36.0004 34.2371L32.0004 32.391M36.0004 34.2371V39.1602M32.0004 32.391V37.9294L36.0004 39.1602" stroke="white" stroke-width="1.2"/>
<path d="M32.0004 32.391L28.0004 31.1602L24.0004 32.391M32.0004 32.391L28.0004 34.2371M32.0004 32.391V37.9294L28.0004 39.1602M28.0004 34.2371L24.0004 32.391M28.0004 34.2371V39.1602M24.0004 32.391V37.9294L28.0004 39.1602" stroke="white" stroke-width="1.2"/>
</svg>
